<svg width="56" height="56" viewBox="0 0 56 56" fill="none" xmlns="http://www.w3.org/2000/svg">
<path d="M40.4706 32.3765C39.7936 34.7317 38.4518 36.8417 36.606 38.4537C34.7602 40.0657 32.4888 41.1112 30.0639 41.465C28.1676 41.7401 26.2353 41.6292 24.3829 41.139C22.5306 40.6488 20.7964 39.7893 19.2845 38.6121C17.7726 37.435 16.5141 35.9645 15.5846 34.2889C14.6552 32.6133 14.0739 30.7672 13.8756 28.8613C13.722 26.948 13.9671 25.0236 14.5953 23.2098C15.2236 21.3961 16.2213 19.7324 17.5254 18.324C18.8295 16.9155 20.4116 15.793 22.1718 15.0273C23.9319 14.2616 25.8318 13.8694 27.7513 13.8756C29.5499 13.8781 31.3316 14.2235 33.0009 14.8931C33.2638 15.0112 33.5612 15.0268 33.835 14.9369C34.1087 14.8471 34.3391 14.6583 34.481 14.4075L37.8111 8.27908C37.8828 8.13793 37.9259 7.984 37.938 7.82615C37.95 7.66829 37.9308 7.50961 37.8814 7.35921C37.8319 7.2088 37.7533 7.06964 37.65 6.94969C37.5467 6.82975 37.4207 6.73139 37.2792 6.66026C33.7033 5.04123 29.7741 4.35907 25.8617 4.67805C21.9492 4.99702 18.1824 6.30661 14.9159 8.48349C11.6495 10.6604 8.99085 13.6329 7.19051 17.1211C5.39016 20.6092 4.50733 24.4983 4.62517 28.4219C4.85307 34.2494 7.24854 39.7819 11.3423 43.9356C15.4361 48.0893 20.9332 50.5649 26.7568 50.8774C32.8573 51.1479 38.8172 48.9946 43.336 44.8874C47.8549 40.7801 50.5658 35.0523 50.8774 28.9538C50.8774 28.4913 50.8774 25.8318 50.8774 24.3286C50.8714 24.0238 50.7477 23.7331 50.5321 23.5175C50.3166 23.3019 50.0259 23.1782 49.7211 23.1723H28.9076C28.6009 23.1723 28.3068 23.2941 28.0899 23.511C27.8731 23.7278 27.7513 24.0219 27.7513 24.3286V31.2664C27.7513 31.5731 27.8731 31.8672 28.0899 32.0841C28.3068 32.3009 28.6009 32.4227 28.9076 32.4227H40.4706" fill="#5A789F"/>
</svg>
