<svg width="56" height="56" viewBox="0 0 56 56" fill="none" xmlns="http://www.w3.org/2000/svg">
<path fill-rule="evenodd" clip-rule="evenodd" d="M16.3101 0.166508C19.2702 0.0308291 20.2138 0 27.7513 0C35.2903 0 36.2324 0.0323681 39.1909 0.166508C42.1464 0.300648 44.1647 0.770881 45.9299 1.45694C47.7815 2.15403 49.4586 3.24625 50.845 4.6576C52.2565 6.04373 53.3489 7.72107 54.0457 9.57267C54.7317 11.338 55.2004 13.3561 55.3361 16.3101C55.4719 19.2702 55.5026 20.2138 55.5026 27.7513C55.5026 35.2888 55.4703 36.2324 55.3361 39.1927C55.2019 42.1464 54.7317 44.1647 54.0457 45.9299C53.3365 47.754 52.3867 49.3032 50.845 50.845C49.4589 52.2565 47.7815 53.3489 45.9299 54.0457C44.1647 54.7317 42.1464 55.2004 39.1927 55.3361C36.2324 55.4719 35.2888 55.5026 27.7513 55.5026C20.2138 55.5026 19.2702 55.4703 16.3101 55.3361C13.3561 55.2019 11.338 54.7317 9.57267 54.0457C7.74877 53.3365 6.19934 52.3867 4.6576 50.845C3.246 49.4589 2.1537 47.7815 1.45694 45.9299C0.770881 44.1647 0.302187 42.1464 0.166508 39.1927C0.0308291 36.2324 0 35.2903 0 27.7513C0 20.2122 0.0323681 19.2702 0.166508 16.3116C0.300648 13.3561 0.770881 11.338 1.45694 9.57267C2.15403 7.7212 3.24625 6.04393 4.6576 4.6576C6.04371 3.246 7.72105 2.1537 9.57267 1.45694C11.338 0.770881 13.3561 0.302187 16.3101 0.166508ZM38.9659 5.16174C36.0396 5.02914 35.1609 4.99985 27.7513 4.99985C20.3417 4.99985 19.4629 5.02914 16.5367 5.16174C13.831 5.28509 12.3617 5.7368 11.3842 6.11763C10.0891 6.62023 9.16409 7.2215 8.19279 8.19279C7.22306 9.16409 6.62023 10.0891 6.11763 11.3842C5.7368 12.3617 5.28509 13.831 5.16174 16.5367C5.02914 19.4629 4.99985 20.3417 4.99985 27.7513C4.99985 35.1609 5.02914 36.0396 5.16174 38.9659C5.28509 41.6716 5.7368 43.1409 6.11763 44.1185C6.5622 45.324 7.27132 46.4143 8.19279 47.3099C9.08815 48.2313 10.1787 48.9405 11.3842 49.385C12.3617 49.7659 13.831 50.2175 16.5367 50.3409C19.4629 50.4736 20.3402 50.5029 27.7513 50.5029C35.1624 50.5029 36.0396 50.4736 38.9659 50.3409C41.6716 50.2175 43.1409 49.7659 44.1185 49.385C45.4135 48.8824 46.3386 48.2812 47.3099 47.3099C48.2313 46.4146 48.9405 45.324 49.385 44.1185C49.7659 43.1409 50.2175 41.6716 50.3409 38.9659C50.4736 36.0396 50.5029 35.1609 50.5029 27.7513C50.5029 20.3417 50.4736 19.4629 50.3409 16.5367C50.2175 13.831 49.7659 12.3617 49.385 11.3842C48.8824 10.0891 48.2812 9.16409 47.3099 8.19279C46.3386 7.22306 45.4135 6.62023 44.1185 6.11763C43.1409 5.7368 41.6716 5.28509 38.9659 5.16174ZM24.208 36.306C25.3314 36.7715 26.5353 37.0109 27.7513 37.0109C30.2073 37.0109 32.5624 36.0353 34.2989 34.2989C36.0356 32.5624 37.0112 30.2071 37.0112 27.7513C37.0112 25.2956 36.0356 22.9402 34.2989 21.2037C32.5624 19.4672 30.2073 18.4916 27.7513 18.4916C26.5353 18.4916 25.3314 18.7311 24.208 19.1965C23.0843 19.6618 22.0636 20.3439 21.2038 21.2037C20.344 22.0636 19.6619 23.0843 19.1965 24.2077C18.7312 25.3311 18.4917 26.5353 18.4917 27.7513C18.4917 28.9673 18.7312 30.1715 19.1965 31.2949C19.6619 32.4183 20.344 33.4391 21.2038 34.2989C22.0636 35.1586 23.0843 35.8408 24.208 36.306ZM17.6651 17.665C20.3402 14.9899 23.9683 13.4871 27.7513 13.4871C31.5346 13.4871 35.1627 14.9899 37.8377 17.665C40.5126 20.3401 42.0155 23.9683 42.0155 27.7513C42.0155 31.5343 40.5126 35.1624 37.8377 37.8377C35.1627 40.5126 31.5346 42.0155 27.7513 42.0155C23.9683 42.0155 20.3402 40.5126 17.6651 37.8377C14.9901 35.1624 13.4872 31.5343 13.4872 27.7513C13.4872 23.9683 14.9901 20.3401 17.6651 17.665ZM45.1784 15.6123C45.8106 14.98 46.1658 14.1224 46.1658 13.2281C46.1658 12.3338 45.8106 11.4762 45.1784 10.8439C44.5459 10.2116 43.6884 9.85633 42.794 9.85633C41.8999 9.85633 41.0422 10.2116 40.41 10.8439C39.7775 11.4762 39.4223 12.3338 39.4223 13.2281C39.4223 14.1224 39.7775 14.98 40.41 15.6123C41.0422 16.2447 41.8999 16.5999 42.794 16.5999C43.6884 16.5999 44.5459 16.2447 45.1784 15.6123Z" fill="#5A789F"/>
</svg>
