<svg width="972" height="902" viewBox="0 0 972 902" fill="none" xmlns="http://www.w3.org/2000/svg">
<rect width="972" height="902" fill="#F5F7FC"/>
<path d="M902 35H70V867H902V35Z" fill="#F5F7FC"/>
<path d="M362.828 760.979C362.828 774.067 473.771 784.677 610.62 784.677C747.474 784.677 858.417 774.067 858.417 760.979C858.417 747.89 747.474 737.286 610.62 737.286C473.771 737.286 362.828 747.89 362.828 760.979Z" fill="#8E83C4"/>
<path d="M510.656 762.979H518.896C520.661 762.979 522.099 761.531 522.099 759.766L543.229 680.479C543.229 678.714 541.792 677.266 540.021 677.266H521.078C519.312 677.266 517.87 678.714 517.87 680.479L507.453 759.766C507.453 761.531 508.891 762.979 510.656 762.979Z" fill="#1E272E"/>
<path d="M561.063 740.005H565.839C566.87 740.005 567.709 739.167 567.709 738.141L579.985 692.068C579.985 691.042 579.146 690.203 578.126 690.203H567.115C566.089 690.203 565.245 691.042 565.245 692.068L559.193 738.141C559.193 739.167 560.027 740.005 561.063 740.005Z" fill="#0D1114"/>
<path d="M762.859 762.979H754.625C752.854 762.979 751.411 761.531 751.411 759.766L730.281 680.479C730.281 678.714 731.729 677.266 733.495 677.266H752.432C754.198 677.266 755.646 678.714 755.646 680.479L766.062 759.766C766.062 761.531 764.62 762.979 762.859 762.979Z" fill="#1E272E"/>
<path d="M712.458 740.005H707.672C706.646 740.005 705.807 739.167 705.807 738.141L693.531 692.068C693.531 691.042 694.37 690.203 695.396 690.203H706.406C707.432 690.203 708.271 691.042 708.271 692.068L714.323 738.141C714.323 739.167 713.484 740.005 712.458 740.005Z" fill="#0D1114"/>
<path d="M223.947 760.979C223.947 768.849 275.494 775.229 339.088 775.229C402.676 775.229 454.234 768.849 454.234 760.979C454.234 753.109 402.676 746.734 339.088 746.734C275.494 746.734 223.947 753.109 223.947 760.979Z" fill="#8E83C4"/>
<path d="M110.666 760.979C110.666 764.922 130.713 768.109 155.437 768.109C180.161 768.109 200.202 764.922 200.202 760.979C200.202 757.042 180.161 753.854 155.437 753.854C130.713 753.854 110.666 757.042 110.666 760.979Z" fill="#8E83C4"/>
<mask id="mask0_1117_283" style="mask-type:luminance" maskUnits="userSpaceOnUse" x="402" y="768" width="146" height="37">
<path d="M402.666 768.333H547.327V804.797H402.666V768.333Z" fill="white"/>
</mask>
<g mask="url(#mask0_1117_283)">
<path d="M402.838 786.688C402.838 796.683 435.119 804.797 474.942 804.797C514.76 804.797 547.041 796.683 547.041 786.688C547.041 776.683 514.76 768.573 474.942 768.573C435.119 768.573 402.838 776.683 402.838 786.688Z" fill="#8E83C4"/>
</g>
<mask id="mask1_1117_283" style="mask-type:luminance" maskUnits="userSpaceOnUse" x="116" y="71" width="751" height="632">
<path d="M116 71.8125H866.667V703H116V71.8125Z" fill="white"/>
</mask>
<g mask="url(#mask1_1117_283)">
<path d="M654.723 519.089H537.223V296.979H654.723V519.089ZM531.302 519.089H413.796V296.979H531.302V519.089ZM407.88 519.089H290.374V296.979H407.88V519.089ZM654.723 100.969V290.589H537.223V72.4116C535.244 72.1929 533.27 71.995 531.302 71.8022V290.589H413.796V74.7606C411.812 75.0627 409.843 75.3804 407.88 75.7137V290.589H290.374V114.13C153.098 184.542 79.5151 330.156 136.395 492.412C202.291 680.401 346.406 619.302 408.942 643.948C479.354 671.693 475.421 681.386 503.65 691.078C562.838 711.406 622.927 699.422 671.27 683.636C777.624 648.906 854.005 550.323 864.63 438.198C882.546 249.188 735.833 138.38 654.723 100.969Z" fill="#E3DEF4"/>
</g>
<path d="M636.416 714.256C608.135 714.256 576.151 713.125 522.057 711.125C521.921 711.125 521.76 711.125 521.562 711.125C521.312 711.125 521.026 711.125 520.708 711.125C520.27 711.131 519.781 711.131 519.239 711.131C506.359 711.131 496.869 708.625 490.234 703.459C477.546 693.589 461.124 667.063 447.38 634.24C432.437 598.568 424.374 564.183 425.255 539.907C425.921 521.631 431.479 508.886 441.786 502.011C459.036 490.495 472.703 489.802 480.864 489.381C482.734 489.287 485.01 489.167 486.031 488.901C486.984 485.323 486.963 476.75 486.953 469.146C486.932 458.464 486.911 447.417 488.822 440.032C491.572 429.412 498.984 421.901 527.364 417.245C559.437 411.985 594.864 409.323 632.671 409.323C634.041 409.323 635.416 409.323 636.781 409.334C638.104 409.323 639.473 409.323 640.843 409.323C678.645 409.323 714.078 411.985 746.156 417.245C774.531 421.901 781.937 429.412 784.687 440.032C786.598 447.417 786.583 458.464 786.567 469.146C786.546 476.75 786.531 485.323 787.479 488.901C788.499 489.167 790.781 489.287 792.651 489.381C800.817 489.802 814.479 490.495 831.729 502.011C842.031 508.886 847.593 521.631 848.26 539.907C849.145 564.183 841.083 598.568 826.14 634.24C812.39 667.063 795.968 693.589 783.276 703.459C776.645 708.625 767.156 711.131 754.281 711.131C753.734 711.131 753.244 711.131 752.807 711.125C752.489 711.125 752.203 711.125 751.958 711.125C751.755 711.125 751.588 711.125 751.458 711.125C697.364 713.125 665.38 714.256 637.104 714.256H636.416Z" fill="#8E83C4"/>
<path d="M829.094 505.963C802.448 488.177 785.526 497.963 783.131 490.932C780.303 482.625 783.464 454.229 780.099 441.224C778.115 433.588 773.636 426.562 745.381 421.932C711.381 416.359 674.344 413.885 636.756 414.083C599.172 413.885 562.136 416.359 528.131 421.932C499.881 426.562 495.402 433.588 493.422 441.224C490.053 454.229 493.209 482.625 490.386 490.932C487.985 497.963 471.073 488.177 444.417 505.963C402.542 533.901 461.688 675.229 493.152 699.708C503.042 707.406 519.198 706.271 522.235 706.38C578.23 708.448 608.855 709.505 636.417 709.505C636.532 709.505 636.641 709.505 636.756 709.505C636.87 709.505 636.99 709.505 637.105 709.505C664.662 709.505 695.287 708.448 751.282 706.38C754.323 706.271 770.469 707.406 780.365 699.708C811.829 675.229 870.969 533.901 829.094 505.963Z" fill="#8E83C4"/>
<path d="M836.729 515.464C834.672 514.37 832.474 513.365 830.099 512.5C822.537 509.735 814.896 510.579 812.167 510.886C812.167 510.886 799.302 512.349 787.318 522.943C752.453 553.75 771.922 639.881 749.709 645.86C726.037 652.24 681.615 651.875 637.594 651.714V651.704C637.313 651.704 637.037 651.714 636.755 651.714C636.485 651.714 636.198 651.704 635.922 651.704V651.714C591.906 651.875 547.479 652.24 523.808 645.86C501.594 639.881 521.063 553.75 486.198 522.943C474.219 512.349 461.349 510.886 461.349 510.886C458.62 510.579 450.974 509.735 443.417 512.5C441.042 513.365 438.839 514.37 436.787 515.464C412.25 556.422 464.672 677.995 493.641 700.526C503.537 708.23 519.688 707.068 522.724 707.198C570.86 709.256 602.849 710.766 635.922 710.865V710.875C636.198 710.875 636.485 710.875 636.755 710.875C637.037 710.875 637.313 710.875 637.594 710.875V710.865C670.667 710.766 702.656 709.256 750.787 707.198C753.828 707.068 769.974 708.23 779.875 700.526C808.839 677.995 861.261 556.422 836.729 515.464Z" fill="#BDB1E5"/>
<path d="M783.13 490.932C780.302 482.625 783.464 454.229 780.099 441.224C778.115 433.588 773.635 426.562 745.38 421.932C711.38 416.359 674.344 413.885 636.755 414.083C599.172 413.885 562.135 416.359 528.13 421.932C499.88 426.562 495.401 433.588 493.422 441.224C490.052 454.229 493.208 482.625 490.385 490.932C489.818 492.599 488.427 493.312 486.297 493.677C491.87 493.891 502.547 495.281 513.214 502.068C539.979 519.12 540.635 584.568 540.828 584.536C540.833 584.536 540.812 584.437 540.823 584.391C540.953 583.531 732.193 583.531 732.312 584.391C732.318 584.437 732.302 584.536 732.307 584.536C732.505 584.568 733.156 519.12 759.932 502.068C770.797 495.151 781.682 493.844 787.156 493.672C785.062 493.302 783.693 492.578 783.13 490.932Z" fill="#8E83C4"/>
<path d="M758.037 589.182C750.927 577.333 733.537 573.854 723.573 572.88C691.25 569.718 582.271 569.718 549.943 572.88C539.979 573.854 522.589 577.333 515.479 589.182C508.969 600.036 519.776 632.656 522.87 637.994C524.849 641.401 527.479 642.307 528.51 642.505C552.583 647.099 720.938 647.099 745.005 642.505C746.042 642.307 748.662 641.401 750.646 637.994C753.74 632.656 764.547 600.036 758.037 589.182Z" fill="#BDB1E5"/>
<path d="M367.662 503.734H317.803V458.609H367.662V503.734Z" fill="#0D1114"/>
<path d="M398.224 503.734H287.234C287.234 497.828 292.021 493.047 297.922 493.047H387.542C393.443 493.047 398.224 497.828 398.224 503.734Z" fill="#1E272E"/>
<path d="M441.385 471.969H243.932C237.161 471.969 231.666 466.474 231.666 459.698V303.13C231.666 296.349 237.161 290.859 243.932 290.859H441.385C448.156 290.859 453.64 296.349 453.64 303.13V459.698C453.64 466.474 448.156 471.969 441.385 471.969Z" fill="#1E272E"/>
<path d="M441.531 291.083H244.078C237.307 291.083 231.812 296.573 231.812 303.354V437.453H453.792V303.354C453.792 296.573 448.302 291.083 441.531 291.083Z" fill="#0D1114"/>
<path d="M350.448 453.854C350.448 458.12 346.995 461.573 342.729 461.573C338.469 461.573 335.016 458.12 335.016 453.854C335.016 449.594 338.469 446.141 342.729 446.141C346.995 446.141 350.448 449.594 350.448 453.854Z" fill="#BDB1E5"/>
<path d="M131.489 762.635H135.869C136.843 762.635 137.708 761.99 137.963 761.068L198.463 508.896C199.093 506.672 197.379 504.469 195.025 504.469H185.921C184.286 504.469 182.859 505.557 182.463 507.125L129.385 759.99C129.041 761.333 130.077 762.635 131.489 762.635Z" fill="#0D1114"/>
<path d="M428.499 762.635H424.124C423.145 762.635 422.291 761.99 422.031 761.068L361.531 508.896C360.906 506.672 362.609 504.469 364.963 504.469H374.072C375.713 504.469 377.135 505.557 377.531 507.125L430.614 759.99C430.947 761.333 429.911 762.635 428.499 762.635Z" fill="#0D1114"/>
<path d="M426.949 521.505H121.245C116.667 521.505 112.959 517.786 112.959 513.208V512.031C112.959 507.448 116.667 503.734 121.245 503.734H426.949C431.527 503.734 435.235 507.448 435.235 512.031V513.208C435.235 517.786 431.527 521.505 426.949 521.505Z" fill="#0D1114"/>
<path d="M405.282 137.276H551.579C561.12 137.276 568.85 145.021 568.85 154.563V223.344C568.85 232.891 561.12 240.631 551.579 240.631H444.714L425.011 258.641V240.631H405.282C395.745 240.631 388.006 232.891 388.006 223.344V154.563C388.006 145.021 395.745 137.276 405.282 137.276Z" fill="#8E83C4"/>
<path d="M509.501 217.744C509.501 219.843 507.803 221.552 505.699 221.552C503.6 221.552 501.896 219.843 501.896 217.744C501.896 215.64 503.6 213.942 505.699 213.942C507.803 213.942 509.501 215.64 509.501 217.744Z" fill="white"/>
<path d="M525.275 217.744C525.275 219.843 523.572 221.552 521.468 221.552C519.369 221.552 517.666 219.843 517.666 217.744C517.666 215.64 519.369 213.942 521.468 213.942C523.572 213.942 525.275 215.64 525.275 217.744Z" fill="white"/>
<path d="M541.047 217.744C541.047 219.843 539.349 221.552 537.245 221.552C535.146 221.552 533.438 219.843 533.438 217.744C533.438 215.64 535.146 213.942 537.245 213.942C539.349 213.942 541.047 215.64 541.047 217.744Z" fill="white"/>
<path d="M540.865 166.812H453.24C451.135 166.812 449.422 165.099 449.422 162.995C449.422 160.88 451.135 159.172 453.24 159.172H540.865C542.969 159.172 544.682 160.88 544.682 162.995C544.682 165.099 542.969 166.812 540.865 166.812Z" fill="white"/>
<path d="M540.865 185.073H413.402C411.298 185.073 409.584 183.36 409.584 181.25C409.584 179.141 411.298 177.433 413.402 177.433H540.865C542.969 177.433 544.683 179.141 544.683 181.25C544.683 183.36 542.969 185.073 540.865 185.073Z" fill="white"/>
<path d="M540.865 203.328H413.402C411.298 203.328 409.584 201.62 409.584 199.51C409.584 197.396 411.298 195.688 413.402 195.688H540.865C542.969 195.688 544.683 197.396 544.683 199.51C544.683 201.62 542.969 203.328 540.865 203.328Z" fill="white"/>
<path d="M490.657 221.589H413.402C411.298 221.589 409.584 219.875 409.584 217.766C409.584 215.651 411.298 213.948 413.402 213.948H490.657C492.766 213.948 494.475 215.651 494.475 217.766C494.475 219.875 492.766 221.589 490.657 221.589Z" fill="white"/>
<path d="M595.125 229.192H476.49C468.75 229.192 462.484 235.468 462.484 243.213V298.989C462.484 306.729 468.75 313.005 476.49 313.005H563.156L579.13 327.614V313.005H595.125C602.865 313.005 609.141 306.729 609.141 298.989V243.213C609.141 235.468 602.865 229.192 595.125 229.192Z" fill="#1E272E"/>
<path d="M561.005 294.448C561.005 296.156 559.624 297.536 557.926 297.536C556.218 297.536 554.838 296.156 554.838 294.448C554.838 292.75 556.218 291.364 557.926 291.364C559.624 291.364 561.005 292.75 561.005 294.448Z" fill="white"/>
<path d="M573.798 294.448C573.798 296.156 572.417 297.536 570.714 297.536C569.011 297.536 567.631 296.156 567.631 294.448C567.631 292.75 569.011 291.364 570.714 291.364C572.417 291.364 573.798 292.75 573.798 294.448Z" fill="white"/>
<path d="M586.588 294.448C586.588 296.156 585.202 297.536 583.505 297.536C581.801 297.536 580.416 296.156 580.416 294.448C580.416 292.75 581.801 291.364 583.505 291.364C585.202 291.364 586.588 292.75 586.588 294.448Z" fill="white"/>
<path d="M586.438 253.151H515.386C513.673 253.151 512.287 251.761 512.287 250.047C512.287 248.339 513.673 246.948 515.386 246.948H586.438C588.152 246.948 589.537 248.339 589.537 250.047C589.537 251.761 588.152 253.151 586.438 253.151Z" fill="white"/>
<path d="M586.437 267.953H483.077C481.364 267.953 479.979 266.568 479.979 264.854C479.979 263.146 481.364 261.761 483.077 261.761H586.437C588.15 261.761 589.536 263.146 589.536 264.854C589.536 266.568 588.15 267.953 586.437 267.953Z" fill="white"/>
<path d="M586.437 282.76H483.077C481.364 282.76 479.979 281.375 479.979 279.661C479.979 277.948 481.364 276.562 483.077 276.562H586.437C588.15 276.562 589.536 277.948 589.536 279.661C589.536 281.375 588.15 282.76 586.437 282.76Z" fill="white"/>
<path d="M545.718 297.567H483.077C481.364 297.567 479.979 296.177 479.979 294.474C479.979 292.755 481.364 291.364 483.077 291.364H545.718C547.432 291.364 548.817 292.755 548.817 294.474C548.817 296.177 547.432 297.567 545.718 297.567Z" fill="white"/>
<path d="M501.537 557.359C504.235 546.38 522.527 531.724 537.85 529.172C552.891 526.661 560.683 528.823 573.605 530.208C619.042 535.078 663.037 577.906 710.912 579.317C711.714 579.343 713.042 579.145 714.558 579.76C719.969 581.963 722.558 595.593 720.053 597.812C719.464 598.333 718.709 598.39 718.506 598.364C653.698 590.885 591.438 603.343 534.73 595.76C518.422 593.578 513.834 589.286 509.198 585.458C501.402 579.02 499.183 566.916 501.537 557.359Z" fill="#EC7D40"/>
<path d="M524.604 683.271C541.083 647.224 559.088 568 565.541 554.047C571.791 540.505 575.598 536.188 578.307 533.604C586.525 525.766 595.895 523.214 606.395 520.828C633.067 514.766 648.046 515.526 681.572 510.609C686.234 509.922 703.083 507.412 724.984 508.057C736.775 508.401 740.635 511.458 744.135 513.964C759.031 524.625 753.406 550.401 751.796 555.318C750.515 559.24 745.312 572.063 731.369 577.755C725.827 580.016 717.463 581.339 700.718 579.833C688.812 578.755 682.135 578.068 671.51 577.281C661.968 576.568 623.343 573.495 614.213 583.906C609.562 589.203 609.588 597.484 609.109 603.865C606.536 638.156 579.63 665.016 559.057 691.948C546.807 691.078 534.635 688.745 524.604 683.271Z" fill="#312553"/>
<path d="M578.833 598.318C593.312 598.318 607.786 597.735 623.098 597.125C638.463 596.511 654.359 595.875 670.317 595.875L672.452 595.881L672.551 595.474C674.312 587.578 674.796 579.131 673.994 570.349L673.968 570.032L673.666 569.912C661.546 565.235 649.421 559.068 637.692 553.104C616.786 542.469 595.166 531.485 573.656 529.172C571.015 528.891 568.609 528.578 566.275 528.276C560.937 527.578 556.322 526.979 550.932 526.979C546.754 526.979 542.442 527.36 537.765 528.141C522.708 530.651 503.833 545.334 501.031 556.714C498.848 565.584 500.369 578.334 508.869 585.339L509.442 585.813C513.859 589.485 518.879 593.651 534.666 595.756C547.728 597.506 561.76 598.318 578.833 598.318Z" fill="#0D1114"/>
<path d="M493.25 728.182C495.719 721.885 508.833 715.833 524.177 684.24C524.214 684.146 524.25 684.057 524.292 683.964C540.854 648.245 559.047 568.094 565.542 554.047C571.792 540.505 575.599 536.188 578.307 533.604C586.526 525.766 595.896 523.214 606.396 520.828C633.068 514.766 648.047 515.526 681.573 510.609C686.234 509.922 703.083 507.412 724.985 508.057C736.776 508.401 740.636 511.458 744.136 513.964C759.031 524.625 753.406 550.401 751.797 555.318C750.516 559.24 745.313 572.063 731.37 577.755C725.828 580.016 717.464 581.339 700.719 579.833C688.813 578.755 682.136 578.068 671.511 577.281C661.969 576.568 623.344 573.495 614.214 583.906C609.563 589.203 609.589 597.484 609.109 603.865C605.448 652.656 552.521 686.396 538.672 726.729C534.589 738.63 529.406 741.609 524.979 745.271C514.448 753.974 496.302 756.948 490.813 750.151C486.662 745.016 490.5 735.208 493.25 728.182Z" fill="#F79556"/>
<path d="M540.521 724.562C542.683 724.937 547.449 745.276 542.829 752.208C541.214 754.63 520.339 769.104 510.511 775.307C508.662 776.468 503.527 779.599 496.652 782.239C493.428 783.474 484.589 787.687 469.449 786.859C464.074 786.562 455.688 783.76 450.475 780.359C447.188 778.213 446.266 776.484 445.86 775.739C443.672 771.76 447.376 765.021 448.167 763.755C451.626 758.192 455.855 757.036 464.329 752.208C478.131 744.333 485.912 735.119 494.344 724.489C496.683 721.536 495.532 719.651 497.589 718.494C501.006 716.578 510.209 723.25 518.37 731.416C520.678 733.724 523.938 736.218 528.98 734.661C536.745 732.265 537.975 724.109 540.521 724.562Z" fill="white"/>
<path d="M542.829 742.963C539.105 745.364 535.287 747.583 531.469 749.818L520.001 756.484L508.537 763.135C504.719 765.364 500.912 767.609 497.079 769.765C496.126 770.307 495.162 770.87 494.23 771.37C493.756 771.635 493.329 771.849 492.85 772.052C492.37 772.26 491.876 772.453 491.381 772.646C489.386 773.396 487.308 773.974 485.214 774.463C481.021 775.453 476.709 775.88 472.407 775.765C468.11 775.604 463.813 774.833 459.766 773.281C459.251 773.104 458.756 772.88 458.251 772.672C457.745 772.469 457.261 772.25 456.777 771.995C455.813 771.505 454.865 770.953 453.928 770.39C452.99 769.818 452.068 769.213 451.173 768.573C450.271 767.937 449.365 767.302 448.6 766.505C449.959 768.265 451.709 769.693 453.454 771.073C454.334 771.76 455.251 772.406 456.204 773.01C456.678 773.318 457.178 773.599 457.673 773.859C458.173 774.125 458.667 774.401 459.178 774.635C463.266 776.583 467.74 777.734 472.266 778.109C476.798 778.521 481.37 778.13 485.824 777.25C488.048 776.797 490.24 776.182 492.396 775.401C492.938 775.208 493.475 775.005 494.011 774.776C494.553 774.552 495.126 774.276 495.615 774.005C496.641 773.469 497.589 772.932 498.568 772.385C502.412 770.151 506.219 767.896 509.995 765.583C513.756 763.229 517.527 760.911 521.23 758.479C524.949 756.062 528.626 753.588 532.261 751.052C535.865 748.474 539.495 745.901 542.829 742.963Z" fill="#BDB1E5"/>
<path d="M505.6 740.974C504.209 739.974 502.839 739.193 501.48 738.412L497.48 736.141C496.162 735.391 494.844 734.641 493.542 733.849C492.23 733.052 490.949 732.282 489.646 731.198C489.725 732.058 490.089 732.875 490.501 733.631C490.938 734.37 491.454 735.058 492.032 735.672C493.193 736.912 494.542 737.943 495.995 738.761C497.449 739.578 499.001 740.214 500.62 740.61C502.23 740.995 503.902 741.183 505.6 740.974Z" fill="#1E1735"/>
<path d="M500.673 745.907C499.277 744.901 497.907 744.125 496.558 743.344L492.548 741.068C491.235 740.313 489.923 739.563 488.62 738.782C487.308 737.974 486.021 737.214 484.725 736.12C484.792 736.99 485.162 737.797 485.574 738.558C486.011 739.292 486.532 739.99 487.11 740.604C488.266 741.844 489.615 742.865 491.068 743.688C492.527 744.506 494.079 745.141 495.688 745.537C497.308 745.917 498.969 746.115 500.673 745.907Z" fill="#1E1735"/>
<path d="M495.745 750.833C494.354 749.828 492.979 749.047 491.63 748.271L487.625 745.995C486.307 745.245 484.995 744.495 483.693 743.708C482.38 742.901 481.099 742.141 479.797 741.052C479.87 741.922 480.24 742.729 480.646 743.485C481.083 744.224 481.599 744.917 482.177 745.526C483.339 746.776 484.693 747.797 486.146 748.615C487.599 749.438 489.151 750.068 490.76 750.464C492.38 750.849 494.047 751.037 495.745 750.833Z" fill="#1E1735"/>
<path d="M490.818 755.76C489.427 754.755 488.057 753.979 486.708 753.198L482.698 750.927C481.38 750.177 480.068 749.427 478.766 748.635C477.458 747.833 476.172 747.068 474.875 745.979C474.943 746.844 475.307 747.661 475.724 748.417C476.161 749.146 476.672 749.844 477.255 750.458C478.411 751.698 479.766 752.719 481.219 753.542C482.667 754.364 484.224 754.995 485.839 755.396C487.458 755.781 489.12 755.969 490.818 755.76Z" fill="#1E1735"/>
<path d="M559.468 692.266C563.046 687.578 566.895 682.797 570.624 678.167C588.744 655.657 607.484 632.386 609.619 603.901C609.682 603.177 609.729 602.427 609.775 601.662C610.161 595.641 610.593 588.813 614.604 584.245C618.864 579.391 630.859 576.818 649.286 576.818C658.484 576.818 666.932 577.453 670.989 577.761L671.473 577.792C679.124 578.365 684.682 578.875 691.718 579.532C694.426 579.776 697.348 580.052 700.671 580.344C705.437 580.776 709.755 580.995 713.515 580.995C721.218 580.995 726.952 580.12 731.562 578.24C745.801 572.422 751.031 559.349 752.286 555.479C753.041 553.183 754.937 545.339 754.676 536.782C754.354 526.141 750.817 518.104 744.437 513.542L744.077 513.282C740.546 510.745 736.546 507.875 724.999 507.537C722.645 507.469 720.249 507.433 717.88 507.433C699.65 507.433 686.093 509.422 681.64 510.078L681.499 510.094C668.005 512.073 657.411 513.141 648.062 514.089C634.208 515.49 622.239 516.698 606.281 520.323C595.65 522.735 586.192 525.375 577.947 533.229C574.979 536.058 571.119 540.724 565.067 553.828C562.551 559.266 558.39 574.203 553.119 593.12C544.697 623.354 534.218 660.99 524.13 683.058L523.932 683.5L524.354 683.729C533.26 688.589 544.598 691.448 559.015 692.469L559.301 692.485L559.468 692.266Z" fill="#1E272E"/>
<path d="M728.813 562.463C732.308 562.489 733.058 564.349 739.032 565.021C741.11 565.26 740.334 565.245 742.063 565.021C744.756 564.667 747.043 561.469 753.053 561.036C767.584 559.995 782.324 582.906 782.444 588.016C782.631 596.333 775.72 599.588 769.673 600.792C761.511 602.411 754.886 601.271 751.798 600.792C728.59 597.193 716.324 601.833 713.496 595.682C712.256 592.979 713.699 590.109 710.938 585.458C709.543 583.114 708.147 582.109 708.386 580.349C708.657 578.328 710.741 577.948 713.496 575.239C716.782 572.005 715.777 570.588 718.6 567.578C719.256 566.875 723.407 562.437 728.813 562.463Z" fill="white"/>
<path d="M739.031 570.13C740.75 570.568 742.458 570.927 744.083 571.469C745.719 571.99 747.266 572.662 748.682 573.516C751.589 575.297 754.328 577.323 756.854 579.599C759.385 581.87 761.682 584.396 763.839 587.073C764.901 588.417 765.938 589.797 766.896 591.24C767.88 592.667 768.786 594.146 769.672 595.683C769.318 593.938 768.688 592.266 767.984 590.636C767.63 589.818 767.214 589.031 766.818 588.235C766.38 587.453 765.943 586.667 765.453 585.927C763.552 582.901 761.234 580.11 758.562 577.703C755.88 575.302 752.865 573.271 749.599 571.761C747.927 570.969 746.13 570.505 744.354 570.261C742.568 570.037 740.797 570.005 739.031 570.13Z" fill="#BDB1E5"/>
<path d="M735.932 584.917C735.817 586.417 736.067 587.886 736.505 589.297C736.958 590.703 737.614 592.042 738.442 593.266C739.271 594.49 740.276 595.604 741.422 596.532C742.567 597.459 743.838 598.229 745.286 598.667C744.489 597.391 743.656 596.276 742.875 595.157C742.067 594.047 741.307 592.943 740.547 591.839C739.797 590.724 739.062 589.604 738.317 588.453C737.562 587.308 736.828 586.125 735.932 584.917Z" fill="#1E1735"/>
<path d="M730.229 584.917C730.115 586.417 730.359 587.886 730.797 589.297C731.25 590.703 731.906 592.042 732.74 593.266C733.573 594.49 734.568 595.604 735.714 596.532C736.859 597.459 738.136 598.229 739.578 598.667C738.781 597.391 737.958 596.276 737.167 595.157C736.365 594.047 735.604 592.943 734.839 591.839C734.083 590.724 733.354 589.604 732.609 588.453C731.859 587.308 731.12 586.125 730.229 584.917Z" fill="#1E1735"/>
<path d="M724.516 584.917C724.401 586.417 724.651 587.886 725.089 589.297C725.547 590.703 726.198 592.042 727.032 593.266C727.86 594.49 728.86 595.604 730 596.532C731.151 597.459 732.427 598.229 733.87 598.667C733.073 597.391 732.25 596.276 731.459 595.157C730.657 594.047 729.896 592.943 729.136 591.839C728.375 590.724 727.646 589.604 726.901 588.453C726.151 587.308 725.417 586.125 724.516 584.917Z" fill="#1E1735"/>
<path d="M718.813 584.917C718.698 586.417 718.948 587.886 719.381 589.297C719.839 590.703 720.495 592.042 721.318 593.266C722.157 594.49 723.157 595.604 724.297 596.532C725.443 597.459 726.719 598.229 728.167 598.667C727.37 597.391 726.542 596.276 725.75 595.157C724.948 594.047 724.188 592.943 723.428 591.839C722.678 590.724 721.938 589.604 721.193 588.453C720.438 587.308 719.709 586.125 718.813 584.917Z" fill="#1E1735"/>
<path d="M510.52 736.047C509.135 735.042 507.76 734.26 506.406 733.49L502.406 731.214C501.083 730.458 499.765 729.714 498.468 728.922C497.156 728.12 495.869 727.354 494.572 726.266C494.65 727.135 495.01 727.943 495.421 728.698C495.859 729.437 496.38 730.135 496.958 730.745C498.114 731.99 499.468 733.01 500.916 733.833C502.369 734.651 503.921 735.281 505.541 735.677C507.156 736.063 508.827 736.255 510.52 736.047Z" fill="#1E1735"/>
<path d="M585.36 557.224C582.469 554.74 579.204 552.844 575.803 551.256C572.391 549.683 568.808 548.474 565.157 547.615C561.495 546.75 557.751 546.256 553.995 546.151C550.251 546.068 546.475 546.323 542.787 547.271C546.449 548.308 550.016 549.032 553.553 549.834C557.089 550.61 560.589 551.396 564.084 552.209C567.568 553.032 571.058 553.87 574.568 554.74C578.094 555.594 581.615 556.521 585.36 557.224Z" fill="#1E272E"/>
<path d="M746.365 488.948C743.63 482.094 741.292 471.87 739.38 464.823C738.74 460.359 738.089 455.969 737.396 451.677C737.224 446.745 731.099 370.349 712.745 363.318C688.667 354.099 670.912 358.724 660.25 362.453C644.625 367.917 633.354 389.74 635.938 412.516C639.276 441.891 654.839 482.578 655.552 489.563C655.828 492.349 655.433 499.578 652.156 506.417C645.938 519.177 653.636 511.031 681.735 513.703C714.891 516.854 750.391 532.833 756.511 522.531C762.266 514.422 755.146 510.865 746.365 488.948Z" fill="white"/>
<path d="M675.542 358.276C669.188 355.323 663.224 356.354 655.01 357.787C648.609 358.896 643.859 360.818 639.359 362.672C636.495 363.854 633.177 365.198 623.219 370.995C596.323 386.646 593.88 389.589 588.99 392.521C587.938 393.146 547.401 430.594 558.099 431.886C571.635 433.526 680.635 398.167 685.813 391.052C689.734 385.672 689.333 379.36 689.234 377.844C688.667 368.907 682.5 361.5 675.542 358.276Z" fill="#BDB1E5"/>
<path d="M696.083 335.453C704.156 353.797 713.937 360.646 716.135 362.365C717.38 363.333 715.64 367.745 714.177 369.698C705.593 381.151 675.39 392.438 675.541 381.443C675.791 364.073 664.885 359.276 661.364 351.109C661.099 350.49 656.255 343.115 659.895 333.495C663.802 323.162 690.281 312.667 693.145 314.901C693.895 315.495 691.401 324.813 696.083 335.453Z" fill="#F79556"/>
<path d="M676.438 334.167C676.568 337.734 675.787 340.5 675.438 341.677C675.219 342.438 674.36 345.193 672.438 348.188C670.339 351.438 659.922 360.708 648.907 363.714C647.646 364.057 646.475 364.26 645.402 363.714C644.073 363.031 643.777 361.641 642.896 359.708C642.011 357.75 641.99 358.453 639.396 354.198C636.35 349.203 634.823 346.698 634.386 344.682C633.985 342.823 634.027 341.375 632.891 340.677C631.922 340.083 631.198 340.703 628.886 340.177C627.636 339.891 626.558 339.63 625.876 338.672C625.162 337.646 625.334 336.438 625.381 336.167C625.61 334.792 629.886 325.146 628.886 320.641C628.157 317.365 627.521 313.573 625.381 306.115C624.412 302.755 622.376 288.089 632.891 279.073C637.959 274.724 642.818 272.812 646.907 271.562C655.87 268.823 663.547 269.562 666.928 270.062C671.542 270.74 681.344 271.964 689.454 280.073C694.714 285.339 702.495 299.776 690.959 309.625C687.016 312.984 687.141 312.083 683.948 312.125C679.516 312.187 674.688 321.391 675.438 325.651C675.777 327.589 676.251 328.99 676.438 334.167Z" fill="#F79556"/>
<path d="M631.531 295.505C653.968 287.484 666.771 312.813 677.187 327.224C681.354 332.99 689.771 337.521 696.578 335.208C700.385 333.917 705.885 328.948 706.547 320.453C707.25 311.427 708.067 302.474 705.62 292.719C703.911 285.932 697.442 275.677 687.099 269.849C679.937 265.823 667.781 265.422 662.036 265.688C656.125 265.958 651.989 266.151 646.781 267.917C643.718 268.958 636.312 271.636 630.437 278.214C629.51 279.255 626.302 282.979 623.901 288.807C622.489 292.24 622.146 293.99 622.812 296.063C623.297 297.589 623.552 298.776 624.989 299.406C626.896 300.245 626.578 297.271 631.531 295.505Z" fill="#0D1114"/>
<path d="M665.865 308.88C667.104 306.927 668.521 306.073 668.865 305.875C669.562 305.474 671.057 304.615 672.875 304.87C675.365 305.224 676.781 307.443 677.38 308.38C679.094 311.068 678.953 313.865 678.875 315.385C678.672 319.583 676.734 322.411 675.375 324.401C674.193 326.141 673.276 326.896 672.375 327.411C671.604 327.839 670.203 328.677 668.865 328.406C666.49 327.927 665.484 324.208 664.859 321.901C664.411 320.229 662.698 313.875 665.865 308.88Z" fill="#F79556"/>
<path d="M589.479 347.198C592.245 343.912 595.188 340.407 598.276 335.943C601.208 331.719 603.438 328.5 605.615 323.714C607.422 319.735 611.385 309.839 613.927 306.099C614.625 305.073 615.396 304.136 615.396 304.136C616.885 302.339 618.24 301.214 618.818 300.719C623.198 296.969 622.948 295.297 626.156 293.381C626.875 292.943 628.594 292.433 632.021 291.417C632.568 291.261 638.974 289.407 642.781 290.443C643.266 290.573 645.224 292.401 643.76 293.865C642.443 295.188 641.135 295.506 637.396 296.803C636.266 297.198 632.911 298.365 633 298.761C633.083 299.125 635.089 298.954 640.339 298.761C646.13 298.547 649.135 298.271 651.094 298.761C651.661 298.901 652.974 299.355 653.542 300.23C653.984 300.912 653.875 301.948 653.542 302.672C653.016 303.792 652.057 303.907 652.068 304.631C652.083 305.188 652.661 305.219 653.052 306.099C653.411 306.901 653.365 307.844 653.052 308.542C652.667 309.407 651.906 309.839 651.583 310.016C648.401 311.761 641.313 310.995 635.443 312.459C633.823 312.865 632.021 314.412 632.021 314.412C632.021 314.412 632.828 314.839 637.885 314.412C645.302 313.792 648.87 314.464 649.625 315.881C649.875 316.344 649.74 316.891 649.625 317.355C649.214 319.042 643.75 319.537 640.828 319.797C639.146 319.948 636.906 320.146 634.469 320.776C630.922 321.688 628.609 323.068 627.625 323.714C626.474 324.459 625.297 325.23 624.198 326.646C623.234 327.886 622.906 328.87 622.24 330.563C620.698 334.459 619.646 337.131 617.839 339.365C616.469 341.073 615.24 341.813 613.927 342.792C610.047 345.704 607.99 348.839 604.146 354.537C597.25 364.766 598.224 367.792 594.365 369.209C590.771 370.537 586.141 369.292 583.115 366.766C581.979 365.808 580.13 364.261 579.698 361.875C579.052 358.276 582.177 355.86 589.479 347.198Z" fill="#EC7D40"/>
<path d="M649.615 305.115C649.75 305.115 649.776 305.308 649.646 305.328C647.495 305.782 645.312 306.042 643.115 306.167C640.583 306.313 638.094 306.318 635.594 306.339L631.88 306.308C631.62 306.313 631.391 306.349 631.12 306.427C630.839 306.506 630.547 306.604 630.26 306.709C629.687 306.912 629.109 307.131 628.531 307.349C626.526 308.151 624.552 309.047 622.615 310.047C622.49 310.11 622.391 309.948 622.49 309.865C624.182 308.459 626.089 307.297 628.068 306.308C628.635 306.021 629.203 305.75 629.802 305.511C630.099 305.386 630.396 305.266 630.719 305.151C631.036 305.037 631.427 304.948 631.792 304.917C631.99 304.901 632.146 304.901 632.297 304.901L632.771 304.896L633.708 304.886L635.594 304.87L639.359 304.917L643.099 305.032C645.26 305.084 647.432 305.094 649.615 305.115Z" fill="#C95E28"/>
<path d="M622.131 303.511C622.021 303.552 621.927 303.422 622 303.334C622.573 302.63 623.224 302.026 623.917 301.459C624.714 300.813 625.558 300.24 626.448 299.74C626.896 299.49 627.365 299.261 627.839 299.058C628.073 298.959 628.313 298.86 628.563 298.776C628.787 298.693 629.089 298.589 629.365 298.542C630.339 298.38 631.235 298.479 632.125 298.672C632.235 298.693 632.245 298.854 632.141 298.891C631.276 299.167 630.401 299.344 629.683 299.651C629.323 299.818 628.87 300.084 628.443 300.313L627.162 301.026C626.302 301.5 625.433 301.969 624.542 302.427C623.766 302.808 622.974 303.188 622.131 303.511Z" fill="#C95E28"/>
<path d="M585.568 347.688C585.568 347.688 581.412 353.328 575.787 362.849C574.016 365.844 570.693 370.068 564.048 378.51C553.417 392.01 553.719 390.406 549.871 396.12C548.683 397.865 542.725 406.87 539.6 419.604C538.402 424.469 538.355 426.891 539.6 428.901C542.204 433.141 549.553 434.052 554.756 432.818C559.042 431.797 563.527 428.927 576.761 405.417C589.042 383.604 587.032 386.333 592.902 376.057C597.11 368.682 603.173 360.406 603.173 360.406C603.173 360.406 599.735 359.182 595.344 356.49C588.782 352.469 585.568 347.688 585.568 347.688Z" fill="#BDB1E5"/>
<path d="M692.844 333.01C690.329 351.067 719.625 360.854 725.636 337.89C731.646 314.89 696.881 304.01 692.844 333.01Z" fill="#0D1114"/>
<path d="M729.334 369.183C736.011 373.344 737.048 384.724 738.86 407.302C739.886 420.115 739.683 428.334 738.86 453.521C737.688 489.5 736.912 495.063 727.428 506.157C723.995 510.177 721.251 513.391 716.475 514.729C692.548 521.469 661.475 481.599 657.897 475.438C646.813 456.36 630.37 428.052 641.699 408.256C643.558 405.006 646.193 401.953 675.042 387.761C720.016 365.651 725.902 367.037 729.334 369.183Z" fill="white"/>
<path d="M727.381 364.323C720.454 360.594 713.209 362.834 710.266 363.339C704.802 364.287 702.511 365.224 693.636 370.188C686.865 373.98 678.287 376.828 668.698 380.464C659.782 383.849 652.355 386.302 647.183 387.313C633.636 389.953 631.776 389.026 621.261 391.23C615.313 392.474 612.589 394.094 607.084 394.162C602.396 394.224 601.245 393.818 592.901 392.209C577.355 389.214 577.302 391.063 570.891 388.297C564.355 385.459 562.276 383.089 556.719 383.401C552.855 383.62 550.063 385.443 548.891 386.334C543.787 390.209 541.084 397.73 543.506 402.969C544.24 404.552 545.302 405.49 547.422 407.375C551.537 411.026 554.552 411.735 558.672 414.224C562.771 416.698 562.589 417.688 567.469 421.563C571.594 424.834 581.646 432.615 594.855 433.792C597.677 434.047 599.886 433.927 601.704 433.792C630.167 431.698 648.651 423.136 675.542 423.516C688.25 423.698 694.662 422.23 708.797 419.605C721.448 417.261 726.834 412.547 728.849 410.797C730.61 409.276 739.537 402.506 740.094 389.761C740.485 380.891 736.818 369.386 727.381 364.323Z" fill="white"/>
<path d="M596.322 434.281C598.729 434.339 601.104 434.177 603.479 433.849C605.848 433.5 608.223 433.255 610.577 432.833C615.307 432.141 619.999 431.214 624.676 430.255L631.687 428.755L638.713 427.203C643.411 426.198 648.124 425.234 652.895 424.443C657.666 423.688 662.484 423.135 667.327 422.859C672.161 422.62 677.057 422.771 681.77 422.849C686.52 422.854 691.255 422.536 695.994 421.943C700.744 421.385 705.489 420.641 710.265 420.094C705.609 421.286 700.942 422.406 696.223 423.365C693.854 423.828 691.473 424.224 689.067 424.536C686.661 424.844 684.239 425.031 681.822 425.135C679.406 425.26 676.963 425.245 674.609 425.307C672.239 425.318 669.869 425.5 667.505 425.63C662.77 426.016 658.062 426.589 653.364 427.344C648.656 428.063 643.973 429.01 639.27 429.917C634.562 430.802 629.848 431.766 625.093 432.5C623.906 432.693 622.713 432.88 621.52 433.047C620.322 433.214 619.135 433.396 617.937 433.531C615.541 433.802 613.15 434.089 610.749 434.26C608.348 434.469 605.937 434.552 603.536 434.656C602.333 434.693 601.124 434.703 599.921 434.646C598.708 434.583 597.51 434.469 596.322 434.281Z" fill="#BDB1E5"/>
<mask id="mask2_1117_283" style="mask-type:luminance" maskUnits="userSpaceOnUse" x="646" y="747" width="3" height="1">
<path d="M646.682 747.37H648.333V747.922H646.682V747.37Z" fill="white"/>
</mask>
<g mask="url(#mask2_1117_283)">
<path d="M646.682 747.37V747.922H648.333V747.37H646.682Z" fill="url(#paint0_linear_1117_283)"/>
</g>
<path d="M444.734 428.917H239.375V300.656H444.734V428.917Z" fill="#BDB1E5"/>
<path d="M330.12 350.552C342.5 355.984 348.313 373.432 353.011 380.244C361.323 392.296 365.172 391.619 369.974 396.88C370.797 397.776 378.818 402.588 376.422 411.307C376.094 412.479 374.974 415.583 372.521 416.562C361.495 420.974 330.625 392.463 324.516 373.463C321.339 363.552 319.454 353.286 324.516 350.89C326.568 349.921 328.23 349.724 330.12 350.552Z" fill="#F79556"/>
<mask id="mask3_1117_283" style="mask-type:luminance" maskUnits="userSpaceOnUse" x="257" y="342" width="102" height="87">
<path d="M257.334 342.396H358.459V428.916H257.334V342.396Z" fill="white"/>
</mask>
<g mask="url(#mask3_1117_283)">
<path d="M263.714 368.515C266.594 362.692 274.234 352.437 285.766 346.958C295.88 342.151 305.573 341.776 313.745 343.395C339.104 348.416 345.807 366.448 349.411 373.354C350.875 376.156 352.141 378.567 353.339 380.312C355.083 382.838 356.714 384.927 358.323 386.713L358.427 386.817L358.344 386.942C353.219 394.39 348.354 397.546 342.62 400.005L342.5 400.057L342.411 399.963C340.234 397.755 338.193 395.5 336.312 393.229C337.656 397.224 338.516 401.031 337.156 405.296C335.344 410.958 332.458 413.494 328.844 419.927C325.24 426.343 324.536 432.963 323.927 438.765C323.823 439.75 323.75 440.619 323.703 441.385C289.078 435.989 266.792 412.229 258.266 384.338C259.531 378.64 261.359 373.26 263.714 368.515Z" fill="white"/>
</g>
<mask id="mask4_1117_283" style="mask-type:luminance" maskUnits="userSpaceOnUse" x="242" y="355" width="46" height="74">
<path d="M242.119 355H287.999V428.917H242.119V355Z" fill="white"/>
</mask>
<g mask="url(#mask4_1117_283)">
<path d="M286.442 381.177C287.791 377.25 288.948 370.76 286.442 365.057C284.75 361.213 280.63 355.609 275.416 355.219C268.635 354.708 264.198 362.437 258.968 374.901C248.281 400.359 237.427 430.052 244.718 432.255C249.885 433.823 256.927 429.698 261.343 424.963C263.64 422.495 263.401 420.802 266.088 415.292C268.755 409.833 270.177 409.052 275.416 401.375C281.776 392.062 284.156 387.885 286.442 381.177Z" fill="#F79556"/>
</g>
<path d="M275.615 401.427C281.693 392.516 284.271 388.131 286.62 381.245C287.558 378.5 289.438 371.412 286.615 364.99C285.079 361.485 280.99 355.453 275.433 355.032C275.219 355.016 275.006 355.011 274.792 355.011C268.37 355.011 264.063 362.276 258.792 374.834C256.704 379.808 254.787 384.532 253.094 388.86L253.037 388.985L253.152 389.073C259.662 394.339 267.146 398.521 275.391 401.5L275.532 401.547L275.615 401.427Z" fill="white"/>
<path d="M398.046 352.843C397.577 354 397.53 354.797 397.536 355.218C397.551 356.765 397.884 357.218 398.218 357.765C399.437 359.802 400.483 363.203 405.848 364.041C406.879 364.203 408.39 362.854 416.192 362.854C421.062 362.854 423.483 362.14 424.676 361.5C426.509 360.505 427.562 360.093 429.202 358.01C429.931 357.088 432.478 355.218 432.921 353.593C433.124 352.833 432.78 352.38 433.155 351.828C436.713 346.562 434.343 346.395 434.848 345.208C434.963 344.948 435.405 343.458 434.676 342.833C434.15 342.364 433.265 342.625 433.155 342.661C432.312 342.927 431.884 343.661 431.457 344.364C431.051 345.031 429.733 347.38 428.911 347.75C427.046 348.604 424.249 350.291 421.791 349.619C419.926 349.109 413.707 349.156 413.312 347.244C413.197 346.677 416.265 344.922 417.551 344.526C418.577 344.213 420.629 342.843 421.957 340.625C422.468 339.781 422.369 338.906 421.624 338.422C421.457 338.317 421.155 338.177 420.437 338.25C419.364 338.359 418.895 338.77 418.056 339.099C416.166 339.849 415.723 340.02 413.994 340.968C413.536 341.208 409.562 343.635 407.713 344.526C405.088 345.802 404.27 345.744 401.775 347.244C400.082 348.26 399.025 350.427 398.046 352.843Z" fill="#F79556"/>
<path d="M408.39 362.516C410.166 361.245 400.786 351.719 398.551 353.349C397.286 354.287 396.604 356.662 396.01 358.443C392.859 367.912 383.421 377.781 376.166 384.068C371.77 387.88 367.765 391.453 365.479 394.589C359.973 402.136 360.973 407.203 364.463 412.573C364.947 413.318 367.223 416.834 370.734 417.156C370.734 417.156 372.218 417.292 373.791 416.651C382.369 413.136 394.468 390.448 402.119 372.193C403.916 367.891 406.02 364.214 408.39 362.516Z" fill="#F79556"/>
<path d="M420.775 358.24C421.906 358.438 423.109 358.255 424.202 357.834C425.301 357.412 426.291 356.761 427.187 356.032C428.093 355.302 428.895 354.469 429.676 353.662C429.869 353.464 430.067 353.266 430.27 353.084C430.479 352.896 430.687 352.724 430.916 352.578C431.14 352.422 431.38 352.313 431.64 352.245C431.906 352.183 432.187 352.172 432.479 352.162C432.202 352.094 431.916 352.026 431.614 352.032C431.317 352.047 431.015 352.125 430.739 352.245C430.187 352.5 429.713 352.86 429.27 353.224C428.395 353.969 427.583 354.745 426.718 355.453C425.854 356.157 424.952 356.797 423.968 357.292C422.984 357.797 421.911 358.12 420.775 358.24Z" fill="#EC7D40"/>
<path d="M332.615 410.146C333.396 407.641 333.49 406.698 333.751 405.49C334.053 404.13 333.6 400.661 332.157 400.432C331.475 400.328 330.693 400.708 330.313 401.286C329.683 402.255 329.756 403.495 329.699 404.203C329.277 409.901 322.324 412.161 320.527 413.396C317.407 415.531 317.62 417.974 319.146 418.63C326.423 421.74 331.766 412.875 332.615 410.146Z" fill="#EC7D40"/>
<path d="M335.886 392.573C335.261 389.875 334.589 387.214 334.282 384.526C334.121 383.188 334.037 381.844 334.053 380.506C334.058 379.162 334.152 377.834 334.376 376.521C334.584 375.209 334.923 373.927 335.355 372.651C335.787 371.386 336.319 370.125 336.782 368.802C337.022 368.146 337.235 367.474 337.402 366.782C337.569 366.089 337.688 365.386 337.74 364.677C337.782 363.969 337.777 363.25 337.678 362.558C337.589 361.86 337.449 361.177 337.251 360.511C337.287 361.203 337.303 361.896 337.266 362.573C337.23 363.25 337.147 363.917 337.006 364.573C336.74 365.886 336.246 367.125 335.683 368.365C335.131 369.599 334.516 370.849 334.016 372.167C333.761 372.828 333.543 373.506 333.35 374.188C333.152 374.875 333.006 375.573 332.886 376.276C332.772 376.979 332.699 377.688 332.652 378.396C332.615 379.104 332.6 379.813 332.621 380.526C332.668 381.933 332.834 383.339 333.11 384.714C333.391 386.099 333.798 387.438 334.256 388.75C334.735 390.063 335.272 391.334 335.886 392.573Z" fill="#BDB1E5"/>
<path d="M286.312 364.167C287.281 367.193 287.458 370.271 287.156 373.292C287.005 374.802 286.729 376.297 286.354 377.761C286.161 378.495 285.953 379.203 285.708 379.943C285.589 380.318 285.469 380.677 285.344 381.042C285.229 381.417 285.104 381.776 284.974 382.136C284.849 382.5 284.719 382.86 284.583 383.224C284.453 383.584 284.313 383.943 284.172 384.297C283.901 385.016 283.599 385.724 283.297 386.433C282.688 387.844 282.021 389.245 281.349 390.646C279.995 393.448 278.542 396.235 277.266 399.141C278.292 397.933 279.255 396.677 280.182 395.407C281.109 394.125 282 392.813 282.833 391.464C283.672 390.115 284.448 388.724 285.151 387.287C285.328 386.933 285.505 386.563 285.667 386.198C285.828 385.834 285.995 385.464 286.141 385.094C286.297 384.729 286.448 384.354 286.594 383.979C286.734 383.604 286.875 383.229 287.005 382.849C287.516 381.334 287.995 379.834 288.344 378.214C288.49 377.417 288.641 376.615 288.714 375.808C288.766 375.407 288.786 374.995 288.812 374.589C288.828 374.183 288.839 373.782 288.844 373.375C288.839 371.745 288.656 370.12 288.25 368.547C287.844 366.985 287.214 365.479 286.312 364.167Z" fill="#BDB1E5"/>
<path d="M302.006 357.338C302.178 359.349 302.792 361.312 303.704 363.161C304.162 364.088 304.751 364.953 305.391 365.786C305.73 366.177 306.063 366.593 306.454 366.948C306.641 367.13 306.824 367.317 307.027 367.5L307.636 368C308.464 368.666 309.344 369.281 310.292 369.781C311.251 370.291 312.298 370.635 313.36 370.776C314.428 370.922 315.501 370.916 316.553 370.755C317.594 370.593 318.615 370.286 319.537 369.765L319.49 369.521C317.449 369.229 315.605 368.932 313.85 368.416C312.969 368.156 312.11 367.89 311.251 367.599C310.391 367.307 309.537 366.937 308.761 366.432C307.204 365.442 305.834 364.114 304.735 362.541C303.62 360.989 302.787 359.192 302.251 357.302L302.006 357.338Z" fill="#BDB1E5"/>
<path d="M319.588 314.895C316.046 315.526 320.197 322.484 303.458 339.557C296.567 346.583 307.182 366.036 316.249 364.755C324.65 363.573 320.989 353.385 325.52 349.671C329.421 346.484 331.984 347.062 334.161 344.114C337.781 339.208 336.072 326.458 329.27 320.171C326.327 317.448 323.338 314.229 319.588 314.895Z" fill="#F79556"/>
<path d="M323.963 325.479C324.202 324.969 325.723 321.891 327.905 319.448C328.416 319.922 328.926 320.401 329.426 320.87C336.072 327.006 337.739 339.453 334.202 344.25C332.077 347.125 329.426 346.381 325.77 349.672C325.744 349.693 325.723 349.719 325.692 349.74C321.129 345.604 319.921 333.886 323.963 325.479Z" fill="#EC7D40"/>
<mask id="mask5_1117_283" style="mask-type:luminance" maskUnits="userSpaceOnUse" x="318" y="300" width="46" height="53">
<path d="M318.666 300.656H363.999V352.333H318.666V300.656Z" fill="white"/>
</mask>
<g mask="url(#mask5_1117_283)">
<path d="M329.119 314.156C329.338 313.911 327.515 311.328 325.109 311.036C323.15 310.791 321.546 312.151 321.348 312.323C319.26 314.156 319.129 317.276 319.004 320.26C318.9 322.776 318.02 327.349 320.895 327.911C321.457 328.021 322.489 327.255 322.765 327.432C323.254 327.75 322.707 330.948 322.697 331.166C322.635 334.729 324.562 341.166 329.067 345.89C332.51 349.51 337.676 352.922 339.978 352.198C342.437 351.422 343.499 348.765 344.296 348.036C347.749 344.87 348.015 342.318 348.994 341.5C349.551 341.026 350.072 339.828 350.395 338.807C350.937 337.114 353.65 338.802 354.301 338.87C355.213 338.979 356.155 339.073 356.697 337.724C357.306 336.172 354.661 328.015 358.65 324.073C362.301 320.458 364.301 312.005 363.03 305.765C361.843 299.969 358.447 291.651 342.52 285.713C330.556 281.255 321.004 292.719 320.916 298.568C320.78 307.5 328.603 314.75 329.119 314.156Z" fill="#F79556"/>
</g>
<mask id="mask6_1117_283" style="mask-type:luminance" maskUnits="userSpaceOnUse" x="304" y="300" width="63" height="29">
<path d="M304.068 300.656H366.016V328.792H304.068V300.656Z" fill="white"/>
</mask>
<g mask="url(#mask6_1117_283)">
<path d="M343.168 312.505C343.095 312.401 343.017 312.292 342.939 312.177C342.939 312.177 342.934 312.167 342.934 312.161C342.85 312.224 342.772 312.286 342.694 312.354C342.855 312.401 343.017 312.453 343.168 312.505ZM339.6 315.937C339.6 315.937 339.595 315.937 339.585 315.943C339.6 315.943 339.605 315.937 339.6 315.937ZM339.506 316.073V316.068C339.496 316.078 339.496 316.083 339.506 316.073ZM338.824 317.875C338.824 317.88 338.824 317.88 338.824 317.88L338.829 317.901V317.896C338.829 317.88 338.819 317.864 338.824 317.875ZM336.314 321.776C336.298 321.771 336.314 321.797 336.335 321.849C336.329 321.812 336.324 321.781 336.314 321.776ZM308.736 296.406C314.699 287.286 323.116 283.552 326.887 282.667C334.434 280.885 339.605 281.307 343.678 283.682C346.314 285.224 347.923 286.635 349.105 287.588C354.22 291.682 355.866 291.198 359.111 293.864C363.506 297.469 366.689 305.312 364.876 308.12C362.689 311.521 356.772 304.896 346.934 309.646C345.762 310.213 344.913 310.713 344.121 311.271L344.835 311.995C344.965 312.125 345.095 312.271 345.23 312.432C345.298 312.521 345.371 312.609 345.444 312.724C345.512 312.828 345.595 312.963 345.652 313.182C345.689 313.292 345.715 313.437 345.699 313.62C345.689 313.802 345.611 314.036 345.475 314.208C345.34 314.391 345.184 314.495 345.027 314.568C344.965 314.594 344.897 314.62 344.835 314.641C344.762 314.661 344.725 314.667 344.668 314.677C344.272 314.739 344.069 314.698 343.845 314.672C343.413 314.614 343.064 314.526 342.71 314.448C342.361 314.364 342.033 314.286 341.71 314.229C341.553 314.193 341.387 314.167 341.241 314.151C341.35 314.443 341.506 314.792 341.637 315.234C341.699 315.458 341.751 315.729 341.767 316.036C341.751 316.208 341.756 316.364 341.71 316.557C341.668 316.745 341.611 316.932 341.506 317.109C341.324 317.469 340.991 317.755 340.684 317.922C340.366 318.099 340.095 318.151 339.85 318.203C339.517 318.255 339.22 318.281 338.996 318.297C339.006 318.318 339.017 318.333 339.022 318.349C339.111 318.562 339.21 318.854 339.23 319.198C339.256 319.552 339.194 319.917 339.038 320.229C338.975 320.396 338.861 320.531 338.767 320.672C338.663 320.781 338.543 320.911 338.428 320.995C338.314 321.083 338.199 321.172 338.09 321.229C337.975 321.297 337.871 321.344 337.767 321.391C337.361 321.583 337.006 321.682 336.736 321.786C336.579 321.838 336.46 321.906 336.392 321.943C336.402 321.948 336.402 321.953 336.413 321.963C336.579 322.182 336.85 322.448 337.095 322.766C337.35 323.088 337.605 323.474 337.736 323.937C337.866 324.396 337.85 324.875 337.746 325.297C337.522 326.135 337.043 326.75 336.538 327.286C336.022 327.818 335.454 328.266 334.855 328.661C335.277 328.083 335.699 327.51 336.027 326.906C336.361 326.312 336.631 325.677 336.647 325.114C336.658 324.833 336.605 324.588 336.496 324.38C336.387 324.167 336.225 323.974 335.996 323.771C335.767 323.562 335.506 323.37 335.194 323.068C335.038 322.911 334.855 322.719 334.699 322.38C334.673 322.281 334.637 322.203 334.616 322.094C334.6 321.989 334.59 321.875 334.59 321.766C334.6 321.656 334.616 321.552 334.642 321.443C334.663 321.338 334.699 321.266 334.736 321.177C334.809 321 334.913 320.87 335.017 320.734C335.121 320.63 335.241 320.5 335.345 320.427L335.506 320.307L335.663 320.213C335.767 320.146 335.861 320.104 335.96 320.052C336.329 319.87 336.647 319.745 336.871 319.609C337.1 319.479 337.178 319.364 337.137 319.375C337.137 319.375 337.131 319.38 337.126 319.38C337.121 319.375 337.111 319.318 337.048 319.208C336.996 319.099 336.908 318.948 336.803 318.687L336.767 318.588L336.725 318.469C336.699 318.391 336.678 318.292 336.668 318.187C336.631 317.984 336.642 317.724 336.699 317.484C336.736 317.37 336.777 317.255 336.829 317.146C336.892 317.047 336.954 316.948 337.027 316.849C337.173 316.672 337.361 316.51 337.533 316.422C337.881 316.219 338.178 316.161 338.408 316.114C338.876 316.042 339.204 316.036 339.434 315.984C339.46 315.984 339.475 315.979 339.491 315.969C339.486 315.932 339.48 315.88 339.465 315.828C339.418 315.646 339.329 315.417 339.225 315.146C339.178 315.182 339.142 315.213 339.095 315.245C330.704 321.776 317.59 325.417 309.756 319.318C306.876 317.083 305.819 314.109 305.517 313.208C303.095 306.109 306.277 300.182 308.736 296.406Z" fill="#0D1114"/>
</g>
<path d="M342.26 339.469C342.703 339.125 343.77 340.26 345.317 340.974C347.057 341.776 348.192 341.495 348.823 341.729C348.77 341.797 348.708 341.864 348.651 341.916C348.088 342.422 347.927 344.255 346.505 345.573C345 345.047 342.588 342.885 342.104 339.885C342.073 339.672 342.166 339.541 342.26 339.469Z" fill="#D65B5B"/>
<path d="M346.969 318.573C348.031 318.209 349.172 318.068 350.328 318.073C351.484 318.099 352.667 318.36 353.771 318.849C354.052 318.959 354.318 319.11 354.594 319.235C354.865 319.381 355.13 319.537 355.396 319.693C355.917 320.037 356.365 320.48 356.708 320.995C357.375 322.037 357.75 323.266 357.536 324.511L357.328 324.579C356.411 323.756 355.734 323.032 355.021 322.381C354.667 322.047 354.349 321.709 354.021 321.349C353.859 321.178 353.693 321 353.516 320.834C353.333 320.678 353.151 320.506 352.943 320.375C352.531 320.105 352.099 319.849 351.63 319.662C351.172 319.448 350.682 319.287 350.182 319.157C349.177 318.87 348.104 318.771 347.01 318.792L346.969 318.573Z" fill="#0D1114"/>
<path d="M302.354 316.297C302.318 316.276 302.287 316.255 302.255 316.24C302.026 316.109 301.802 315.969 301.578 315.859C301.13 315.625 300.667 315.427 300.323 315.359C300.25 315.333 300.198 315.333 300.141 315.323C300.135 315.37 300.125 315.422 300.12 315.479C300.099 315.672 300.109 315.911 300.12 316.161C300.13 316.417 300.156 316.682 300.182 316.964C300.927 316.703 301.651 316.479 302.354 316.297ZM300.177 315.203C300.188 315.182 300.203 315.161 300.198 315.156C300.198 315.156 300.188 315.172 300.177 315.203ZM295.219 318.958C295 318.776 294.797 318.604 294.589 318.453C294.385 318.297 294.188 318.161 294.01 318.068C293.964 318.042 293.922 318.026 293.88 318.01C293.849 318.12 293.828 318.281 293.818 318.453C293.792 318.703 293.781 318.99 293.76 319.297C293.75 319.484 293.734 319.688 293.703 319.896C294.234 319.609 294.776 319.323 295.328 319.047C295.292 319.021 295.255 318.99 295.219 318.958ZM293.922 317.865C293.922 317.865 293.927 317.865 293.927 317.859C293.958 317.823 293.943 317.818 293.922 317.865ZM291.901 320.042H291.896C291.901 320.042 291.912 320.042 291.917 320.042C291.943 320.042 291.927 320.036 291.901 320.042ZM288.844 320.057C288.635 319.906 288.417 319.76 288.24 319.677C288.208 319.661 288.182 319.651 288.162 319.646C288.156 319.688 288.151 319.734 288.151 319.786C288.135 320.005 288.167 320.276 288.198 320.547C288.255 321.104 288.354 321.682 288.38 322.318C288.385 322.599 288.38 322.885 288.323 323.203C289.094 322.656 289.979 322.078 290.943 321.484C290.682 321.37 290.464 321.234 290.255 321.099C289.729 320.745 289.281 320.375 288.844 320.057ZM288.198 319.5C288.193 319.5 288.193 319.516 288.182 319.521C288.193 319.51 288.198 319.5 288.198 319.5ZM261.62 355.865C262.047 354.583 267.141 356.604 270.406 354.26C273.271 352.203 272.078 348.703 273.526 342.969C275.854 333.688 282.755 327.786 286.427 324.651C286.417 324.651 286.401 324.651 286.391 324.651C286.037 324.594 285.734 324.484 285.453 324.375C284.896 324.161 284.391 323.922 283.896 323.792C283.396 323.661 282.932 323.646 282.547 323.859C282.354 323.958 282.198 324.109 282.078 324.292C281.953 324.479 281.87 324.729 281.787 324.984C281.641 325.505 281.542 326.099 281.297 326.677C281.188 326.969 281.016 327.24 280.833 327.5C280.724 327.615 280.625 327.74 280.51 327.844L280.333 328.005C280.276 328.057 280.219 328.104 280.151 328.146C279.896 328.344 279.604 328.479 279.307 328.578C279.005 328.677 278.698 328.714 278.401 328.74C277.802 328.766 277.245 328.74 276.682 328.786C276.135 328.839 275.573 328.964 275.057 329.156C274.563 329.37 274.151 329.771 273.802 330.219C273.448 330.661 273.141 331.146 272.828 331.63L271.906 333.083L272.745 331.578C273.037 331.083 273.313 330.578 273.646 330.104C273.984 329.63 274.385 329.167 274.943 328.896C275.49 328.651 276.057 328.495 276.641 328.406C277.219 328.323 277.807 328.318 278.359 328.26C278.63 328.224 278.896 328.182 279.135 328.083C279.375 327.984 279.604 327.865 279.802 327.693C279.859 327.656 279.906 327.609 279.948 327.562L280.089 327.427C280.177 327.339 280.245 327.224 280.328 327.125C280.464 326.911 280.589 326.682 280.672 326.432C280.854 325.938 280.922 325.385 281.047 324.792C281.125 324.5 281.203 324.188 281.38 323.88C281.552 323.578 281.813 323.297 282.12 323.115C282.417 322.922 282.771 322.823 283.115 322.792C283.464 322.755 283.802 322.797 284.104 322.865C284.734 322.995 285.287 323.224 285.807 323.385C286.068 323.469 286.313 323.542 286.526 323.557C286.63 323.562 286.719 323.557 286.792 323.547C286.865 323.531 286.906 323.505 286.948 323.469C287.026 323.401 287.094 323.281 287.13 323.083C287.162 322.885 287.162 322.646 287.141 322.391C287.094 321.875 286.974 321.328 286.875 320.734C286.828 320.443 286.776 320.141 286.771 319.786C286.76 319.615 286.771 319.422 286.823 319.188C286.833 319.13 286.844 319.078 286.87 319.01C286.891 318.948 286.912 318.891 286.953 318.818C287.021 318.688 287.13 318.547 287.266 318.432C287.328 318.38 287.401 318.328 287.484 318.292C287.557 318.25 287.641 318.219 287.719 318.198C287.802 318.182 287.885 318.161 287.953 318.161C288.031 318.156 288.109 318.151 288.172 318.156C288.438 318.182 288.646 318.245 288.818 318.318C289.172 318.464 289.438 318.63 289.703 318.792C290.214 319.125 290.677 319.464 291.12 319.719C291.339 319.849 291.563 319.958 291.734 320.01C291.771 320.026 291.807 320.026 291.844 320.042C291.849 320.042 291.854 320.042 291.87 320.042C291.875 320.016 291.891 319.964 291.901 319.896C291.938 319.734 291.948 319.484 291.948 319.224C291.958 318.953 291.948 318.672 291.958 318.344C291.969 318.026 291.984 317.677 292.12 317.234C292.198 317.016 292.323 316.745 292.552 316.505C292.787 316.26 293.125 316.083 293.448 316.031C293.484 316.021 293.526 316.01 293.568 316.005L293.677 316C293.755 315.995 293.839 315.99 293.906 315.995C294.031 316.005 294.172 316.026 294.281 316.052C294.516 316.109 294.703 316.182 294.88 316.26C295.224 316.422 295.505 316.599 295.776 316.776C296.037 316.953 296.281 317.13 296.521 317.307C296.854 317.557 297.177 317.807 297.495 318.031C297.615 317.979 297.74 317.927 297.865 317.875C297.792 317.411 297.703 316.917 297.646 316.375C297.609 316.052 297.589 315.719 297.599 315.339C297.615 314.953 297.656 314.51 297.906 313.995C298.037 313.729 298.229 313.458 298.49 313.229C298.62 313.13 298.76 313.031 298.912 312.953C298.979 312.917 299.052 312.891 299.125 312.859C299.198 312.828 299.276 312.797 299.344 312.781C299.479 312.745 299.63 312.708 299.755 312.693C299.88 312.682 300.005 312.677 300.13 312.672C300.354 312.677 300.583 312.682 300.776 312.719C301.563 312.849 302.172 313.099 302.76 313.359C303.354 313.62 303.891 313.911 304.422 314.214C305.396 314.771 306.318 315.38 307.219 316C307.479 316.068 307.724 316.156 307.953 316.26C312.901 318.563 310.932 329.812 310.323 333.583C309.052 341.438 307.349 351.979 297.807 358.698C285.51 367.349 270.63 362.328 265.271 359.312C263.542 358.339 261.328 356.745 261.62 355.865Z" fill="#0D1114"/>
<path d="M349.048 324.865C348.975 325.099 349.485 326.021 351.626 326.641C352.579 326.917 353.6 326.954 353.74 326.474C353.871 326.021 353.506 325.006 352.725 324.636C351.36 323.985 349.183 324.386 349.048 324.865Z" fill="#E6E6E6"/>
<path d="M350.516 325.083C351.397 323.781 353.824 324.839 352.891 326.651C351.954 328.464 349.11 327.167 350.516 325.083Z" fill="#0D1114"/>
<path d="M353.266 327.036C353.453 327.073 353.667 327.036 353.865 326.948C354.052 326.854 354.234 326.687 354.323 326.448C354.37 326.328 354.375 326.198 354.375 326.068C354.365 326.005 354.359 325.958 354.349 325.875C354.328 325.797 354.302 325.734 354.271 325.667C354.203 325.536 354.13 325.437 354.047 325.349C353.964 325.255 353.88 325.182 353.792 325.115C353.443 324.833 353.073 324.641 352.693 324.49C352.323 324.338 351.938 324.224 351.557 324.135C350.786 323.974 350.016 323.901 349.24 323.927C348.854 323.932 348.469 323.974 348.078 324.036C347.693 324.104 347.307 324.187 346.922 324.338C347.286 324.526 347.661 324.661 348.026 324.786C348.391 324.906 348.75 325.01 349.12 325.099C349.844 325.281 350.563 325.411 351.276 325.536C351.984 325.661 352.714 325.755 353.344 325.917C353.495 325.958 353.646 326.005 353.745 326.057C353.776 326.068 353.839 326.135 353.865 326.167C353.891 326.224 353.906 326.286 353.896 326.354C353.906 326.609 353.63 326.937 353.266 327.036Z" fill="#0D1114"/>
<mask id="mask7_1117_283" style="mask-type:luminance" maskUnits="userSpaceOnUse" x="242" y="412" width="81" height="17">
<path d="M242.119 412.333H322.197V428.916H242.119V412.333Z" fill="white"/>
</mask>
<g mask="url(#mask7_1117_283)">
<path d="M252.181 415.63C252.926 415.177 256.941 412.494 262.525 412.572C267.374 412.645 271.884 413.822 275.077 415.291C276.853 416.104 294.499 422.843 311.884 418.854C313.535 418.474 316.629 416.479 318.499 417.494C320.769 418.734 322.233 422.182 321.889 424.963C321.353 429.343 316.717 430.776 315.785 431.067C311.796 432.343 308.827 432.125 298.993 432.937C297.087 433.093 296.17 433.255 293.566 433.614C293.566 433.614 265.035 437.583 245.566 432.088C245.056 431.942 243.894 431.599 243.191 430.562C240.832 427.072 245.441 419.692 252.181 415.63Z" fill="#F79556"/>
</g>
<mask id="mask8_1117_283" style="mask-type:luminance" maskUnits="userSpaceOnUse" x="311" y="407" width="41" height="22">
<path d="M311.619 407.396H351.999V428.916H311.619V407.396Z" fill="white"/>
</mask>
<g mask="url(#mask8_1117_283)">
<path d="M315.786 418.417C317.969 415.557 319.307 413.838 321.781 412.239C323.344 411.229 324.703 410.745 327.422 409.771C332.635 407.906 336.135 407.693 336.943 407.656C337.698 407.614 337.172 407.672 339.76 407.656C340.583 407.651 346.578 407.599 349.458 408.713C349.802 408.849 350.344 409.094 350.515 409.594C350.724 410.198 350.281 410.833 350.161 411.005C349.708 411.667 349.036 411.906 348.573 412.062C347.625 412.391 346.802 412.338 346.635 412.328C344.469 412.187 341.776 412.016 339.937 412.062C337.411 412.13 335.969 412.463 333.943 413.12C333.552 413.25 333.041 413.573 333.062 413.651C333.239 414.182 336.062 413.443 339.229 413.12C344.271 412.614 350.562 412.838 351.224 413.828C351.573 414.359 351.75 415.239 351.224 415.771C350.729 416.26 349.312 416.891 349.281 417.005C349.229 417.193 350.338 417.182 350.693 417.708C351.047 418.239 351.203 419.224 350.515 419.828C350.166 420.13 349.791 420.484 345.932 421.062C342.609 421.552 340.943 421.797 339.583 421.943C337.515 422.151 335.922 422.239 333.943 423.177C333.416 423.422 332.656 423.786 332.708 424.052C332.812 424.531 334.969 424.26 337.474 423.708C339.687 423.213 340.26 423.026 342.583 422.651C343.208 422.542 346.109 422.12 346.818 423C347.104 423.359 347.015 424.495 346.286 424.943C342.76 427.052 337.818 426.937 335.354 428.109C333.802 428.859 328.13 432.344 319.844 430.406C317.552 429.87 317.041 430.838 315.432 430.229C314.047 429.703 312.224 428.406 311.734 426.526C311.187 424.432 312.719 422.427 315.786 418.417Z" fill="#F79556"/>
</g>
<path d="M226.875 418.641L213.068 345.766C212.886 344.797 212.037 344.094 211.052 344.094H144.458C143.474 344.094 142.625 344.797 142.438 345.766L128.636 418.641C128.391 419.901 129.365 421.078 130.651 421.078H224.854C226.141 421.078 227.115 419.901 226.875 418.641Z" fill="white"/>
<path d="M181.631 441.031C180.782 433.005 185.907 425.526 187.396 423.547C187.558 423.333 187.407 423.036 187.141 423.036H168.37C168.105 423.036 167.954 423.333 168.115 423.547C169.6 425.526 174.73 433.005 173.881 441.031C172.157 457.234 158.584 471.593 158.584 484.713C158.584 490.823 161.829 500.359 162.86 503.63C163.032 504.166 163.527 504.526 164.089 504.526H191.423C191.98 504.526 192.48 504.166 192.646 503.63C193.683 500.359 196.928 490.823 196.928 484.713C196.928 471.593 183.355 457.234 181.631 441.031Z" fill="#0D1114"/>
<path d="M226.786 479.708C224.322 485.453 219.166 489.396 215.353 491.338C216.661 485.177 217.713 477.625 218.135 469.703C219.187 469.156 220.629 468.797 222.619 469.151C224.484 469.484 225.848 470.427 226.661 471.948C227.984 474.396 227.65 477.682 226.786 479.708ZM229.77 470.271C228.437 467.791 226.181 466.203 223.244 465.672C221.28 465.317 219.629 465.479 218.28 465.864C218.327 464.13 218.338 462.39 218.312 460.651C218.301 460.385 218.093 460.177 217.827 460.177L181.713 460.182C181.447 460.182 181.234 460.39 181.228 460.651C180.957 479.093 184.822 497.64 188.098 504.01C188.254 504.323 188.582 504.526 188.937 504.526H210.614C210.968 504.526 211.291 504.323 211.457 504.005C212.416 502.146 213.421 499.244 214.364 495.609C218.911 493.963 226.582 489.161 230.03 481.093C231.26 478.224 231.655 473.765 229.77 470.271Z" fill="white"/>
<defs>
<linearGradient id="paint0_linear_1117_283" x1="646.681" y1="747.647" x2="648.333" y2="747.647" gradientUnits="userSpaceOnUse">
<stop stop-color="#FFBC50"/>
<stop offset="0.25" stop-color="#FFBC50"/>
<stop offset="0.375" stop-color="#FFBC50"/>
<stop offset="0.390625" stop-color="#FFBC51"/>
<stop offset="0.394531" stop-color="#FFBD52"/>
<stop offset="0.398438" stop-color="#FFBE52"/>
<stop offset="0.40625" stop-color="#FFBE53"/>
<stop offset="0.414062" stop-color="#FFBE53"/>
<stop offset="0.417969" stop-color="#FFBF54"/>
<stop offset="0.421875" stop-color="#FFC055"/>
<stop offset="0.4375" stop-color="#FFC055"/>
<stop offset="0.441406" stop-color="#FFC256"/>
<stop offset="0.445312" stop-color="#FFC257"/>
<stop offset="0.449219" stop-color="#FFC257"/>
<stop offset="0.453125" stop-color="#FFC258"/>
<stop offset="0.457031" stop-color="#FFC358"/>
<stop offset="0.460938" stop-color="#FFC359"/>
<stop offset="0.464844" stop-color="#FFC459"/>
<stop offset="0.46875" stop-color="#FFC459"/>
<stop offset="0.476562" stop-color="#FFC459"/>
<stop offset="0.480469" stop-color="#FFC55B"/>
<stop offset="0.484375" stop-color="#FFC55B"/>
<stop offset="0.488281" stop-color="#FFC65C"/>
<stop offset="0.492188" stop-color="#FFC65C"/>
<stop offset="0.5" stop-color="#FFC65D"/>
<stop offset="0.507812" stop-color="#FFC65D"/>
<stop offset="0.515625" stop-color="#FFC75E"/>
<stop offset="0.519531" stop-color="#FFC75F"/>
<stop offset="0.523438" stop-color="#FFC85F"/>
<stop offset="0.53125" stop-color="#FFC860"/>
<stop offset="0.539062" stop-color="#FFC960"/>
<stop offset="0.542969" stop-color="#FFC961"/>
<stop offset="0.546875" stop-color="#FFCA61"/>
<stop offset="0.554688" stop-color="#FFCA61"/>
<stop offset="0.558594" stop-color="#FFCB62"/>
<stop offset="0.5625" stop-color="#FFCB63"/>
<stop offset="0.566406" stop-color="#FFCC63"/>
<stop offset="0.570312" stop-color="#FFCC64"/>
<stop offset="0.574219" stop-color="#FFCD65"/>
<stop offset="0.578125" stop-color="#FFCD65"/>
<stop offset="0.585938" stop-color="#FFCD66"/>
<stop offset="0.589844" stop-color="#FFCE66"/>
<stop offset="0.59375" stop-color="#FFCE66"/>
<stop offset="0.601562" stop-color="#FFCF66"/>
<stop offset="0.605469" stop-color="#FFCF68"/>
<stop offset="0.609375" stop-color="#FFCF68"/>
<stop offset="0.613281" stop-color="#FFD069"/>
<stop offset="0.617188" stop-color="#FFD069"/>
<stop offset="0.625" stop-color="#FFD16A"/>
<stop offset="0.632812" stop-color="#FFD16A"/>
<stop offset="0.636719" stop-color="#FFD26B"/>
<stop offset="0.640625" stop-color="#FFD26B"/>
<stop offset="0.644531" stop-color="#FFD26C"/>
<stop offset="0.648438" stop-color="#FFD26C"/>
<stop offset="0.65625" stop-color="#FFD36D"/>
<stop offset="0.664062" stop-color="#FFD36D"/>
<stop offset="0.671875" stop-color="#FFD46D"/>
<stop offset="0.675781" stop-color="#FFD46E"/>
<stop offset="0.679688" stop-color="#FFD56F"/>
<stop offset="0.683594" stop-color="#FFD56F"/>
<stop offset="0.6875" stop-color="#FFD670"/>
<stop offset="0.691406" stop-color="#FFD670"/>
<stop offset="0.695312" stop-color="#FFD671"/>
<stop offset="0.703125" stop-color="#FFD671"/>
<stop offset="0.707031" stop-color="#FFD772"/>
<stop offset="0.710938" stop-color="#FFD772"/>
<stop offset="0.71875" stop-color="#FFD873"/>
<stop offset="0.722656" stop-color="#FFD974"/>
<stop offset="0.726562" stop-color="#FFD974"/>
<stop offset="0.730469" stop-color="#FFD975"/>
<stop offset="0.734375" stop-color="#FFD975"/>
<stop offset="0.738281" stop-color="#FFDA75"/>
<stop offset="0.742188" stop-color="#FFDA75"/>
<stop offset="0.746094" stop-color="#FFDB76"/>
<stop offset="0.75" stop-color="#FFDB76"/>
<stop offset="0.753906" stop-color="#FFDB77"/>
<stop offset="0.757812" stop-color="#FFDB77"/>
<stop offset="0.765625" stop-color="#FFDC78"/>
<stop offset="0.773438" stop-color="#FFDC78"/>
<stop offset="0.777344" stop-color="#FFDD79"/>
<stop offset="0.78125" stop-color="#FFDD79"/>
<stop offset="0.789062" stop-color="#FFDE7A"/>
<stop offset="0.796875" stop-color="#FFDE7A"/>
<stop offset="0.804688" stop-color="#FFDF7B"/>
<stop offset="0.8125" stop-color="#FFE07C"/>
<stop offset="0.816406" stop-color="#FFE07D"/>
<stop offset="0.820312" stop-color="#FFE07D"/>
<stop offset="0.828125" stop-color="#FFE07E"/>
<stop offset="0.835938" stop-color="#FFE17F"/>
<stop offset="0.84375" stop-color="#FFE17F"/>
<stop offset="0.847656" stop-color="#FFE280"/>
<stop offset="0.851562" stop-color="#FFE380"/>
<stop offset="0.855469" stop-color="#FFE381"/>
<stop offset="0.859375" stop-color="#FFE381"/>
<stop offset="0.875" stop-color="#FFE482"/>
<stop offset="0.878906" stop-color="#FFE583"/>
<stop offset="0.882812" stop-color="#FFE583"/>
<stop offset="0.890625" stop-color="#FFE684"/>
<stop offset="0.898438" stop-color="#FFE684"/>
<stop offset="0.90625" stop-color="#FFE785"/>
<stop offset="0.914062" stop-color="#FFE786"/>
<stop offset="0.921875" stop-color="#FFE886"/>
<stop offset="0.929688" stop-color="#FFE887"/>
<stop offset="0.9375" stop-color="#FFE987"/>
<stop offset="1" stop-color="#FFE988"/>
</linearGradient>
</defs>
</svg>
