<svg xmlns="http://www.w3.org/2000/svg" xmlns:xlink="http://www.w3.org/1999/xlink" width="500" zoomAndPan="magnify" viewBox="0 0 375 374.999991" height="500" preserveAspectRatio="xMidYMid meet" version="1.0"><defs><filter x="0%" y="0%" width="100%" height="100%" id="3c13510c09"><feColorMatrix values="0 0 0 0 1 0 0 0 0 1 0 0 0 0 1 0 0 0 1 0" color-interpolation-filters="sRGB"/></filter><mask id="c7b7aba7c5"><g filter="url(#3c13510c09)"><rect x="-37.5" width="450" fill="#000000" y="-37.499999" height="449.999989" fill-opacity="0.36"/></g></mask><clipPath id="2e64fb4924"><path d="M 0 246 L 170 246 L 170 302 L 0 302 Z M 0 246 " clip-rule="nonzero"/></clipPath><clipPath id="bbcb76fdde"><path d="M 0 249 L 149 249 L 149 319.625 L 0 319.625 Z M 0 249 " clip-rule="nonzero"/></clipPath><clipPath id="144496881f"><path d="M 0 46 L 162 46 L 162 251 L 0 251 Z M 0 46 " clip-rule="nonzero"/></clipPath><clipPath id="d3762c2ecb"><path d="M 0 23 L 8 23 L 8 43 L 0 43 Z M 0 23 " clip-rule="nonzero"/></clipPath><clipPath id="dbf7f9e98b"><path d="M 0 12 L 1 12 L 1 22 L 0 22 Z M 0 12 " clip-rule="nonzero"/></clipPath><clipPath id="5bf9e42da0"><path d="M 60 0.878906 L 66 0.878906 L 66 12 L 60 12 Z M 60 0.878906 " clip-rule="nonzero"/></clipPath><clipPath id="8c42deedf1"><path d="M 0 58 L 2 58 L 2 63 L 0 63 Z M 0 58 " clip-rule="nonzero"/></clipPath><clipPath id="043c8546f1"><path d="M 0 64 L 8 64 L 8 69 L 0 69 Z M 0 64 " clip-rule="nonzero"/></clipPath><clipPath id="f7520bda08"><path d="M 0 39 L 1 39 L 1 48 L 0 48 Z M 0 39 " clip-rule="nonzero"/></clipPath><clipPath id="eab3e1b674"><path d="M 0 126 L 4 126 L 4 133 L 0 133 Z M 0 126 " clip-rule="nonzero"/></clipPath><clipPath id="a7b9d6885a"><path d="M 0 133 L 15 133 L 15 140 L 0 140 Z M 0 133 " clip-rule="nonzero"/></clipPath><clipPath id="b7ed880c6b"><path d="M 0 110 L 6 110 L 6 123 L 0 123 Z M 0 110 " clip-rule="nonzero"/></clipPath><clipPath id="dbc61f6ae1"><path d="M 0 71 L 2 71 L 2 85 L 0 85 Z M 0 71 " clip-rule="nonzero"/></clipPath><clipPath id="922707675a"><path d="M 0 101 L 15 101 L 15 109 L 0 109 Z M 0 101 " clip-rule="nonzero"/></clipPath><clipPath id="016039a05b"><path d="M 0 95 L 4 95 L 4 103 L 0 103 Z M 0 95 " clip-rule="nonzero"/></clipPath><clipPath id="ce0101c5c1"><path d="M 0 162 L 7 162 L 7 172 L 0 172 Z M 0 162 " clip-rule="nonzero"/></clipPath><clipPath id="823252a51a"><path d="M 182.230469 142.140625 L 191.921875 142.140625 L 191.921875 150 L 182.230469 150 Z M 182.230469 142.140625 " clip-rule="nonzero"/></clipPath><clipPath id="bce28afed5"><path d="M 0 186 L 3 186 L 3 199 L 0 199 Z M 0 186 " clip-rule="nonzero"/></clipPath><clipPath id="2680e9c285"><rect x="0" width="192" y="0" height="321"/></clipPath></defs><rect x="-37.5" width="450" fill="#ffffff" y="-37.499999" height="449.999989" fill-opacity="1"/><rect x="-37.5" width="450" fill="#ffffff" y="-37.499999" height="449.999989" fill-opacity="1"/><g mask="url(#c7b7aba7c5)"><g transform="matrix(1, 0, 0, 1, 0, 28)"><g clip-path="url(#2680e9c285)"><g clip-path="url(#2e64fb4924)"><path fill="#6bbfc2" d="M 145.707031 272.554688 C 139.46875 273.203125 132.964844 273.441406 132.1875 271.277344 C 130.023438 265.253906 122.421875 263.476562 123.222656 262.722656 C 123.535156 262.425781 126.234375 262.574219 130.71875 263.390625 C 132.925781 263.789062 139.503906 265.925781 141.6875 266.386719 C 142.808594 266.625 143.742188 267.007812 144.542969 267.417969 C 147.753906 269.058594 153.285156 269.566406 157.523438 270.582031 C 159.820312 271.132812 161.734375 272.425781 162.710938 272.742188 C 161.578125 271.371094 159.84375 270.886719 158.917969 270.535156 C 157.269531 269.902344 155.828125 269.285156 154.324219 269.019531 C 151.816406 268.585938 150.246094 268.441406 148.414062 267.539062 C 143.996094 265.363281 141.519531 264.339844 137.234375 263.675781 C 137.417969 263.207031 144.9375 262.585938 148.148438 262.71875 C 151.507812 262.851562 156.992188 263.695312 161.058594 263.472656 C 162.523438 263.390625 163.773438 263.132812 165.160156 262.984375 C 166.546875 262.839844 168.207031 263.238281 169.734375 263.582031 C 168.40625 262.78125 165.699219 262.496094 163.617188 262.554688 C 161.539062 262.613281 159.632812 262.910156 157.429688 262.785156 C 154.203125 262.601562 151.042969 261.5625 147.800781 261.339844 C 143.546875 261.046875 140.273438 262.246094 136.015625 261.976562 C 133.640625 261.824219 131.425781 261.121094 129.035156 260.796875 C 123.078125 259.980469 113.203125 261.234375 104.613281 260.75 C 100.175781 260.488281 95.113281 260.574219 91.328125 259.476562 C 88.269531 258.589844 81.976562 254.65625 81.644531 254.125 C 80.699219 252.613281 84.984375 251.503906 88.269531 251.832031 C 91.554688 252.164062 94.039062 252.597656 97.332031 252.914062 C 101.316406 253.300781 105.578125 253.164062 109.566406 252.980469 C 112.84375 252.824219 119.683594 252.582031 122.984375 252.855469 C 128.726562 253.320312 130.976562 254.257812 136.714844 254.75 C 133.476562 254.042969 130.183594 253.394531 126.996094 252.636719 C 123.152344 251.722656 117.742188 251.859375 115.523438 251.867188 C 93.199219 251.980469 94.207031 248.179688 80.886719 247.347656 C 74.710938 246.980469 63.910156 246.851562 57.710938 247.042969 C 53.648438 247.167969 49.578125 248.070312 45.507812 248.109375 C 43.40625 248.128906 41.308594 248.140625 39.207031 248.152344 C 38.195312 248.15625 36.941406 246.714844 36.53125 247.09375 C 34.613281 246.898438 29.660156 247.859375 29.410156 247.878906 C 26.613281 248.097656 23.449219 247.988281 20.78125 248.414062 C 18.621094 248.753906 14.726562 249.699219 13.484375 250.667969 C 10.480469 251.953125 7.546875 253.398438 3.765625 254.054688 C 2.175781 254.328125 0.488281 254.457031 -1.050781 254.796875 C -4.441406 255.554688 -6.585938 257.222656 -9.800781 258.148438 C -12.953125 259.050781 -16.757812 259.144531 -20.300781 259.050781 C -23.84375 258.953125 -27.390625 258.703125 -30.953125 259.011719 C -34.515625 259.316406 -38.230469 260.335938 -39.574219 261.921875 C -36.355469 259.964844 -30.347656 259.753906 -25.394531 260.0625 C -20.445312 260.371094 -15.140625 260.960938 -10.460938 259.875 C -6.996094 259.070312 -4.46875 257.4375 -0.851562 256.820312 C 0.425781 256.605469 2.027344 256.570312 2.835938 257.042969 C 3.5625 257.46875 3.164062 258.101562 2.90625 258.660156 C 1.632812 261.386719 -0.871094 261.757812 -3.601562 263.015625 C -5.570312 263.921875 -7.710938 264.320312 -10.148438 264.914062 C -14.222656 265.902344 -18.816406 266.566406 -23.253906 266.96875 C -27.691406 267.363281 -32.355469 268.039062 -35.511719 269.621094 C -37.332031 270.535156 -38.496094 271.671875 -40.195312 272.625 C -44.089844 274.820312 -49.714844 276.34375 -51.421875 278.988281 C -52.390625 280.480469 -52.5 281.78125 -52.578125 283.300781 C -52.65625 284.777344 -53.773438 286.28125 -55.71875 287.523438 C -53.492188 286.046875 -51.472656 285.007812 -50.585938 283.292969 C -49.597656 281.394531 -50.195312 279.515625 -47.472656 277.949219 C -45.132812 276.597656 -40.984375 274.652344 -38.386719 273.394531 C -36.746094 272.597656 -35.628906 272.046875 -34.121094 271.195312 C -30.726562 269.28125 -26.570312 268.992188 -21.542969 268.332031 C -16.511719 267.671875 -10.335938 266.550781 -5.5 265.589844 C -0.660156 264.628906 4.242188 262.339844 5.730469 259.988281 C 6.414062 258.910156 6.101562 258.335938 6.863281 257.265625 C 8.230469 255.367188 11.863281 253.964844 15.648438 253.015625 C 19.4375 252.070312 21.21875 251.089844 27.734375 251.019531 C 29.128906 251 36.355469 250.328125 39.363281 252.101562 C 40.988281 253.054688 39.242188 254.21875 37.882812 255.304688 C 34.777344 257.777344 29.027344 259.195312 23.929688 260.808594 C 18.828125 262.417969 13.722656 264.691406 13.402344 267.527344 C 13.222656 269.144531 13.472656 270.648438 15.078125 272.253906 C 16.519531 273.6875 18.265625 274.894531 12.8125 275.847656 C 9.925781 276.351562 4.949219 276.132812 2.152344 276.75 C -0.824219 277.40625 -2.191406 278.824219 -4.601562 279.886719 C -7.90625 281.339844 -12.40625 281.359375 -16.820312 281.644531 C -23.5625 282.09375 -29.585938 284.585938 -31.851562 287.570312 C -30.503906 286.367188 -27.5625 285.636719 -25.136719 284.792969 C -19.664062 282.886719 -12.53125 283.464844 -8.230469 282.800781 C -9.828125 285.007812 -7.535156 288.644531 -6.421875 290.859375 C -5.195312 293.300781 -7.355469 293.332031 -7.804688 296.386719 C -8.125 298.527344 -6.234375 301.007812 -1.976562 301.714844 C -4.578125 300.746094 -5.183594 298.984375 -4.835938 297.402344 C -4.484375 295.824219 -3.375 294.269531 -3.277344 292.683594 C -3.070312 289.414062 -7.765625 285.601562 -3.785156 282.839844 C -0.851562 280.808594 -0.0625 279.21875 4.609375 278.394531 C 11.484375 277.183594 18.757812 277.957031 21.023438 275.21875 C 22.015625 274.019531 20.050781 272.367188 19.519531 271.125 C 16.464844 263.941406 30.503906 262.246094 31.597656 262.742188 C 33.152344 263.4375 29.695312 265.699219 32.121094 267.773438 C 33.757812 269.175781 37.769531 269.792969 38.675781 271.339844 C 39.515625 272.785156 36.804688 274.148438 36.003906 275.621094 C 34.34375 278.664062 41.0625 281.730469 38.773438 284.691406 C 36.585938 287.523438 28.460938 287.796875 22.953125 289.359375 C 14.761719 291.6875 13.207031 297.847656 20.046875 300.824219 C 15.4375 296.785156 17.246094 292.035156 24.960938 290.800781 C 28.355469 290.257812 32.402344 289.765625 35.484375 288.894531 C 38.503906 288.046875 40.582031 285.433594 44.058594 285.351562 C 46.648438 285.292969 48.554688 288.367188 49.804688 289.429688 C 51.054688 290.492188 51.683594 291.703125 52.988281 292.753906 C 55.125 294.464844 59.160156 295.9375 58.613281 297.925781 C 58.339844 298.910156 57.980469 299.625 57.945312 300.8125 C 60.722656 298.980469 60.96875 296.378906 58.539062 294.476562 C 57.050781 293.3125 54.667969 292.390625 53.839844 291.085938 C 53.296875 290.226562 51.230469 286.710938 50.402344 285.90625 C 47.394531 282.992188 43.925781 283.605469 41.71875 280.542969 C 37.175781 274.238281 46.863281 274.5 44.765625 271.632812 C 42.914062 269.097656 35.132812 267.777344 35.878906 265.105469 C 36.390625 263.257812 40.804688 262.230469 42.648438 260.578125 C 43.449219 259.855469 43.738281 259.03125 44.566406 258.316406 C 45.988281 257.089844 49.054688 256.328125 51.980469 256.480469 C 54.90625 256.632812 55.632812 258.183594 56.398438 259.519531 C 58.074219 262.457031 53.289062 264.953125 55.042969 267.878906 C 55.589844 268.789062 56.933594 269.621094 56.804688 270.570312 C 56.683594 271.460938 55.285156 272.183594 54.375 272.972656 C 52.285156 274.785156 52.902344 277.191406 55.832031 278.691406 C 58.820312 280.21875 63.457031 280.691406 67.367188 281.65625 C 71.277344 282.625 74.863281 284.726562 73.105469 286.636719 C 75.507812 285.019531 75.148438 282.625 72.285156 281.1875 C 69.902344 279.992188 66.332031 279.539062 63.265625 278.765625 C 60.195312 277.988281 57.289062 276.5 58.105469 274.898438 C 58.820312 273.5 62.125 272.585938 62.46875 271.160156 C 62.617188 270.546875 62.644531 269.890625 62.125 269.328125 C 57.742188 264.546875 63.332031 260.386719 75.75 265.386719 C 79.886719 267.054688 76.457031 270.070312 79.699219 271.257812 C 83.421875 272.609375 93.160156 270.878906 95.300781 272.859375 C 97.316406 274.714844 90.15625 278.164062 90.347656 280.242188 C 90.539062 282.328125 94.714844 283.898438 95.65625 285.941406 C 96.964844 288.765625 91.8125 291.316406 90.785156 294.175781 C 89.898438 296.640625 92.46875 299.296875 96.992188 300.601562 C 92.953125 299.175781 93.171875 296.269531 94.828125 294.027344 C 96.488281 291.777344 99.210938 289.597656 98.867188 287.230469 C 98.550781 285.074219 95.714844 283.160156 94.84375 281.03125 C 93.96875 278.90625 96.695312 276.695312 101.261719 276.402344 C 112.289062 275.707031 108.136719 281.679688 112.863281 284.007812 C 117.292969 286.191406 128.667969 287.605469 128.65625 291.660156 C 128.652344 293.5 128.25 295.878906 124.820312 296.8125 C 131.601562 295.222656 133.722656 290.613281 128.910156 287.832031 C 124.925781 285.53125 112.441406 282.859375 114.476562 280.640625 C 113.816406 281.363281 125.726562 281.976562 135.425781 280.867188 C 141.132812 280.207031 147.105469 281.90625 148.703125 284.523438 C 147.363281 282.328125 144.449219 280.605469 140.277344 280.023438 C 136.101562 279.4375 132.988281 279.90625 128.6875 279.980469 C 124.382812 280.050781 118.484375 280.351562 115.441406 278.894531 C 113.210938 277.820312 113.328125 275.648438 110.648438 274.820312 C 108.191406 274.054688 104.816406 274.121094 102.5625 273.226562 C 100.800781 272.53125 100.136719 271.40625 98.636719 270.582031 C 94.15625 268.121094 83.195312 271.609375 82.90625 268.421875 C 82.539062 264.355469 77.199219 262.25 71.855469 261.519531 C 68.34375 261.039062 64.785156 260.246094 62.898438 258.777344 C 61.011719 257.304688 61.382812 255.121094 64.40625 254.160156 C 67.449219 253.203125 71.738281 253.832031 74.496094 254.984375 C 77.25 256.136719 79.011719 257.714844 81.355469 259.054688 C 86.953125 262.25 97.375 263.410156 106.027344 263.019531 C 108.566406 262.875 124.015625 262.4375 127.683594 270.171875 C 128.605469 272.113281 130.511719 274.253906 134.441406 275.109375 C 139.148438 276.125 145.308594 273.261719 149.925781 274.402344 C 153.738281 275.339844 154.40625 278.859375 156.667969 280.523438 C 159.210938 282.386719 164.164062 282.945312 168.460938 283.9375 C 161.910156 282.425781 158.5625 279.96875 156.460938 277.738281 C 154.070312 275.203125 152.726562 271.832031 145.707031 272.554688 " fill-opacity="1" fill-rule="nonzero"/></g><g clip-path="url(#bbcb76fdde)"><path fill="#6bbfc2" d="M -10.773438 281.996094 C -5.816406 283.011719 -0.652344 283.429688 -0.0390625 280.546875 C 1.667969 272.53125 7.703125 270.320312 7.070312 269.296875 C 6.820312 268.890625 4.679688 269.039062 1.117188 270.027344 C -0.632812 270.515625 -5.859375 273.226562 -7.59375 273.792969 C -8.484375 274.085938 -9.222656 274.578125 -9.855469 275.105469 C -12.40625 277.234375 -16.800781 277.78125 -20.167969 279.035156 C -21.992188 279.714844 -23.511719 281.414062 -24.285156 281.820312 C -23.390625 279.984375 -22.015625 279.382812 -21.277344 278.929688 C -19.96875 278.117188 -18.828125 277.324219 -17.628906 277.011719 C -15.636719 276.488281 -14.386719 276.339844 -12.9375 275.171875 C -9.429688 272.355469 -7.460938 271.042969 -4.058594 270.265625 C -4.207031 269.636719 -10.183594 268.601562 -12.734375 268.683594 C -15.40625 268.761719 -19.769531 269.722656 -23.003906 269.273438 C -24.175781 269.113281 -25.167969 268.71875 -26.273438 268.46875 C -27.375 268.214844 -28.695312 268.695312 -29.914062 269.101562 C -28.859375 268.058594 -26.703125 267.773438 -25.046875 267.9375 C -23.390625 268.097656 -21.871094 268.5625 -20.121094 268.46875 C -17.554688 268.335938 -15.039062 267.027344 -12.464844 266.828125 C -9.082031 266.570312 -6.476562 268.269531 -3.09375 268.015625 C -1.207031 267.871094 0.554688 266.980469 2.449219 266.601562 C 7.179688 265.65625 15.019531 267.515625 21.835938 266.964844 C 25.359375 266.679688 29.375 266.839844 32.375 265.425781 C 34.796875 264.28125 39.792969 259.148438 40.058594 258.457031 C 40.808594 256.484375 37.410156 254.992188 34.804688 255.390625 C 32.199219 255.789062 30.226562 256.335938 27.617188 256.710938 C 24.453125 257.167969 21.070312 256.921875 17.902344 256.605469 C 15.300781 256.339844 9.871094 255.875 7.25 256.152344 C 2.683594 256.628906 0.902344 257.820312 -3.660156 258.3125 C -1.089844 257.457031 1.527344 256.683594 4.0625 255.757812 C 7.113281 254.644531 11.410156 254.957031 13.175781 255.011719 C 30.898438 255.585938 30.09375 250.503906 40.664062 249.570312 C 45.5625 249.144531 54.132812 249.015625 59.042969 249.257812 C 62.265625 249.410156 65.492188 250.570312 68.714844 250.597656 C 70.378906 250.605469 72.046875 250.605469 73.710938 250.601562 C 74.515625 250.597656 75.515625 248.714844 75.832031 249.199219 C 77.355469 248.925781 80.492188 250.230469 80.890625 250.140625 C 81.078125 250.097656 81.28125 250.121094 81.476562 250.140625 C 83.695312 250.386719 86.199219 250.203125 88.3125 250.707031 C 90.023438 251.117188 93.113281 252.265625 94.089844 253.492188 C 96.46875 255.101562 98.789062 256.914062 101.785156 257.675781 C 103.046875 257.996094 104.382812 258.117188 105.601562 258.519531 C 108.285156 259.410156 109.976562 261.515625 112.527344 262.617188 C 115.019531 263.699219 118.039062 263.699219 120.847656 263.464844 C 123.660156 263.222656 126.472656 262.773438 129.300781 263.039062 C 132.125 263.308594 135.066406 264.480469 136.125 266.484375 C 133.582031 264.074219 128.8125 264.03125 124.886719 264.601562 C 120.953125 265.171875 116.746094 266.105469 113.042969 264.832031 C 110.296875 263.890625 108.300781 261.851562 105.4375 261.148438 C 104.425781 260.898438 103.152344 260.890625 102.515625 261.523438 C 101.9375 262.09375 102.25 262.902344 102.453125 263.617188 C 103.449219 267.125 105.433594 267.539062 107.589844 269.09375 C 109.148438 270.214844 110.84375 270.671875 112.773438 271.367188 C 115.996094 272.53125 119.636719 273.246094 123.152344 273.617188 C 126.667969 273.984375 130.367188 274.6875 132.867188 276.617188 C 134.304688 277.730469 135.222656 279.15625 136.5625 280.332031 C 139.644531 283.023438 144.101562 284.769531 145.441406 288.125 C 146.203125 290.023438 146.28125 291.707031 146.335938 293.675781 C 146.394531 295.589844 147.269531 297.492188 148.804688 299.023438 C 147.046875 297.203125 145.453125 295.9375 144.753906 293.746094 C 143.980469 291.324219 144.464844 288.867188 142.3125 286.941406 C 140.464844 285.285156 137.183594 282.925781 135.128906 281.394531 C 133.832031 280.425781 132.949219 279.75 131.753906 278.707031 C 129.070312 276.355469 125.777344 276.132812 121.792969 275.441406 C 117.808594 274.75 112.914062 273.488281 109.085938 272.378906 C 105.253906 271.269531 101.375 268.421875 100.207031 265.410156 C 99.667969 264.027344 99.917969 263.273438 99.316406 261.90625 C 98.242188 259.476562 95.367188 257.742188 92.367188 256.582031 C 89.371094 255.425781 87.960938 254.1875 82.796875 254.191406 C 81.691406 254.191406 75.964844 253.40625 73.578125 255.738281 C 72.289062 256.996094 73.667969 258.492188 74.742188 259.886719 C 77.199219 263.070312 81.746094 264.835938 85.785156 266.839844 C 89.824219 268.839844 93.859375 271.679688 94.101562 275.351562 C 94.238281 277.441406 94.039062 279.398438 92.761719 281.511719 C 91.617188 283.40625 90.226562 285.007812 94.546875 286.121094 C 96.828125 286.710938 100.765625 286.304688 102.984375 287.03125 C 105.335938 287.808594 106.417969 289.601562 108.320312 290.910156 C 110.933594 292.707031 114.5 292.59375 117.992188 292.832031 C 123.335938 293.191406 128.097656 296.21875 129.878906 300 C 128.816406 298.484375 126.492188 297.640625 124.570312 296.632812 C 120.242188 294.351562 114.589844 295.320312 111.183594 294.585938 C 112.441406 297.394531 110.613281 302.167969 109.722656 305.066406 C 108.738281 308.269531 110.453125 308.242188 110.796875 312.1875 C 111.039062 314.945312 109.535156 318.210938 106.164062 319.253906 C 108.226562 317.925781 108.710938 315.625 108.441406 313.589844 C 108.167969 311.550781 107.296875 309.574219 107.226562 307.523438 C 107.074219 303.296875 110.808594 298.222656 107.660156 294.761719 C 105.347656 292.210938 104.730469 290.171875 101.03125 289.226562 C 95.589844 287.828125 89.828125 288.988281 88.042969 285.480469 C 87.261719 283.945312 88.824219 281.761719 89.246094 280.144531 C 91.6875 270.773438 80.570312 268.824219 79.703125 269.472656 C 78.46875 270.394531 81.203125 273.285156 79.277344 276.015625 C 77.976562 277.859375 74.792969 278.71875 74.074219 280.75 C 73.40625 282.636719 75.550781 284.375 76.175781 286.269531 C 77.484375 290.199219 72.160156 294.292969 73.960938 298.105469 C 75.691406 301.757812 82.117188 301.964844 86.46875 303.867188 C 92.953125 306.707031 94.160156 314.644531 88.738281 318.671875 C 92.394531 313.320312 90.980469 307.21875 84.875 305.777344 C 82.195312 305.152344 78.996094 304.585938 76.554688 303.515625 C 74.167969 302.472656 72.527344 299.105469 69.777344 299.054688 C 67.730469 299.015625 66.210938 303.050781 65.222656 304.453125 C 64.230469 305.855469 63.730469 307.445312 62.695312 308.828125 C 61 311.089844 57.808594 313.074219 58.238281 315.660156 C 58.449219 316.945312 58.734375 317.871094 58.761719 319.421875 C 56.566406 317.074219 56.375 313.679688 58.300781 311.160156 C 59.480469 309.621094 61.367188 308.382812 62.023438 306.671875 C 62.457031 305.542969 64.097656 300.925781 64.757812 299.871094 C 67.144531 296.035156 69.886719 296.78125 71.640625 292.757812 C 75.253906 284.496094 67.582031 284.972656 69.253906 281.207031 C 70.722656 277.890625 76.890625 276.066406 76.304688 272.601562 C 75.902344 270.210938 72.410156 268.929688 70.957031 266.796875 C 70.320312 265.867188 70.09375 264.796875 69.4375 263.875 C 68.316406 262.289062 65.886719 261.320312 63.566406 261.539062 C 61.25 261.753906 60.671875 263.777344 60.0625 265.523438 C 58.726562 269.367188 62.515625 272.589844 61.117188 276.425781 C 60.683594 277.613281 59.617188 278.710938 59.71875 279.945312 C 59.8125 281.105469 60.917969 282.039062 61.636719 283.058594 C 63.289062 285.398438 62.796875 288.542969 60.472656 290.53125 C 58.105469 292.554688 54.433594 293.21875 51.335938 294.515625 C 48.238281 295.8125 45.394531 298.585938 46.785156 301.078125 C 44.886719 298.976562 45.171875 295.835938 47.441406 293.933594 C 49.332031 292.351562 52.160156 291.738281 54.589844 290.699219 C 57.019531 289.660156 59.324219 287.691406 58.679688 285.601562 C 58.117188 283.785156 55.503906 282.617188 55.230469 280.757812 C 55.113281 279.960938 55.097656 279.101562 55.503906 278.363281 C 58.988281 272.09375 54.566406 266.699219 44.71875 273.25 C 41.4375 275.4375 44.152344 279.390625 41.582031 280.949219 C 38.632812 282.734375 30.917969 280.4375 29.21875 283.03125 C 27.621094 285.472656 33.292969 290.039062 33.140625 292.765625 C 32.988281 295.511719 29.675781 297.59375 28.929688 300.28125 C 27.894531 304.015625 31.972656 307.359375 32.78125 311.113281 C 33.484375 314.347656 31.453125 317.867188 27.867188 319.625 C 31.066406 317.710938 30.894531 313.886719 29.582031 310.9375 C 28.269531 307.984375 26.113281 305.117188 26.390625 301.988281 C 26.636719 299.144531 28.882812 296.613281 29.578125 293.808594 C 30.269531 291.003906 28.113281 288.089844 24.492188 287.6875 C 15.753906 286.714844 19.046875 294.632812 15.304688 297.714844 C 11.792969 300.59375 2.777344 302.417969 2.789062 307.835938 C 2.792969 310.292969 3.121094 313.472656 5.835938 314.722656 C 0.464844 312.601562 -1.226562 306.402344 2.585938 302.71875 C 5.742188 299.671875 15.632812 296.191406 14.019531 293.238281 C 14.542969 294.195312 5.105469 294.953125 -2.59375 293.335938 C -7.121094 292.382812 -11.859375 294.5625 -13.121094 298.074219 C -12.0625 295.128906 -9.753906 292.859375 -6.441406 292.140625 C -3.132812 291.417969 -0.660156 292.085938 2.753906 292.234375 C 6.167969 292.378906 10.84375 292.824219 13.25 290.90625 C 15.019531 289.496094 14.929688 286.617188 17.050781 285.539062 C 19 284.542969 21.675781 284.652344 23.460938 283.488281 C 24.859375 282.578125 25.386719 281.089844 26.578125 280.015625 C 30.128906 276.804688 38.8125 281.421875 39.042969 277.230469 C 39.335938 271.882812 43.574219 269.140625 47.808594 268.183594 C 50.59375 267.550781 53.414062 266.507812 54.914062 264.578125 C 56.410156 262.65625 56.121094 259.804688 53.722656 258.554688 C 51.316406 257.300781 47.910156 258.113281 45.726562 259.617188 C 43.542969 261.121094 42.140625 263.179688 40.28125 264.929688 C 35.839844 269.105469 27.582031 270.582031 20.714844 269.953125 C 18.703125 269.757812 6.4375 268.894531 3.535156 279.148438 C 2.804688 281.722656 1.292969 284.558594 -1.824219 285.640625 C -5.558594 286.933594 -10.453125 282.960938 -14.117188 284.390625 C -17.144531 285.570312 -17.667969 290.316406 -19.460938 292.523438 C -21.472656 294.996094 -25.402344 295.652344 -28.816406 296.917969 C -23.617188 294.996094 -20.964844 291.726562 -19.300781 288.753906 C -17.410156 285.375 -16.351562 280.859375 -10.773438 281.996094 " fill-opacity="1" fill-rule="nonzero"/></g><g clip-path="url(#144496881f)"><path fill="#6bbfc2" d="M 128.832031 130.878906 L 129.726562 130.542969 L 130.136719 130.671875 C 134.246094 131.972656 137.851562 132.902344 141.160156 133.515625 C 144.402344 134.101562 147.707031 134.515625 151.046875 134.761719 C 150.082031 134.617188 149.113281 134.460938 148.164062 134.292969 C 144.445312 133.625 140.101562 132.464844 135.25 130.847656 L 131.886719 129.726562 L 136.097656 128.167969 C 148.558594 123.601562 156.621094 117.851562 161.804688 112.632812 C 157.425781 115.5625 152.320312 118.070312 147.328125 120.304688 L 145.097656 121.304688 L 145.597656 118.914062 C 146.351562 115.304688 147.363281 112.28125 148.613281 109.917969 C 147.953125 110.871094 147.328125 111.898438 146.769531 113 C 145.671875 115.148438 144.765625 117.886719 144.078125 121.140625 L 143.941406 121.78125 L 143.339844 122.03125 C 136.214844 125.015625 128.511719 127.910156 121.0625 130.707031 C 113.589844 133.515625 106.539062 136.164062 100.511719 138.730469 L 97.054688 140.199219 L 98.949219 136.953125 C 100.292969 134.640625 101.414062 132.492188 102.371094 130.375 C 103.726562 127.375 105.128906 123.570312 106.609375 119.539062 L 106.996094 118.492188 L 107.792969 118.429688 C 111.816406 118.101562 115.121094 117.601562 117.890625 116.90625 C 118.816406 116.671875 119.71875 116.417969 120.59375 116.144531 C 117.488281 116.8125 113.671875 117.277344 109.21875 117.527344 L 107.308594 117.636719 L 107.980469 115.84375 C 110.710938 108.535156 114.859375 97.4375 121.644531 88.269531 C 117.210938 92.4375 112.890625 97.851562 109.957031 104.6875 C 109.621094 105.460938 109.300781 106.222656 108.984375 106.976562 L 107.5625 110.394531 L 106.625 106.8125 C 105.542969 102.660156 104.921875 98.933594 104.785156 95.734375 C 104.699219 93.714844 104.699219 91 104.992188 87.84375 C 104.113281 92.023438 103.648438 96.757812 104.019531 101.886719 C 104.261719 105.195312 104.992188 109.019531 106.199219 113.242188 L 106.3125 113.648438 L 106.039062 114.355469 C 102.25 124.082031 99.550781 132.683594 91.3125 142.632812 L 89.953125 143.675781 C 85.25 146.179688 80.570312 149.136719 76.050781 152.453125 L 74.507812 153.589844 L 74.097656 151.71875 C 72.703125 145.421875 72.097656 139.851562 72.289062 135.164062 C 72.402344 132.328125 72.769531 128.304688 73.773438 123.621094 C 71.902344 129.085938 70.5 135.488281 70.425781 142.496094 C 70.386719 146.136719 70.820312 150.328125 71.710938 154.945312 L 71.855469 155.675781 L 71.277344 156.148438 C 65.976562 160.457031 62.097656 164.316406 59.773438 166.792969 L 58.195312 168.476562 L 57.652344 166.230469 C 56.824219 162.820312 56.066406 158.726562 55.457031 155.4375 C 54.925781 152.574219 54.472656 150.101562 54.167969 149.140625 C 52.75 144.636719 55.382812 117.148438 61.066406 99.621094 L 61.15625 99.339844 L 61.972656 98.527344 C 64.9375 95.578125 67.273438 93.246094 70.214844 90.484375 L 71.757812 89.003906 C 78.007812 83.007812 86.984375 74.394531 94.910156 63.460938 C 91.507812 67.789062 87.550781 72.109375 82.964844 76.191406 C 76.625 81.875 70.746094 87.273438 65.480469 92.238281 L 61.902344 95.230469 C 62.5625 93.316406 64.765625 87.125 65.421875 85.285156 C 68.042969 77.871094 72.582031 65.03125 74.257812 49.535156 C 73.515625 54.402344 72.375 59.421875 70.707031 64.449219 L 70.070312 66.351562 L 67.617188 63.925781 C 64.441406 60.800781 61.699219 58.101562 59.757812 54.777344 C 58.941406 53.378906 58.136719 51.953125 57.371094 50.460938 C 58.367188 52.773438 59.636719 55.203125 61.25 57.730469 C 62.714844 60.039062 65.394531 63.351562 68.996094 67.304688 L 69.503906 67.863281 L 67.570312 73.144531 C 57.519531 100.625 50.253906 120.480469 47.976562 135.695312 L 47.476562 139.03125 L 45.683594 136.171875 C 41.195312 129 36.980469 121.109375 33.148438 112.707031 L 32.859375 112.078125 L 33.242188 111.5 C 35.8125 107.621094 37.792969 104.054688 39.136719 100.894531 C 42.117188 93.902344 43.179688 87.355469 43.308594 81.808594 C 42.488281 87.15625 41.027344 91.644531 39.859375 94.636719 C 38.417969 98.332031 36.070312 102.617188 32.886719 107.367188 L 31.605469 109.277344 L 30.703125 107.15625 C 27.242188 99.023438 24.085938 90.359375 21.324219 81.394531 L 21.148438 80.816406 L 21.5 80.3125 C 24.164062 76.515625 26.054688 73.246094 27.285156 70.324219 C 28.390625 67.699219 29.125 65.167969 29.585938 62.789062 C 29.199219 64.070312 28.804688 65.191406 28.445312 66.117188 C 27.222656 69.28125 25.117188 73.019531 22.1875 77.21875 L 20.695312 79.363281 L 19.96875 76.855469 C 16.566406 65.15625 14.289062 54.597656 12.820312 46.28125 C 13.121094 51.183594 13.792969 57.089844 15.136719 64.101562 L 15.707031 67.085938 L 13.203125 65.367188 C 7.703125 61.585938 3.554688 58.164062 0.523438 54.902344 C 0.359375 54.722656 0.1875 54.535156 0.0195312 54.347656 C 1.417969 56.175781 2.980469 57.984375 4.722656 59.753906 C 7.515625 62.609375 11.128906 65.574219 15.765625 68.808594 L 16.164062 69.089844 L 16.273438 69.5625 C 18.257812 78.457031 21.113281 88.164062 24.75 98.402344 L 25.691406 101.054688 L 23.097656 99.972656 C 12.859375 95.710938 -12.1875 84.542969 -23.695312 72.894531 C -23.972656 72.609375 -24.25 72.316406 -24.523438 72.019531 C -23.0625 73.882812 -21.414062 75.726562 -19.550781 77.515625 C -8.609375 88.03125 10.785156 97.765625 24.949219 104.867188 L 25.714844 105.253906 L 25.890625 105.703125 C 26.453125 107.1875 27.023438 108.691406 27.601562 110.222656 C 30.875 118.898438 34.585938 128.730469 39.632812 139.328125 L 40.730469 141.636719 L 38.234375 141.085938 C 31.046875 139.488281 26.539062 137.570312 21.316406 135.355469 L 20.390625 134.957031 C 13.625 132.089844 7.261719 128.621094 1.558594 124.738281 C 7.859375 130.152344 16.507812 136.054688 27.75 140.582031 C 29.523438 141.304688 30.902344 141.980469 32.234375 142.632812 C 34.703125 143.847656 36.839844 144.894531 40.722656 145.804688 L 41.292969 145.941406 L 41.554688 146.464844 C 42.015625 147.390625 45.429688 166.355469 45.464844 166.542969 L 45.859375 168.675781 C 45.976562 169.015625 43.398438 167.679688 43.425781 167.695312 C 43.097656 167.460938 40.953125 166.332031 38.46875 165.023438 C 22.8125 156.773438 -18.785156 134.871094 -34.734375 115.921875 C -36.59375 113.601562 -38.324219 110.929688 -39.886719 107.992188 C -37.679688 112.757812 -34.714844 117.664062 -30.730469 122.375 C -21.367188 133.515625 -7.007812 141.945312 6.882812 150.101562 L 11.84375 153.617188 L 6.992188 152.964844 C -16.433594 148.925781 -36.980469 142.925781 -54.371094 135.054688 C -47.601562 138.59375 -38.261719 142.566406 -25.242188 146.570312 L -22.085938 147.542969 L -25.207031 148.945312 C -27.425781 149.699219 -29.5 150.269531 -31.375 150.648438 C -32.9375 150.964844 -34.523438 151.226562 -36.132812 151.429688 C -32.179688 151.304688 -28.289062 150.835938 -24.542969 150.03125 C -23.984375 149.914062 -20.289062 148.375 -19.925781 148.203125 C -8.75 151.546875 4.773438 155.035156 21.410156 158.863281 L 21.617188 158.910156 L 21.796875 159.023438 C 24.210938 160.542969 26.335938 161.957031 28.292969 163.332031 L 31.058594 165.277344 L 27.691406 165.59375 C 24.398438 165.902344 21.125 166.769531 17.960938 168.167969 C 16.347656 168.878906 14.832031 169.851562 13.226562 170.875 C 12 171.660156 10.734375 172.46875 9.367188 173.195312 C 3.03125 176.566406 -3.949219 177.824219 -9.050781 178.746094 C -11.921875 179.257812 -14.902344 179.648438 -17.902344 179.910156 C -17.871094 179.910156 -17.839844 179.910156 -17.8125 179.910156 C -12.320312 179.910156 -6.851562 179.402344 -1.574219 178.402344 L -1.480469 178.378906 L 2.777344 177.726562 L -0.492188 180.605469 C -4.421875 183.554688 -8.75 186.609375 -13.609375 188.804688 C -11.023438 187.929688 -7.988281 186.675781 -4.46875 184.882812 C -2.371094 183.816406 -0.183594 182.636719 1.933594 181.496094 C 11.019531 176.605469 20.40625 171.542969 28.6875 171.542969 C 34.46875 171.542969 39.183594 174.09375 42.695312 179.113281 C 46.128906 184.011719 46.949219 190.378906 47.265625 194.742188 C 48.714844 214.628906 45.21875 237.867188 34.410156 247.664062 C 36.773438 247.875 39.800781 249.460938 42.101562 249.460938 C 42.738281 249.460938 45.382812 250.722656 45.859375 250.691406 C 56.03125 249.992188 64.238281 248.660156 74.238281 248.195312 C 72.328125 242.335938 66.328125 221.199219 68.160156 207.632812 C 71.253906 184.773438 88.5625 182.128906 101.316406 182.128906 C 102.703125 182.128906 104.15625 182.160156 105.886719 182.222656 L 106.398438 182.238281 L 106.746094 182.609375 C 108.582031 184.539062 110.390625 186.203125 112.125 187.554688 C 115.113281 189.878906 118.253906 191.777344 121.289062 193.324219 C 119.390625 192.003906 117.746094 190.773438 116.441406 189.789062 C 114.875 188.613281 113.171875 186.980469 111.089844 184.652344 L 109.03125 182.347656 L 112.113281 182.578125 C 113.246094 182.664062 114.394531 182.753906 115.566406 182.84375 C 119.242188 183.136719 123.039062 183.441406 127.109375 183.585938 C 129.078125 183.667969 130.984375 183.707031 132.773438 183.707031 C 135.324219 183.707031 137.578125 183.625 139.570312 183.480469 C 131.882812 183.476562 123.660156 182.09375 115.707031 180.753906 C 110.210938 179.828125 104.53125 178.871094 99.195312 178.40625 L 94.671875 178.011719 L 98.761719 176.042969 C 100.460938 175.21875 102.050781 174.339844 103.535156 173.4375 C 99.585938 175.199219 96.070312 176.277344 93.5625 176.914062 C 90.933594 177.566406 85.574219 178.609375 83.554688 179.003906 C 83.238281 179.0625 82.855469 179.140625 82.855469 179.140625 C 74.46875 180.925781 69.214844 184.601562 66.285156 187.367188 L 64.667969 188.898438 L 64.109375 186.246094 C 63.359375 182.714844 62.710938 179.664062 63.515625 177.363281 C 66.65625 168.339844 80.625 155.546875 89.542969 149.34375 L 89.996094 149.03125 L 93.589844 149.84375 C 109.410156 153.425781 129.09375 157.882812 144.105469 157.882812 C 144.992188 157.878906 145.867188 157.859375 146.726562 157.832031 C 133.792969 157.21875 115.0625 153.613281 95.53125 147.925781 L 92.777344 147.125 L 95.242188 145.65625 C 105.359375 139.628906 116.238281 135.574219 128.832031 130.878906 " fill-opacity="1" fill-rule="nonzero"/></g><path fill="#6bbfc2" d="M 6.75 7.964844 C 6.746094 7.996094 -1.933594 19.699219 11.007812 28.5 C 11.003906 28.535156 19.8125 17.277344 6.75 7.964844 " fill-opacity="1" fill-rule="nonzero"/><path fill="#6bbfc2" d="M 18.449219 11.484375 C 18.449219 11.484375 12.339844 17.042969 18.132812 23.332031 C 18.128906 23.332031 24.238281 18.089844 18.449219 11.484375 " fill-opacity="1" fill-rule="nonzero"/><path fill="#6bbfc2" d="M 22.621094 7.921875 C 22.617188 7.925781 20.988281 12.285156 25.902344 15.351562 C 26.214844 13.945312 27.546875 11.082031 22.621094 7.921875 " fill-opacity="1" fill-rule="nonzero"/><path fill="#6bbfc2" d="M 57.398438 5.886719 C 57.390625 5.847656 45.039062 13.550781 53.554688 26.898438 C 53.550781 26.851562 65.820312 19.847656 57.398438 5.886719 " fill-opacity="1" fill-rule="nonzero"/><path fill="#6bbfc2" d="M 70.414062 3.628906 C 70.40625 3.632812 61.8125 14.140625 74.917969 24.824219 C 74.910156 24.832031 83.636719 14.914062 70.414062 3.628906 " fill-opacity="1" fill-rule="nonzero"/><g clip-path="url(#d3762c2ecb)"><path fill="#6bbfc2" d="M -2.097656 23.261719 C -2.097656 23.320312 -8.414062 35.929688 6.316406 42.265625 C 6.316406 42.328125 12.847656 29.917969 -2.097656 23.261719 " fill-opacity="1" fill-rule="nonzero"/></g><path fill="#6bbfc2" d="M 25.308594 21.003906 C 25.300781 20.941406 11.199219 26.921875 15.789062 41.226562 C 15.785156 41.171875 29.660156 35.847656 25.308594 21.003906 " fill-opacity="1" fill-rule="nonzero"/><path fill="#6bbfc2" d="M 36.765625 23.597656 C 36.757812 23.5625 26.300781 27.652344 29.6875 38.371094 C 29.683594 38.339844 39.976562 34.6875 36.765625 23.597656 " fill-opacity="1" fill-rule="nonzero"/><path fill="#6bbfc2" d="M 63.921875 26.519531 C 63.921875 26.480469 53.445312 29.882812 56.800781 40.824219 C 56.800781 40.789062 67.097656 37.796875 63.921875 26.519531 " fill-opacity="1" fill-rule="nonzero"/><path fill="#6bbfc2" d="M 35.785156 4.894531 C 35.777344 4.855469 25.304688 8.988281 28.695312 19.695312 C 28.691406 19.660156 39 15.976562 35.785156 4.894531 " fill-opacity="1" fill-rule="nonzero"/><path fill="#6bbfc2" d="M 44.359375 42.929688 C 44.359375 42.886719 33.179688 44.304688 33.25 55.59375 C 33.25 55.554688 44.148438 54.433594 44.359375 42.929688 " fill-opacity="1" fill-rule="nonzero"/><path fill="#6bbfc2" d="M 66.535156 32.457031 C 66.53125 32.46875 61.515625 39.433594 70.703125 44.890625 C 70.699219 44.902344 75.828125 38.230469 66.535156 32.457031 " fill-opacity="1" fill-rule="nonzero"/><path fill="#6bbfc2" d="M 41.003906 57.535156 C 41.003906 57.503906 31.402344 58.300781 31.980469 67.804688 C 31.980469 67.777344 41.359375 67.238281 41.003906 57.535156 " fill-opacity="1" fill-rule="nonzero"/><path fill="#6bbfc2" d="M 86.027344 20.722656 C 86.027344 20.6875 76.398438 20.421875 76.929688 29.957031 C 76.929688 29.929688 86.339844 30.386719 86.027344 20.722656 " fill-opacity="1" fill-rule="nonzero"/><path fill="#6bbfc2" d="M 52.285156 58.289062 C 52.285156 58.269531 44.527344 59.242188 45.671875 66.929688 C 45.671875 66.914062 53.269531 66.164062 52.285156 58.289062 " fill-opacity="1" fill-rule="nonzero"/><path fill="#6bbfc2" d="M 52.351562 42.246094 C 52.351562 42.265625 51.953125 35.316406 43.117188 35.6875 C 43.117188 35.710938 43.3125 42.351562 52.351562 42.246094 " fill-opacity="1" fill-rule="nonzero"/><path fill="#6bbfc2" d="M 54.097656 50.535156 C 54.097656 50.554688 53.75 44.496094 46.046875 44.773438 C 46.046875 44.789062 46.214844 50.597656 54.097656 50.535156 " fill-opacity="1" fill-rule="nonzero"/><path fill="#6bbfc2" d="M 57.003906 55.308594 C 57.003906 55.316406 55.015625 50.78125 49.257812 52.667969 C 49.257812 52.675781 51.066406 57.054688 57.003906 55.308594 " fill-opacity="1" fill-rule="nonzero"/><path fill="#6bbfc2" d="M 63.734375 65.910156 C 63.734375 65.925781 61.085938 59.816406 53.402344 62.265625 C 53.402344 62.28125 55.8125 68.140625 63.734375 65.910156 " fill-opacity="1" fill-rule="nonzero"/><path fill="#6bbfc2" d="M 46.882812 50.410156 C 46.882812 50.394531 39.671875 53.175781 43.042969 60.296875 C 43.039062 60.285156 50.15625 57.785156 46.882812 50.410156 " fill-opacity="1" fill-rule="nonzero"/><path fill="#6bbfc2" d="M 66.953125 21.914062 C 66.953125 21.925781 63.8125 28.042969 71.867188 31.632812 C 71.863281 31.644531 75.132812 25.726562 66.953125 21.914062 " fill-opacity="1" fill-rule="nonzero"/><path fill="#6bbfc2" d="M 41.832031 1.070312 C 41.832031 1.085938 38.699219 7.398438 46.785156 10.511719 C 46.78125 10.527344 50.042969 4.382812 41.832031 1.070312 " fill-opacity="1" fill-rule="nonzero"/><g clip-path="url(#dbf7f9e98b)"><path fill="#6bbfc2" d="M -4.671875 12.4375 C -4.671875 12.457031 -7.753906 19.074219 0.285156 21.222656 C 0.285156 21.242188 3.484375 14.75 -4.671875 12.4375 " fill-opacity="1" fill-rule="nonzero"/></g><path fill="#6bbfc2" d="M 37.816406 82.734375 C 37.816406 82.738281 43.695312 75.914062 35.222656 70.203125 C 35.21875 70.207031 29.292969 76.753906 37.816406 82.734375 " fill-opacity="1" fill-rule="nonzero"/><path fill="#6bbfc2" d="M 51.019531 33.484375 C 51.019531 33.515625 52.820312 25.125 42.164062 23.332031 C 42.160156 23.359375 40.167969 31.359375 51.019531 33.484375 " fill-opacity="1" fill-rule="nonzero"/><path fill="#6bbfc2" d="M 46.613281 76.210938 C 46.613281 76.191406 54.949219 75.804688 54.523438 67.5625 C 54.523438 67.542969 46.363281 67.730469 46.613281 76.210938 " fill-opacity="1" fill-rule="nonzero"/><path fill="#6bbfc2" d="M 13.910156 114.71875 C 13.910156 114.699219 22.191406 113.8125 21.742188 105.601562 C 21.738281 105.585938 13.632812 106.28125 13.910156 114.71875 " fill-opacity="1" fill-rule="nonzero"/><path fill="#6bbfc2" d="M 32.007812 44.859375 C 32.007812 44.835938 40.367188 44.1875 39.929688 35.953125 C 39.925781 35.929688 31.742188 36.390625 32.007812 44.859375 " fill-opacity="1" fill-rule="nonzero"/><path fill="#6bbfc2" d="M 36.984375 20.804688 C 36.984375 20.777344 45.367188 20.21875 44.933594 11.984375 C 44.933594 11.957031 36.726562 12.324219 36.984375 20.804688 " fill-opacity="1" fill-rule="nonzero"/><path fill="#6bbfc2" d="M 30.492188 83.175781 C 30.488281 83.199219 26.554688 91.492188 36.988281 95.230469 C 36.988281 95.25 41.085938 87.160156 30.492188 83.175781 " fill-opacity="1" fill-rule="nonzero"/><path fill="#6bbfc2" d="M 19.707031 50.382812 C 19.707031 50.40625 15.773438 58.785156 26.234375 62.246094 C 26.234375 62.269531 30.332031 54.070312 19.707031 50.382812 " fill-opacity="1" fill-rule="nonzero"/><path fill="#6bbfc2" d="M 21.691406 41.703125 C 21.691406 41.722656 19.40625 48.945312 28.550781 50.863281 C 28.550781 50.886719 31 43.769531 21.691406 41.703125 " fill-opacity="1" fill-rule="nonzero"/><path fill="#6bbfc2" d="M 62.644531 43.238281 C 62.644531 43.253906 58.667969 51.273438 69.128906 55.71875 C 69.128906 55.738281 73.273438 47.964844 62.644531 43.238281 " fill-opacity="1" fill-rule="nonzero"/><path fill="#6bbfc2" d="M 64.382812 114.980469 C 64.382812 114.988281 59.410156 122.058594 68.515625 127.335938 C 68.511719 127.34375 73.59375 120.566406 64.382812 114.980469 " fill-opacity="1" fill-rule="nonzero"/><path fill="#6bbfc2" d="M 67.851562 107.546875 C 67.851562 107.554688 64.734375 113.726562 72.714844 117.183594 C 72.710938 117.191406 75.949219 111.230469 67.851562 107.546875 " fill-opacity="1" fill-rule="nonzero"/><path fill="#6bbfc2" d="M 60.53125 125.828125 C 60.53125 125.84375 56.589844 133.941406 66.960938 138.199219 C 66.957031 138.214844 71.066406 130.371094 60.53125 125.828125 " fill-opacity="1" fill-rule="nonzero"/><path fill="#6bbfc2" d="M 60.394531 138.34375 C 60.394531 138.359375 56.460938 146.46875 66.816406 150.703125 C 66.8125 150.714844 70.917969 142.867188 60.394531 138.34375 " fill-opacity="1" fill-rule="nonzero"/><path fill="#6bbfc2" d="M 53.414062 92.417969 C 53.414062 92.386719 43.335938 91.542969 42.125 101.582031 C 42.125 101.554688 51.925781 102.570312 53.414062 92.417969 " fill-opacity="1" fill-rule="nonzero"/><path fill="#6bbfc2" d="M 46.175781 86.269531 C 46.179688 86.25 55.539062 88.691406 58.773438 79.539062 C 58.773438 79.515625 49.691406 76.804688 46.175781 86.269531 " fill-opacity="1" fill-rule="nonzero"/><path fill="#6bbfc2" d="M 73.464844 66.734375 C 73.46875 66.714844 82.804688 69.753906 86.152344 60.890625 C 86.152344 60.875 77.101562 57.539062 73.464844 66.734375 " fill-opacity="1" fill-rule="nonzero"/><path fill="#6bbfc2" d="M 76.84375 57.164062 C 76.847656 57.136719 86.566406 58.695312 87.835938 49.292969 C 87.839844 49.269531 78.359375 47.441406 76.84375 57.164062 " fill-opacity="1" fill-rule="nonzero"/><path fill="#6bbfc2" d="M 77.230469 46.550781 C 77.230469 46.523438 86.90625 48.492188 88.667969 39.210938 C 88.671875 39.179688 79.25 36.933594 77.230469 46.550781 " fill-opacity="1" fill-rule="nonzero"/><path fill="#6bbfc2" d="M 78.023438 37.269531 C 78.027344 37.238281 87.710938 39.253906 89.472656 29.980469 C 89.476562 29.957031 80.046875 27.660156 78.023438 37.269531 " fill-opacity="1" fill-rule="nonzero"/><path fill="#6bbfc2" d="M 114.320312 16.011719 C 114.320312 15.976562 105.246094 20.5 111.753906 31.171875 C 111.753906 31.136719 120.753906 27.097656 114.320312 16.011719 " fill-opacity="1" fill-rule="nonzero"/><path fill="#6bbfc2" d="M 104.699219 76.546875 C 104.699219 76.554688 96.941406 69.929688 88.523438 76.222656 C 88.523438 76.234375 95.925781 82.5 104.699219 76.546875 " fill-opacity="1" fill-rule="nonzero"/><path fill="#6bbfc2" d="M 98.402344 83.261719 C 98.40625 83.261719 89.671875 77.878906 82.671875 85.535156 C 82.675781 85.539062 91.050781 90.660156 98.402344 83.261719 " fill-opacity="1" fill-rule="nonzero"/><path fill="#6bbfc2" d="M 87.425781 90.828125 C 87.425781 90.820312 78.339844 86.1875 72.011719 94.46875 C 72.015625 94.464844 80.738281 98.917969 87.425781 90.828125 " fill-opacity="1" fill-rule="nonzero"/><path fill="#6bbfc2" d="M 100.914062 34.917969 C 100.914062 34.898438 93.546875 39.417969 100.371094 47.488281 C 100.367188 47.472656 107.71875 43.339844 100.914062 34.917969 " fill-opacity="1" fill-rule="nonzero"/><path fill="#6bbfc2" d="M 122.324219 34.21875 C 122.324219 34.203125 113.789062 30.722656 111.046875 38.683594 C 111.050781 38.667969 119.324219 42.085938 122.324219 34.21875 " fill-opacity="1" fill-rule="nonzero"/><path fill="#6bbfc2" d="M 105.171875 25.695312 C 105.171875 25.691406 99.910156 30.015625 106.332031 36.078125 C 106.328125 36.070312 111.621094 32.050781 105.171875 25.695312 " fill-opacity="1" fill-rule="nonzero"/><path fill="#6bbfc2" d="M 124.335938 73.890625 C 124.335938 73.875 117.898438 76.660156 122.652344 83.699219 C 122.652344 83.683594 129.042969 81.191406 124.335938 73.890625 " fill-opacity="1" fill-rule="nonzero"/><path fill="#6bbfc2" d="M 130.585938 68.457031 C 130.585938 68.441406 124.15625 71.09375 128.898438 78.195312 C 128.898438 78.175781 135.289062 75.8125 130.585938 68.457031 " fill-opacity="1" fill-rule="nonzero"/><g clip-path="url(#5bf9e42da0)"><path fill="#6bbfc2" d="M 62.566406 0.878906 C 62.566406 0.878906 57.417969 5.660156 63.75 11.007812 C 63.746094 11.003906 68.925781 6.496094 62.566406 0.878906 " fill-opacity="1" fill-rule="nonzero"/></g><path fill="#6bbfc2" d="M 148.535156 43.773438 C 148.535156 43.742188 139.949219 44.050781 142.796875 53.058594 C 142.800781 53.023438 151.242188 52.949219 148.535156 43.773438 " fill-opacity="1" fill-rule="nonzero"/><path fill="#6bbfc2" d="M 153.6875 90.210938 C 153.6875 90.199219 148.652344 93.886719 154.757812 100.0625 C 154.757812 100.046875 159.816406 96.667969 153.6875 90.210938 " fill-opacity="1" fill-rule="nonzero"/><path fill="#6bbfc2" d="M 179.347656 102.550781 C 179.351562 102.539062 172.015625 100.042969 171.113281 106.875 C 171.117188 106.867188 178.265625 109.351562 179.347656 102.550781 " fill-opacity="1" fill-rule="nonzero"/><path fill="#6bbfc2" d="M 171.71875 71.65625 C 171.726562 71.628906 162.972656 68.992188 162.476562 77.34375 C 162.484375 77.320312 171.023438 79.964844 171.71875 71.65625 " fill-opacity="1" fill-rule="nonzero"/><path fill="#6bbfc2" d="M 163.136719 58.625 C 163.140625 58.597656 154.714844 57.546875 156.058594 66.054688 C 156.066406 66.023438 164.316406 67.207031 163.136719 58.625 " fill-opacity="1" fill-rule="nonzero"/><path fill="#6bbfc2" d="M 176.125 110.632812 C 176.128906 110.632812 169.335938 106.519531 166 112.3125 C 166.003906 112.3125 172.582031 116.289062 176.125 110.632812 " fill-opacity="1" fill-rule="nonzero"/><path fill="#6bbfc2" d="M 163.820312 100.460938 C 163.820312 100.4375 156.929688 101.308594 159.953125 108.628906 C 159.957031 108.605469 166.746094 107.953125 163.820312 100.460938 " fill-opacity="1" fill-rule="nonzero"/><path fill="#6bbfc2" d="M 137.378906 34.929688 C 137.378906 34.914062 131.824219 38.140625 137.457031 44.757812 C 137.457031 44.746094 143.007812 41.820312 137.378906 34.929688 " fill-opacity="1" fill-rule="nonzero"/><path fill="#6bbfc2" d="M 123.75 24.613281 C 123.753906 24.589844 116.265625 24.265625 117.460938 31.804688 C 117.464844 31.785156 124.800781 32.265625 123.75 24.613281 " fill-opacity="1" fill-rule="nonzero"/><path fill="#6bbfc2" d="M 156.042969 106.367188 C 156.046875 106.347656 149.136719 107.390625 152.167969 114.691406 C 152.167969 114.671875 158.980469 113.839844 156.042969 106.367188 " fill-opacity="1" fill-rule="nonzero"/><path fill="#6bbfc2" d="M 166.820312 124.472656 C 166.816406 124.496094 162.429688 118.429688 155.640625 121.320312 C 155.640625 121.335938 159.796875 127.15625 166.820312 124.472656 " fill-opacity="1" fill-rule="nonzero"/><path fill="#6bbfc2" d="M 160.863281 130.199219 C 160.863281 130.21875 158.097656 123.734375 150.289062 124.964844 C 150.289062 124.988281 152.839844 131.21875 160.863281 130.199219 " fill-opacity="1" fill-rule="nonzero"/><path fill="#6bbfc2" d="M 148.324219 140.789062 C 148.320312 140.808594 145.539062 134.355469 137.707031 135.875 C 137.707031 135.890625 140.265625 142.113281 148.324219 140.789062 " fill-opacity="1" fill-rule="nonzero"/><path fill="#6bbfc2" d="M 160.503906 142.761719 C 160.5 142.777344 157.734375 136.335938 149.929688 137.660156 C 149.925781 137.679688 152.476562 143.886719 160.503906 142.761719 " fill-opacity="1" fill-rule="nonzero"/><path fill="#6bbfc2" d="M 171.71875 127.34375 C 171.722656 127.332031 164.328125 125.957031 164.472656 133.121094 C 164.476562 133.105469 171.699219 134.542969 171.71875 127.34375 " fill-opacity="1" fill-rule="nonzero"/><path fill="#6bbfc2" d="M 173.574219 139.425781 C 173.574219 139.4375 168.039062 134.09375 162.449219 138.332031 C 162.449219 138.347656 167.75 143.484375 173.574219 139.425781 " fill-opacity="1" fill-rule="nonzero"/><path fill="#6bbfc2" d="M 172.097656 117.355469 C 172.101562 117.359375 165.894531 112.503906 161.285156 117.515625 C 161.285156 117.523438 167.269531 122.195312 172.097656 117.355469 " fill-opacity="1" fill-rule="nonzero"/><path fill="#6bbfc2" d="M 127.472656 122.808594 C 127.472656 122.824219 123.445312 116.738281 116.253906 119.800781 C 116.253906 119.820312 120.035156 125.683594 127.472656 122.808594 " fill-opacity="1" fill-rule="nonzero"/><path fill="#6bbfc2" d="M 135.40625 120.542969 C 135.40625 120.554688 131.40625 114.421875 124.210938 117.332031 C 124.210938 117.351562 127.96875 123.253906 135.40625 120.542969 " fill-opacity="1" fill-rule="nonzero"/><path fill="#6bbfc2" d="M 141.851562 116.5625 C 141.851562 116.578125 138.234375 110.980469 131.714844 113.492188 C 131.714844 113.511719 135.121094 118.902344 141.851562 116.5625 " fill-opacity="1" fill-rule="nonzero"/><path fill="#6bbfc2" d="M 144.378906 110.460938 C 144.378906 110.460938 140.230469 107.226562 136.910156 110.71875 C 136.914062 110.722656 140.894531 113.882812 144.378906 110.460938 " fill-opacity="1" fill-rule="nonzero"/><path fill="#6bbfc2" d="M 126.953125 101.320312 C 126.953125 101.289062 118.515625 103.929688 123.28125 112.875 C 123.28125 112.84375 131.625 110.542969 126.953125 101.320312 " fill-opacity="1" fill-rule="nonzero"/><path fill="#6bbfc2" d="M 133.988281 99.066406 C 133.988281 99.046875 127.1875 101.164062 131.1875 108.441406 C 131.1875 108.425781 137.910156 106.570312 133.988281 99.066406 " fill-opacity="1" fill-rule="nonzero"/><path fill="#6bbfc2" d="M 118.074219 104.273438 C 118.074219 104.253906 111.253906 106.640625 115.277344 113.847656 C 115.277344 113.832031 122.027344 111.710938 118.074219 104.273438 " fill-opacity="1" fill-rule="nonzero"/><path fill="#6bbfc2" d="M 88.960938 54.097656 C 88.960938 54.089844 83.707031 58.707031 90.136719 64.488281 C 90.132812 64.480469 95.421875 60.15625 88.960938 54.097656 " fill-opacity="1" fill-rule="nonzero"/><path fill="#6bbfc2" d="M 74.949219 69.234375 C 74.949219 69.230469 69.699219 74.046875 76.140625 79.625 C 76.140625 79.621094 81.417969 75.089844 74.949219 69.234375 " fill-opacity="1" fill-rule="nonzero"/><path fill="#6bbfc2" d="M 93.257812 43.226562 C 93.253906 43.214844 86.503906 49.167969 94.910156 56.699219 C 94.910156 56.691406 101.703125 51.136719 93.257812 43.226562 " fill-opacity="1" fill-rule="nonzero"/><path fill="#6bbfc2" d="M 95.832031 68.289062 C 95.832031 68.292969 103.742188 74.003906 110.226562 67.1875 C 110.230469 67.191406 102.671875 61.171875 95.832031 68.289062 " fill-opacity="1" fill-rule="nonzero"/><path fill="#6bbfc2" d="M 76.5 113.421875 C 76.503906 113.375 89.414062 111.261719 85.925781 98.257812 C 85.929688 98.207031 73.214844 100.023438 76.5 113.421875 " fill-opacity="1" fill-rule="nonzero"/><path fill="#6bbfc2" d="M 133.039062 78.230469 C 133.046875 78.195312 146.03125 82.527344 148.753906 70.703125 C 148.765625 70.667969 136.15625 65.816406 133.039062 78.230469 " fill-opacity="1" fill-rule="nonzero"/><path fill="#6bbfc2" d="M 143.234375 66.542969 C 143.246094 66.472656 156.253906 67.863281 154.441406 54.953125 C 154.449219 54.886719 141.675781 53.136719 143.234375 66.542969 " fill-opacity="1" fill-rule="nonzero"/><path fill="#6bbfc2" d="M 138.230469 107.132812 C 138.238281 107.074219 150.804688 106.023438 146.660156 93.078125 C 146.667969 93.019531 134.273438 93.761719 138.230469 107.132812 " fill-opacity="1" fill-rule="nonzero"/><path fill="#6bbfc2" d="M 158.839844 99.277344 C 158.847656 99.242188 168.082031 98.957031 165.039062 89.375 C 165.046875 89.339844 155.941406 89.398438 158.839844 99.277344 " fill-opacity="1" fill-rule="nonzero"/><path fill="#6bbfc2" d="M 142.171875 91.609375 C 142.175781 91.574219 151.476562 90.964844 148.414062 81.335938 C 148.414062 81.300781 139.242188 81.6875 142.171875 91.609375 " fill-opacity="1" fill-rule="nonzero"/><path fill="#6bbfc2" d="M 171.183594 99.777344 C 171.191406 99.714844 182.179688 97.78125 175.890625 85.5625 C 175.898438 85.5 164.988281 87.230469 171.183594 99.777344 " fill-opacity="1" fill-rule="nonzero"/><path fill="#6bbfc2" d="M 126.839844 47.792969 C 126.839844 47.753906 136.746094 42.847656 127.96875 31.417969 C 127.96875 31.375 118.074219 36.09375 126.839844 47.792969 " fill-opacity="1" fill-rule="nonzero"/><path fill="#6bbfc2" d="M 80.433594 18.421875 C 80.433594 18.386719 89.726562 16.988281 86.941406 7.605469 C 86.945312 7.570312 77.792969 8.777344 80.433594 18.421875 " fill-opacity="1" fill-rule="nonzero"/><path fill="#6bbfc2" d="M 105.179688 23.222656 C 105.171875 23.230469 109.671875 16.472656 100.164062 10.683594 C 100.164062 10.691406 95.5625 17.179688 105.179688 23.222656 " fill-opacity="1" fill-rule="nonzero"/><path fill="#6bbfc2" d="M 111.425781 68.125 C 111.433594 68.085938 124.515625 71.90625 127.25 59.753906 C 127.257812 59.710938 114.539062 55.398438 111.425781 68.125 " fill-opacity="1" fill-rule="nonzero"/><path fill="#6bbfc2" d="M 100.605469 59.847656 C 100.605469 59.851562 107.929688 65.234375 113.941406 59.011719 C 113.941406 59.019531 106.941406 53.359375 100.605469 59.847656 " fill-opacity="1" fill-rule="nonzero"/><path fill="#6bbfc2" d="M 105.703125 52.40625 C 105.707031 52.398438 113.71875 57.003906 118.457031 50.011719 C 118.460938 50.011719 110.753906 45.113281 105.703125 52.40625 " fill-opacity="1" fill-rule="nonzero"/><path fill="#6bbfc2" d="M 128.324219 48.789062 C 128.328125 48.757812 119.507812 48.703125 121.289062 57.648438 C 121.292969 57.617188 129.9375 57.875 128.324219 48.789062 " fill-opacity="1" fill-rule="nonzero"/><path fill="#6bbfc2" d="M 150.582031 79.789062 C 150.589844 79.726562 163.421875 81.359375 161.503906 68.699219 C 161.515625 68.632812 148.917969 66.648438 150.582031 79.789062 " fill-opacity="1" fill-rule="nonzero"/><path fill="#6bbfc2" d="M 154 87.582031 C 154.007812 87.554688 166.3125 92.171875 168.5625 81.089844 C 168.574219 81.0625 156.625 75.949219 154 87.582031 " fill-opacity="1" fill-rule="nonzero"/><path fill="#6bbfc2" d="M 109.550781 45.019531 C 109.550781 45.015625 117.566406 49.714844 122.300781 42.804688 C 122.300781 42.800781 114.601562 37.8125 109.550781 45.019531 " fill-opacity="1" fill-rule="nonzero"/><path fill="#6bbfc2" d="M 86.898438 113.808594 C 86.898438 113.796875 79.292969 112.210938 77.734375 119.683594 C 77.738281 119.675781 85.125 121.335938 86.898438 113.808594 " fill-opacity="1" fill-rule="nonzero"/><path fill="#6bbfc2" d="M 75.011719 134.917969 C 75.015625 134.902344 83.949219 137.054688 86.339844 128.382812 C 86.339844 128.363281 77.65625 125.960938 75.011719 134.917969 " fill-opacity="1" fill-rule="nonzero"/><path fill="#6bbfc2" d="M 75.375 141.957031 C 75.378906 141.945312 84.152344 145.363281 88.191406 136.953125 C 88.191406 136.945312 79.707031 133.269531 75.375 141.957031 " fill-opacity="1" fill-rule="nonzero"/><path fill="#6bbfc2" d="M 76.144531 126.667969 C 76.148438 126.65625 83.800781 128.496094 85.808594 121.066406 C 85.808594 121.054688 78.371094 119.011719 76.144531 126.667969 " fill-opacity="1" fill-rule="nonzero"/><path fill="#6bbfc2" d="M 121.171875 71.546875 C 121.175781 71.535156 114.203125 67.882812 110.71875 74.269531 C 110.722656 74.261719 117.457031 77.839844 121.171875 71.546875 " fill-opacity="1" fill-rule="nonzero"/><path fill="#6bbfc2" d="M 109.058594 81.792969 C 109.0625 81.792969 115.882812 85.769531 120.054688 79.761719 C 120.058594 79.761719 113.496094 75.574219 109.058594 81.792969 " fill-opacity="1" fill-rule="nonzero"/><path fill="#6bbfc2" d="M 127.519531 84.441406 C 127.523438 84.441406 134.308594 88.632812 138.460938 82.871094 C 138.464844 82.875 131.945312 78.464844 127.519531 84.441406 " fill-opacity="1" fill-rule="nonzero"/><path fill="#6bbfc2" d="M 124.351562 89.699219 C 124.355469 89.703125 130.609375 94.488281 135.722656 89.351562 C 135.722656 89.355469 129.746094 84.375 124.351562 89.699219 " fill-opacity="1" fill-rule="nonzero"/><path fill="#6bbfc2" d="M 120.53125 96.066406 C 120.53125 96.074219 126.792969 100.789062 131.90625 95.574219 C 131.910156 95.578125 125.925781 90.667969 120.53125 96.066406 " fill-opacity="1" fill-rule="nonzero"/><path fill="#6bbfc2" d="M 93.0625 90.679688 C 93.0625 90.695312 92.789062 97.410156 101.488281 98.578125 C 101.488281 98.59375 101.972656 91.984375 93.0625 90.679688 " fill-opacity="1" fill-rule="nonzero"/><path fill="#6bbfc2" d="M 92.179688 98.792969 C 92.175781 98.816406 91.855469 106.789062 102.183594 108.140625 C 102.183594 108.164062 102.761719 100.300781 92.179688 98.792969 " fill-opacity="1" fill-rule="nonzero"/><path fill="#6bbfc2" d="M 106.886719 90.222656 C 106.890625 90.214844 114.3125 92.929688 116.816406 86.042969 C 116.820312 86.035156 109.625 83.105469 106.886719 90.222656 " fill-opacity="1" fill-rule="nonzero"/><path fill="#6bbfc2" d="M 136.300781 47.097656 C 136.300781 47.039062 125.628906 53.210938 134.898438 66.449219 C 134.898438 66.386719 145.523438 60.90625 136.300781 47.097656 " fill-opacity="1" fill-rule="nonzero"/><path fill="#6bbfc2" d="M 94.886719 15.945312 C 94.878906 15.90625 84.089844 23.171875 93.53125 35.878906 C 93.53125 35.835938 104.285156 29.242188 94.886719 15.945312 " fill-opacity="1" fill-rule="nonzero"/><g clip-path="url(#8c42deedf1)"><path fill="#6bbfc2" d="M 1.394531 61.429688 C 1.398438 61.4375 -0.765625 56.03125 -7.933594 58.945312 C -7.929688 58.953125 -6 64.152344 1.394531 61.429688 " fill-opacity="1" fill-rule="nonzero"/></g><path fill="#6bbfc2" d="M 8.160156 58.253906 C 8.15625 58.253906 13.199219 53.921875 8.253906 49.308594 C 8.25 49.308594 3.214844 53.460938 8.160156 58.253906 " fill-opacity="1" fill-rule="nonzero"/><path fill="#6bbfc2" d="M 16.429688 94.320312 C 16.429688 94.320312 21.460938 90.105469 16.53125 85.359375 C 16.53125 85.359375 11.503906 89.386719 16.429688 94.320312 " fill-opacity="1" fill-rule="nonzero"/><path fill="#6bbfc2" d="M 101.945312 116.121094 C 101.945312 116.128906 102.992188 110.414062 95.570312 108.6875 C 95.570312 108.695312 94.386719 114.207031 101.945312 116.121094 " fill-opacity="1" fill-rule="nonzero"/><g clip-path="url(#043c8546f1)"><path fill="#6bbfc2" d="M 7.921875 67.636719 C 7.921875 67.644531 5.765625 62.195312 -1.414062 64.988281 C -1.414062 65 0.519531 70.246094 7.921875 67.636719 " fill-opacity="1" fill-rule="nonzero"/></g><g clip-path="url(#f7520bda08)"><path fill="#6bbfc2" d="M -1.285156 47.179688 C -1.285156 47.183594 2.886719 42.683594 -2.238281 39.09375 C -2.242188 39.097656 -6.429688 43.414062 -1.285156 47.179688 " fill-opacity="1" fill-rule="nonzero"/></g><path fill="#6bbfc2" d="M 4.101562 71.914062 C 4.101562 71.914062 7.097656 76.390625 13.25 73.042969 C 13.253906 73.050781 10.464844 68.480469 4.101562 71.914062 " fill-opacity="1" fill-rule="nonzero"/><path fill="#6bbfc2" d="M 2.519531 52.519531 C 2.515625 52.515625 7.785156 49.121094 4.148438 44.234375 C 4.148438 44.230469 -1.082031 47.464844 2.519531 52.519531 " fill-opacity="1" fill-rule="nonzero"/><path fill="#6bbfc2" d="M 22.988281 142.394531 C 22.988281 142.394531 17.003906 136.75 9.480469 143.09375 C 9.480469 143.09375 15.132812 148.597656 22.988281 142.394531 " fill-opacity="1" fill-rule="nonzero"/><path fill="#6bbfc2" d="M 44.335938 109.253906 C 44.332031 109.242188 36.742188 112.089844 40.125 119.625 C 40.121094 119.609375 47.613281 117.046875 44.335938 109.253906 " fill-opacity="1" fill-rule="nonzero"/><g clip-path="url(#eab3e1b674)"><path fill="#6bbfc2" d="M -10.457031 127.898438 C -10.457031 127.910156 -6.785156 135.695312 3.769531 131.355469 C 3.773438 131.371094 0.410156 123.402344 -10.457031 127.898438 " fill-opacity="1" fill-rule="nonzero"/></g><g clip-path="url(#a7b9d6885a)"><path fill="#6bbfc2" d="M -0.675781 136.132812 C -0.671875 136.136719 4.382812 143.351562 14.210938 137.859375 C 14.214844 137.871094 9.484375 130.460938 -0.675781 136.132812 " fill-opacity="1" fill-rule="nonzero"/></g><path fill="#6bbfc2" d="M 23.640625 133.640625 C 23.640625 133.644531 30.488281 127.339844 22.917969 120.746094 C 22.914062 120.753906 16.058594 126.78125 23.640625 133.640625 " fill-opacity="1" fill-rule="nonzero"/><path fill="#6bbfc2" d="M 13.066406 128.683594 C 13.0625 128.695312 19.109375 121.605469 10.648438 116.035156 C 10.648438 116.042969 4.558594 122.832031 13.066406 128.683594 " fill-opacity="1" fill-rule="nonzero"/><g clip-path="url(#b7ed880c6b)"><path fill="#6bbfc2" d="M 3.457031 122.066406 C 3.457031 122.078125 9.113281 115.777344 1.730469 110.671875 C 1.726562 110.683594 -3.957031 116.710938 3.457031 122.066406 " fill-opacity="1" fill-rule="nonzero"/></g><path fill="#6bbfc2" d="M 9.261719 91.207031 C 9.257812 91.214844 16.140625 83.582031 7.15625 77.375 C 7.15625 77.386719 0.238281 84.703125 9.261719 91.207031 " fill-opacity="1" fill-rule="nonzero"/><g clip-path="url(#dbc61f6ae1)"><path fill="#6bbfc2" d="M -1.925781 84.59375 C -1.929688 84.597656 5.472656 77.734375 -2.277344 71.109375 C -2.277344 71.117188 -9.675781 77.695312 -1.925781 84.59375 " fill-opacity="1" fill-rule="nonzero"/></g><path fill="#6bbfc2" d="M 161.554688 145.683594 C 161.550781 145.71875 164.765625 154.609375 153.617188 155.007812 C 153.613281 155.042969 150.226562 146.132812 161.554688 145.683594 " fill-opacity="1" fill-rule="nonzero"/><path fill="#6bbfc2" d="M 171.34375 144.425781 C 171.339844 144.453125 174.414062 151.933594 165.214844 152.421875 C 165.210938 152.449219 162.003906 144.984375 171.34375 144.425781 " fill-opacity="1" fill-rule="nonzero"/><path fill="#6bbfc2" d="M 179.242188 140.6875 C 179.242188 140.710938 184.078125 147.824219 176.203125 150.054688 C 176.199219 150.082031 171.296875 143.082031 179.242188 140.6875 " fill-opacity="1" fill-rule="nonzero"/><path fill="#6bbfc2" d="M 115.347656 150.410156 C 115.34375 150.441406 113.910156 140.632812 126.46875 141.652344 C 126.464844 141.6875 128.164062 151.019531 115.347656 150.410156 " fill-opacity="1" fill-rule="nonzero"/><path fill="#6bbfc2" d="M 130.316406 153.582031 C 130.3125 153.617188 127.789062 144.195312 139.550781 144.28125 C 139.550781 144.316406 142.296875 153.273438 130.316406 153.582031 " fill-opacity="1" fill-rule="nonzero"/><path fill="#6bbfc2" d="M 143.183594 154.570312 C 143.183594 154.601562 139.820312 146.089844 150.132812 145.277344 C 150.128906 145.308594 153.65625 153.421875 143.183594 154.570312 " fill-opacity="1" fill-rule="nonzero"/><g clip-path="url(#922707675a)"><path fill="#6bbfc2" d="M -1.660156 107.117188 C -1.660156 107.101562 7.019531 112.394531 14.894531 103.371094 C 14.898438 103.359375 6.566406 97.75 -1.660156 107.117188 " fill-opacity="1" fill-rule="nonzero"/></g><g clip-path="url(#016039a05b)"><path fill="#6bbfc2" d="M -13.273438 101.496094 C -13.273438 101.476562 -4.605469 106.539062 3.25 97.355469 C 3.253906 97.34375 -5.074219 91.960938 -13.273438 101.496094 " fill-opacity="1" fill-rule="nonzero"/></g><path fill="#6bbfc2" d="M 12.25 168.382812 C 12.246094 168.390625 15.480469 163.042969 8.976562 160.105469 C 8.976562 160.113281 5.671875 165.242188 12.25 168.382812 " fill-opacity="1" fill-rule="nonzero"/><g clip-path="url(#ce0101c5c1)"><path fill="#6bbfc2" d="M -0.335938 162.816406 C -0.335938 162.832031 -2.308594 169.683594 6.253906 171.234375 C 6.253906 171.25 8.390625 164.503906 -0.335938 162.816406 " fill-opacity="1" fill-rule="nonzero"/></g><path fill="#6bbfc2" d="M 110.71875 171.648438 C 110.71875 171.652344 112.957031 166.082031 121.78125 169.28125 C 121.78125 169.289062 119.808594 174.664062 110.71875 171.648438 " fill-opacity="1" fill-rule="nonzero"/><path fill="#6bbfc2" d="M 117.488281 178.5625 C 117.488281 178.578125 117.433594 172.507812 126.65625 173.066406 C 126.652344 173.078125 126.929688 178.875 117.488281 178.5625 " fill-opacity="1" fill-rule="nonzero"/><path fill="#6bbfc2" d="M 126.667969 180.097656 C 126.667969 180.113281 125.292969 174.074219 134.253906 173.160156 C 134.253906 173.175781 135.8125 178.921875 126.667969 180.097656 " fill-opacity="1" fill-rule="nonzero"/><path fill="#6bbfc2" d="M 136.195312 180.941406 C 136.195312 180.957031 133.839844 175.078125 142.371094 173.097656 C 142.371094 173.117188 144.875 178.695312 136.195312 180.941406 " fill-opacity="1" fill-rule="nonzero"/><path fill="#6bbfc2" d="M 145.476562 179.726562 C 145.476562 179.75 143.882812 173.765625 152.726562 172.851562 C 152.726562 172.871094 154.496094 178.546875 145.476562 179.726562 " fill-opacity="1" fill-rule="nonzero"/><path fill="#6bbfc2" d="M 154.4375 180.527344 C 154.429688 180.554688 153.644531 173.15625 164.859375 173.640625 C 164.851562 173.667969 165.90625 180.648438 154.4375 180.527344 " fill-opacity="1" fill-rule="nonzero"/><path fill="#6bbfc2" d="M 132.199219 198.921875 C 132.199219 198.890625 140.925781 194.292969 149.636719 205.089844 C 149.632812 205.058594 141.355469 209.765625 132.199219 198.921875 " fill-opacity="1" fill-rule="nonzero"/><path fill="#6bbfc2" d="M 102.902344 169.632812 C 102.90625 169.644531 99.332031 162.828125 107.105469 157.765625 C 107.105469 157.785156 110.769531 164.257812 102.902344 169.632812 " fill-opacity="1" fill-rule="nonzero"/><path fill="#6bbfc2" d="M 95.878906 173.804688 C 95.878906 173.808594 90.648438 168.515625 96.476562 160.785156 C 96.476562 160.789062 101.710938 165.777344 95.878906 173.804688 " fill-opacity="1" fill-rule="nonzero"/><path fill="#6bbfc2" d="M 129.203125 168.4375 C 129.207031 168.414062 119.367188 168.503906 119.886719 158.4375 C 119.890625 158.414062 129.519531 158.1875 129.203125 168.4375 " fill-opacity="1" fill-rule="nonzero"/><path fill="#6bbfc2" d="M 141.488281 169.441406 C 141.496094 169.421875 131.679688 169.328125 132.207031 159.351562 C 132.210938 159.328125 141.816406 159.296875 141.488281 169.441406 " fill-opacity="1" fill-rule="nonzero"/><g clip-path="url(#823252a51a)"><path fill="#6bbfc2" d="M 191.570312 142.65625 C 191.566406 142.691406 194.53125 150.988281 183.292969 149.890625 C 183.289062 149.929688 180.160156 141.519531 191.570312 142.65625 " fill-opacity="1" fill-rule="nonzero"/></g><path fill="#6bbfc2" d="M 189.242188 127.53125 C 189.226562 127.585938 190.71875 138.613281 175.417969 134.539062 C 175.402344 134.597656 173.679688 123.164062 189.242188 127.53125 " fill-opacity="1" fill-rule="nonzero"/><path fill="#6bbfc2" d="M 151.097656 168.800781 C 151.101562 168.789062 143.609375 168.582031 144.015625 161.023438 C 144.019531 161.003906 151.347656 161.101562 151.097656 168.800781 " fill-opacity="1" fill-rule="nonzero"/><path fill="#6bbfc2" d="M 163.289062 166.371094 C 163.289062 166.351562 155.675781 167.730469 153.859375 160.144531 C 153.863281 160.125 161.269531 158.65625 163.289062 166.371094 " fill-opacity="1" fill-rule="nonzero"/><path fill="#6bbfc2" d="M 172.710938 164.988281 C 172.710938 164.96875 165.121094 166.1875 163.316406 158.640625 C 163.316406 158.617188 170.695312 157.308594 172.710938 164.988281 " fill-opacity="1" fill-rule="nonzero"/><path fill="#6bbfc2" d="M 182.648438 160.425781 C 182.652344 160.402344 176.25 163.890625 171.324219 157.46875 C 171.324219 157.445312 177.488281 153.859375 182.648438 160.425781 " fill-opacity="1" fill-rule="nonzero"/><path fill="#6bbfc2" d="M 140.710938 193.019531 C 140.714844 193.007812 132.824219 194.21875 131.792969 186.554688 C 131.792969 186.535156 139.480469 185.230469 140.710938 193.019531 " fill-opacity="1" fill-rule="nonzero"/><path fill="#6bbfc2" d="M 132.691406 205.824219 C 132.695312 205.808594 124.554688 206.144531 124.796875 198.5 C 124.796875 198.488281 132.757812 198.046875 132.691406 205.824219 " fill-opacity="1" fill-rule="nonzero"/><path fill="#6bbfc2" d="M 120.707031 203.445312 C 120.707031 203.441406 112.714844 201.203125 116.125 194.328125 C 116.125 194.320312 124.011719 196.398438 120.707031 203.445312 " fill-opacity="1" fill-rule="nonzero"/><path fill="#6bbfc2" d="M 110.40625 199.175781 C 110.410156 199.179688 103.578125 194.703125 109.601562 189.429688 C 109.601562 189.433594 116.40625 193.699219 110.40625 199.175781 " fill-opacity="1" fill-rule="nonzero"/><path fill="#6bbfc2" d="M 99.941406 194.492188 C 99.941406 194.503906 96.222656 187.769531 104.617188 185.898438 C 104.617188 185.914062 108.441406 192.386719 99.941406 194.492188 " fill-opacity="1" fill-rule="nonzero"/><path fill="#6bbfc2" d="M 131.464844 192.085938 C 131.464844 192.066406 123.5625 193.382812 122.523438 185.683594 C 122.523438 185.667969 130.226562 184.253906 131.464844 192.085938 " fill-opacity="1" fill-rule="nonzero"/><path fill="#6bbfc2" d="M 150.46875 191.800781 C 150.472656 191.785156 142.601562 192.875 141.570312 185.253906 C 141.574219 185.234375 149.246094 184.058594 150.46875 191.800781 " fill-opacity="1" fill-rule="nonzero"/><path fill="#6bbfc2" d="M 161.140625 187.359375 C 161.140625 187.339844 154.203125 190.757812 149.871094 184.222656 C 149.871094 184.207031 156.566406 180.703125 161.140625 187.359375 " fill-opacity="1" fill-rule="nonzero"/><path fill="#6bbfc2" d="M 189.1875 155.800781 C 189.1875 155.785156 184.445312 158.90625 179.9375 154.058594 C 179.9375 154.046875 184.484375 150.84375 189.1875 155.800781 " fill-opacity="1" fill-rule="nonzero"/><g clip-path="url(#bce28afed5)"><path fill="#6bbfc2" d="M -2.667969 198.734375 C -2.675781 198.734375 6.003906 194.574219 1.46875 186.105469 C 1.464844 186.101562 -7.113281 190.019531 -2.667969 198.734375 " fill-opacity="1" fill-rule="nonzero"/></g><path fill="#6bbfc2" d="M 10.851562 194.445312 C 10.851562 194.449219 19.175781 187.964844 10.589844 180.953125 C 10.585938 180.957031 2.269531 187.148438 10.851562 194.445312 " fill-opacity="1" fill-rule="nonzero"/></g></g></g></svg>