<svg xmlns="http://www.w3.org/2000/svg" xmlns:xlink="http://www.w3.org/1999/xlink" width="500" zoomAndPan="magnify" viewBox="0 0 375 374.999991" height="500" preserveAspectRatio="xMidYMid meet" version="1.0"><defs><filter x="0%" y="0%" width="100%" height="100%" id="47e4a8c5a6"><feColorMatrix values="0 0 0 0 1 0 0 0 0 1 0 0 0 0 1 0 0 0 1 0" color-interpolation-filters="sRGB"/></filter><mask id="98d8292390"><g filter="url(#47e4a8c5a6)"><rect x="-37.5" width="450" fill="#000000" y="-37.499999" height="449.999989" fill-opacity="0.22"/></g></mask><clipPath id="078e8c5bb7"><path d="M 66 281 L 267.921875 281 L 267.921875 360.355469 L 66 360.355469 Z M 66 281 " clip-rule="nonzero"/></clipPath><clipPath id="50242e0601"><path d="M 168 1.855469 L 174 1.855469 L 174 14 L 168 14 Z M 168 1.855469 " clip-rule="nonzero"/></clipPath><clipPath id="3be9fa90bd"><path d="M 0.398438 128 L 20 128 L 20 141 L 0.398438 141 Z M 0.398438 128 " clip-rule="nonzero"/></clipPath><clipPath id="ab85d56df5"><path d="M 0.398438 156 L 18 156 L 18 164 L 0.398438 164 Z M 0.398438 156 " clip-rule="nonzero"/></clipPath><clipPath id="1dc3043ba9"><path d="M 305.140625 161 L 316.050781 161 L 316.050781 170 L 305.140625 170 Z M 305.140625 161 " clip-rule="nonzero"/></clipPath><clipPath id="8bd865819e"><rect x="0" width="317" y="0" height="362"/></clipPath></defs><rect x="-37.5" width="450" fill="#ffffff" y="-37.499999" height="449.999989" fill-opacity="1"/><rect x="-37.5" width="450" fill="#f0f1f5" y="-37.499999" height="449.999989" fill-opacity="1"/><g mask="url(#98d8292390)"><g transform="matrix(1, 0, 0, 1, 26, 8)"><g clip-path="url(#8bd865819e)"><path fill="#6bbfc2" d="M 264.023438 307.683594 C 257.003906 308.414062 249.683594 308.679688 248.804688 306.242188 C 246.371094 299.464844 237.8125 297.464844 238.710938 296.613281 C 239.066406 296.277344 242.105469 296.445312 247.152344 297.363281 C 249.636719 297.8125 257.042969 300.21875 259.5 300.738281 C 260.761719 301.007812 261.8125 301.4375 262.714844 301.898438 C 266.332031 303.746094 272.554688 304.316406 277.328125 305.460938 C 279.914062 306.082031 282.066406 307.535156 283.164062 307.894531 C 281.890625 306.347656 279.941406 305.804688 278.894531 305.40625 C 277.039062 304.695312 275.421875 304 273.726562 303.703125 C 270.902344 303.214844 269.132812 303.050781 267.070312 302.035156 C 262.097656 299.585938 259.308594 298.433594 254.488281 297.6875 C 254.695312 297.160156 263.160156 296.460938 266.773438 296.613281 C 270.554688 296.761719 276.730469 297.707031 281.304688 297.457031 C 282.957031 297.363281 284.363281 297.078125 285.925781 296.910156 C 287.484375 296.742188 289.355469 297.191406 291.070312 297.578125 C 289.578125 296.679688 286.527344 296.355469 284.1875 296.421875 C 281.847656 296.492188 279.699219 296.824219 277.222656 296.683594 C 273.589844 296.480469 270.03125 295.304688 266.378906 295.054688 C 261.59375 294.726562 257.910156 296.078125 253.113281 295.777344 C 250.441406 295.605469 247.945312 294.8125 245.257812 294.445312 C 238.554688 293.527344 227.4375 294.941406 217.765625 294.390625 C 212.769531 294.101562 207.070312 294.195312 202.808594 292.960938 C 199.367188 291.960938 192.285156 287.53125 191.910156 286.933594 C 190.847656 285.234375 195.671875 283.984375 199.367188 284.355469 C 203.066406 284.726562 205.863281 285.214844 209.566406 285.574219 C 214.054688 286.003906 218.851562 285.855469 223.34375 285.644531 C 227.03125 285.46875 234.730469 285.199219 238.445312 285.507812 C 244.910156 286.027344 247.441406 287.085938 253.902344 287.640625 C 250.257812 286.839844 246.550781 286.113281 242.960938 285.261719 C 238.636719 284.230469 232.542969 284.386719 230.046875 284.394531 C 204.914062 284.523438 206.050781 280.242188 191.058594 279.308594 C 184.105469 278.890625 171.945312 278.746094 164.96875 278.964844 C 160.394531 279.101562 155.8125 280.121094 151.230469 280.164062 C 148.863281 280.183594 146.503906 280.195312 144.136719 280.214844 C 142.996094 280.21875 141.585938 278.59375 141.128906 279.019531 C 138.964844 278.800781 133.390625 279.882812 133.113281 279.90625 C 129.960938 280.152344 126.402344 280.027344 123.398438 280.507812 C 120.964844 280.890625 116.578125 281.953125 115.183594 283.042969 C 111.800781 284.488281 108.5 286.117188 104.242188 286.855469 C 102.453125 287.164062 100.550781 287.308594 98.820312 287.695312 C 95.003906 288.542969 92.589844 290.421875 88.96875 291.464844 C 85.421875 292.480469 81.136719 292.585938 77.148438 292.476562 C 73.160156 292.371094 69.167969 292.089844 65.15625 292.433594 C 61.144531 292.777344 56.964844 293.925781 55.453125 295.714844 C 59.078125 293.507812 65.839844 293.269531 71.414062 293.621094 C 76.984375 293.964844 82.960938 294.628906 88.226562 293.40625 C 92.128906 292.5 94.972656 290.664062 99.042969 289.96875 C 100.480469 289.726562 102.285156 289.6875 103.191406 290.21875 C 104.011719 290.699219 103.5625 291.410156 103.273438 292.039062 C 101.839844 295.113281 99.019531 295.527344 95.949219 296.941406 C 93.734375 297.964844 91.320312 298.414062 88.578125 299.078125 C 83.992188 300.191406 78.824219 300.941406 73.828125 301.394531 C 68.832031 301.839844 63.582031 302.597656 60.027344 304.378906 C 57.976562 305.40625 56.664062 306.6875 54.753906 307.761719 C 50.371094 310.230469 44.039062 311.945312 42.113281 314.921875 C 41.027344 316.605469 40.902344 318.066406 40.8125 319.78125 C 40.726562 321.441406 39.472656 323.132812 37.28125 324.53125 C 39.785156 322.867188 42.058594 321.699219 43.058594 319.769531 C 44.167969 317.632812 43.5 315.515625 46.5625 313.753906 C 49.195312 312.234375 53.867188 310.042969 56.792969 308.625 C 58.636719 307.730469 59.894531 307.109375 61.59375 306.152344 C 65.414062 303.996094 70.089844 303.671875 75.753906 302.929688 C 81.414062 302.1875 88.367188 300.921875 93.8125 299.84375 C 99.257812 298.757812 104.777344 296.183594 106.453125 293.535156 C 107.222656 292.324219 106.871094 291.675781 107.730469 290.472656 C 109.265625 288.332031 113.355469 286.753906 117.617188 285.683594 C 121.882812 284.621094 123.886719 283.519531 131.222656 283.4375 C 132.792969 283.417969 140.925781 282.660156 144.3125 284.65625 C 146.144531 285.730469 144.175781 287.042969 142.648438 288.261719 C 139.152344 291.046875 132.679688 292.644531 126.9375 294.460938 C 121.195312 296.269531 115.449219 298.832031 115.089844 302.023438 C 114.886719 303.839844 115.167969 305.535156 116.976562 307.34375 C 118.601562 308.957031 120.5625 310.316406 114.421875 311.386719 C 111.175781 311.957031 105.574219 311.707031 102.421875 312.40625 C 99.078125 313.144531 97.535156 314.738281 94.824219 315.933594 C 91.101562 317.574219 86.035156 317.59375 81.070312 317.917969 C 73.476562 318.417969 66.695312 321.226562 64.144531 324.582031 C 65.664062 323.230469 68.976562 322.40625 71.707031 321.457031 C 77.867188 319.3125 85.894531 319.964844 90.738281 319.214844 C 88.941406 321.699219 91.519531 325.792969 92.773438 328.289062 C 94.152344 331.035156 91.722656 331.070312 91.214844 334.507812 C 90.855469 336.917969 92.984375 339.710938 97.777344 340.507812 C 94.851562 339.414062 94.167969 337.433594 94.558594 335.652344 C 94.953125 333.875 96.207031 332.128906 96.3125 330.34375 C 96.546875 326.660156 91.257812 322.371094 95.742188 319.261719 C 99.042969 316.972656 99.933594 315.183594 105.1875 314.253906 C 112.929688 312.890625 121.117188 313.761719 123.667969 310.679688 C 124.785156 309.328125 122.570312 307.46875 121.976562 306.074219 C 118.539062 297.984375 134.339844 296.078125 135.574219 296.636719 C 137.320312 297.417969 133.429688 299.964844 136.160156 302.300781 C 138 303.878906 142.519531 304.570312 143.539062 306.316406 C 144.484375 307.941406 141.433594 309.476562 140.53125 311.132812 C 138.664062 314.558594 146.230469 318.011719 143.652344 321.34375 C 141.1875 324.535156 132.039062 324.839844 125.84375 326.597656 C 116.617188 329.21875 114.871094 336.15625 122.566406 339.503906 C 117.378906 334.957031 119.417969 329.613281 128.101562 328.222656 C 131.921875 327.609375 136.476562 327.054688 139.949219 326.078125 C 143.34375 325.121094 145.6875 322.179688 149.597656 322.089844 C 152.515625 322.023438 154.660156 325.484375 156.066406 326.679688 C 157.476562 327.875 158.183594 329.238281 159.652344 330.417969 C 162.058594 332.34375 166.597656 334.003906 165.984375 336.242188 C 165.675781 337.351562 165.273438 338.15625 165.230469 339.492188 C 168.359375 337.429688 168.636719 334.503906 165.898438 332.359375 C 164.226562 331.050781 161.542969 330.011719 160.609375 328.542969 C 159.996094 327.578125 157.671875 323.617188 156.742188 322.714844 C 153.355469 319.433594 149.449219 320.125 146.964844 316.675781 C 141.851562 309.578125 152.757812 309.871094 150.394531 306.644531 C 148.308594 303.792969 139.550781 302.304688 140.390625 299.292969 C 140.964844 297.214844 145.9375 296.058594 148.011719 294.199219 C 148.914062 293.386719 149.238281 292.457031 150.171875 291.652344 C 151.769531 290.269531 155.222656 289.414062 158.515625 289.585938 C 161.808594 289.757812 162.628906 291.503906 163.488281 293.007812 C 165.375 296.3125 159.988281 299.121094 161.964844 302.421875 C 162.582031 303.445312 164.09375 304.378906 163.949219 305.445312 C 163.808594 306.449219 162.238281 307.265625 161.210938 308.152344 C 158.859375 310.191406 159.554688 312.902344 162.855469 314.589844 C 166.214844 316.308594 171.433594 316.84375 175.839844 317.929688 C 180.242188 319.019531 184.277344 321.382812 182.300781 323.53125 C 185 321.710938 184.59375 319.015625 181.375 317.402344 C 178.691406 316.054688 174.671875 315.542969 171.21875 314.671875 C 167.765625 313.800781 164.492188 312.125 165.410156 310.320312 C 166.214844 308.746094 169.933594 307.714844 170.324219 306.109375 C 170.488281 305.421875 170.519531 304.683594 169.9375 304.050781 C 165.003906 298.667969 171.296875 293.984375 185.277344 299.613281 C 189.929688 301.492188 186.070312 304.886719 189.71875 306.21875 C 193.910156 307.742188 204.871094 305.792969 207.28125 308.023438 C 209.550781 310.113281 201.492188 313.996094 201.707031 316.335938 C 201.921875 318.683594 206.625 320.453125 207.683594 322.75 C 209.15625 325.933594 203.355469 328.804688 202.199219 332.019531 C 201.203125 334.796875 204.09375 337.785156 209.1875 339.253906 C 204.640625 337.648438 204.886719 334.378906 206.753906 331.851562 C 208.617188 329.320312 211.683594 326.867188 211.296875 324.199219 C 210.941406 321.773438 207.75 319.621094 206.769531 317.226562 C 205.785156 314.832031 208.851562 312.34375 213.992188 312.015625 C 226.40625 311.230469 221.734375 317.953125 227.050781 320.574219 C 232.039062 323.035156 244.84375 324.625 244.832031 329.191406 C 244.828125 331.261719 244.371094 333.9375 240.511719 334.988281 C 248.144531 333.199219 250.535156 328.011719 245.117188 324.878906 C 240.632812 322.289062 226.578125 319.28125 228.871094 316.785156 C 228.125 317.597656 241.535156 318.289062 252.449219 317.039062 C 258.875 316.296875 265.597656 318.210938 267.398438 321.152344 C 265.886719 318.683594 262.605469 316.746094 257.914062 316.089844 C 253.214844 315.429688 249.707031 315.957031 244.863281 316.042969 C 240.019531 316.121094 233.378906 316.460938 229.957031 314.816406 C 227.445312 313.609375 227.574219 311.167969 224.5625 310.230469 C 221.796875 309.367188 217.996094 309.445312 215.457031 308.441406 C 213.476562 307.65625 212.726562 306.386719 211.039062 305.464844 C 205.992188 302.691406 193.65625 306.621094 193.332031 303.03125 C 192.917969 298.453125 186.90625 296.082031 180.890625 295.261719 C 176.9375 294.71875 172.933594 293.828125 170.808594 292.171875 C 168.683594 290.515625 169.097656 288.058594 172.503906 286.976562 C 175.929688 285.898438 180.757812 286.605469 183.863281 287.902344 C 186.960938 289.199219 188.945312 290.976562 191.582031 292.484375 C 197.886719 296.082031 209.617188 297.386719 219.355469 296.949219 C 222.214844 296.785156 239.609375 296.292969 243.738281 305 C 244.773438 307.183594 246.917969 309.597656 251.34375 310.558594 C 256.644531 311.703125 263.578125 308.476562 268.773438 309.761719 C 273.066406 310.816406 273.816406 314.777344 276.367188 316.652344 C 279.226562 318.75 284.800781 319.375 289.640625 320.496094 C 282.265625 318.792969 278.496094 316.03125 276.128906 313.515625 C 273.441406 310.664062 271.929688 306.867188 264.023438 307.683594 " fill-opacity="1" fill-rule="nonzero"/><g clip-path="url(#078e8c5bb7)"><path fill="#6bbfc2" d="M 87.875 318.308594 C 93.457031 319.453125 99.269531 319.921875 99.957031 316.675781 C 101.882812 307.652344 108.675781 305.164062 107.960938 304.011719 C 107.679688 303.558594 105.269531 303.726562 101.261719 304.839844 C 99.289062 305.386719 93.40625 308.4375 91.453125 309.074219 C 90.453125 309.40625 89.621094 309.960938 88.90625 310.554688 C 86.035156 312.949219 81.089844 313.566406 77.300781 314.976562 C 75.246094 315.742188 73.535156 317.65625 72.664062 318.109375 C 73.671875 316.046875 75.222656 315.367188 76.050781 314.855469 C 77.523438 313.945312 78.808594 313.050781 80.15625 312.699219 C 82.402344 312.109375 83.804688 311.941406 85.441406 310.628906 C 89.390625 307.457031 91.601562 305.980469 95.433594 305.105469 C 95.265625 304.394531 88.539062 303.234375 85.664062 303.320312 C 82.660156 303.410156 77.75 304.496094 74.109375 303.988281 C 72.789062 303.808594 71.667969 303.363281 70.425781 303.082031 C 69.183594 302.796875 67.699219 303.335938 66.328125 303.792969 C 67.515625 302.621094 69.945312 302.300781 71.808594 302.484375 C 73.671875 302.664062 75.382812 303.191406 77.351562 303.085938 C 80.238281 302.933594 83.070312 301.457031 85.972656 301.238281 C 89.777344 300.941406 92.710938 302.859375 96.519531 302.570312 C 98.644531 302.410156 100.625 301.40625 102.761719 300.980469 C 108.085938 299.914062 116.910156 302.007812 124.582031 301.390625 C 128.546875 301.070312 133.070312 301.25 136.449219 299.65625 C 139.175781 298.371094 144.796875 292.589844 145.09375 291.8125 C 145.941406 289.589844 142.113281 287.910156 139.179688 288.363281 C 136.246094 288.8125 134.03125 289.425781 131.089844 289.847656 C 127.53125 290.359375 123.722656 290.085938 120.15625 289.726562 C 117.226562 289.429688 111.113281 288.90625 108.164062 289.21875 C 103.023438 289.753906 101.015625 291.09375 95.882812 291.648438 C 98.777344 290.6875 101.722656 289.816406 104.574219 288.773438 C 108.011719 287.519531 112.847656 287.871094 114.832031 287.933594 C 134.785156 288.578125 133.878906 282.859375 145.777344 281.804688 C 151.292969 281.328125 160.9375 281.183594 166.46875 281.457031 C 170.09375 281.628906 173.726562 282.9375 177.355469 282.960938 C 179.230469 282.972656 181.105469 282.972656 182.980469 282.96875 C 183.886719 282.964844 185.007812 280.84375 185.367188 281.390625 C 187.078125 281.082031 190.613281 282.554688 191.0625 282.449219 C 191.273438 282.402344 191.5 282.425781 191.71875 282.449219 C 194.214844 282.726562 197.039062 282.519531 199.417969 283.089844 C 201.34375 283.546875 204.820312 284.84375 205.917969 286.222656 C 208.597656 288.035156 211.210938 290.078125 214.582031 290.933594 C 216 291.292969 217.507812 291.425781 218.878906 291.882812 C 221.898438 292.882812 223.804688 295.253906 226.671875 296.496094 C 229.480469 297.710938 232.878906 297.714844 236.042969 297.449219 C 239.203125 297.175781 242.375 296.671875 245.554688 296.972656 C 248.738281 297.273438 252.046875 298.589844 253.238281 300.847656 C 250.375 298.136719 245.007812 298.085938 240.585938 298.730469 C 236.160156 299.371094 231.421875 300.421875 227.253906 298.992188 C 224.164062 297.929688 221.914062 295.632812 218.691406 294.839844 C 217.554688 294.558594 216.121094 294.550781 215.402344 295.261719 C 214.75 295.90625 215.105469 296.816406 215.332031 297.621094 C 216.457031 301.566406 218.691406 302.035156 221.117188 303.785156 C 222.871094 305.046875 224.777344 305.5625 226.949219 306.34375 C 230.582031 307.652344 234.679688 308.460938 238.636719 308.875 C 242.59375 309.289062 246.757812 310.082031 249.570312 312.257812 C 251.1875 313.507812 252.222656 315.113281 253.734375 316.4375 C 257.199219 319.464844 262.21875 321.433594 263.726562 325.207031 C 264.582031 327.347656 264.671875 329.242188 264.734375 331.460938 C 264.796875 333.613281 265.78125 335.753906 267.515625 337.480469 C 265.535156 335.425781 263.742188 334.003906 262.949219 331.539062 C 262.082031 328.808594 262.628906 326.042969 260.207031 323.875 C 258.125 322.011719 254.429688 319.355469 252.117188 317.632812 C 250.65625 316.542969 249.660156 315.78125 248.316406 314.605469 C 245.296875 311.960938 241.589844 311.707031 237.101562 310.929688 C 232.621094 310.15625 227.113281 308.730469 222.800781 307.480469 C 218.488281 306.234375 214.121094 303.027344 212.804688 299.636719 C 212.199219 298.082031 212.480469 297.234375 211.804688 295.695312 C 210.59375 292.960938 207.355469 291.007812 203.980469 289.703125 C 200.605469 288.402344 199.019531 287.007812 193.207031 287.011719 C 191.964844 287.011719 185.515625 286.128906 182.828125 288.75 C 181.378906 290.167969 182.929688 291.855469 184.140625 293.421875 C 186.90625 297.003906 192.027344 298.992188 196.570312 301.246094 C 201.117188 303.5 205.660156 306.699219 205.933594 310.828125 C 206.089844 313.179688 205.863281 315.386719 204.421875 317.765625 C 203.132812 319.894531 201.570312 321.699219 206.433594 322.953125 C 209.003906 323.617188 213.4375 323.160156 215.929688 323.980469 C 218.582031 324.851562 219.796875 326.875 221.9375 328.34375 C 224.882812 330.367188 228.894531 330.242188 232.828125 330.507812 C 238.839844 330.914062 244.203125 334.320312 246.210938 338.578125 C 245.011719 336.871094 242.394531 335.921875 240.230469 334.785156 C 235.359375 332.21875 228.996094 333.308594 225.164062 332.480469 C 226.578125 335.640625 224.519531 341.019531 223.515625 344.28125 C 222.410156 347.882812 224.339844 347.859375 224.726562 352.296875 C 225 355.402344 223.304688 359.078125 219.507812 360.25 C 221.832031 358.753906 222.378906 356.167969 222.074219 353.875 C 221.769531 351.582031 220.785156 349.355469 220.707031 347.046875 C 220.535156 342.285156 224.738281 336.578125 221.199219 332.679688 C 218.59375 329.808594 217.898438 327.515625 213.734375 326.449219 C 207.609375 324.875 201.121094 326.179688 199.113281 322.234375 C 198.230469 320.503906 199.992188 318.046875 200.464844 316.222656 C 203.21875 305.679688 190.699219 303.480469 189.722656 304.214844 C 188.335938 305.25 191.410156 308.503906 189.242188 311.578125 C 187.78125 313.652344 184.199219 314.617188 183.390625 316.910156 C 182.636719 319.03125 185.046875 320.988281 185.753906 323.121094 C 187.230469 327.542969 181.230469 332.152344 183.261719 336.445312 C 185.207031 340.554688 192.441406 340.785156 197.34375 342.929688 C 204.636719 346.125 206 355.0625 199.894531 359.597656 C 204.011719 353.574219 202.421875 346.699219 195.546875 345.082031 C 192.527344 344.375 188.925781 343.738281 186.179688 342.535156 C 183.496094 341.359375 181.648438 337.570312 178.550781 337.511719 C 176.246094 337.46875 174.539062 342.007812 173.425781 343.589844 C 172.308594 345.167969 171.746094 346.957031 170.578125 348.515625 C 168.667969 351.0625 165.078125 353.296875 165.5625 356.207031 C 165.796875 357.652344 166.117188 358.695312 166.148438 360.4375 C 163.675781 357.800781 163.460938 353.976562 165.632812 351.136719 C 166.957031 349.40625 169.082031 348.011719 169.824219 346.085938 C 170.3125 344.816406 172.160156 339.621094 172.898438 338.429688 C 175.585938 334.117188 178.675781 334.953125 180.648438 330.425781 C 184.71875 321.125 176.082031 321.660156 177.960938 317.425781 C 179.617188 313.6875 186.558594 311.636719 185.898438 307.734375 C 185.449219 305.042969 181.515625 303.601562 179.878906 301.199219 C 179.164062 300.152344 178.90625 298.949219 178.167969 297.910156 C 176.90625 296.125 174.171875 295.035156 171.5625 295.28125 C 168.949219 295.523438 168.300781 297.800781 167.617188 299.765625 C 166.113281 304.09375 170.375 307.722656 168.800781 312.039062 C 168.3125 313.375 167.113281 314.613281 167.226562 316 C 167.335938 317.308594 168.578125 318.359375 169.386719 319.503906 C 171.246094 322.140625 170.691406 325.679688 168.074219 327.917969 C 165.410156 330.199219 161.277344 330.945312 157.789062 332.402344 C 154.304688 333.863281 151.101562 336.984375 152.667969 339.789062 C 150.53125 337.425781 150.855469 333.886719 153.410156 331.75 C 155.535156 329.96875 158.71875 329.277344 161.453125 328.105469 C 164.1875 326.9375 166.78125 324.71875 166.054688 322.371094 C 165.425781 320.324219 162.480469 319.011719 162.175781 316.914062 C 162.046875 316.019531 162.023438 315.050781 162.484375 314.21875 C 166.40625 307.160156 161.425781 301.09375 150.34375 308.464844 C 146.648438 310.929688 149.703125 315.375 146.808594 317.128906 C 143.488281 319.140625 134.804688 316.554688 132.894531 319.476562 C 131.097656 322.226562 137.480469 327.363281 137.308594 330.433594 C 137.136719 333.523438 133.410156 335.867188 132.570312 338.894531 C 131.402344 343.097656 135.992188 346.859375 136.90625 351.085938 C 137.695312 354.730469 135.40625 358.691406 131.375 360.671875 C 134.972656 358.511719 134.78125 354.210938 133.304688 350.890625 C 131.824219 347.566406 129.398438 344.335938 129.707031 340.816406 C 129.988281 337.613281 132.515625 334.761719 133.296875 331.609375 C 134.078125 328.449219 131.648438 325.171875 127.574219 324.714844 C 117.738281 323.621094 121.441406 332.535156 117.230469 336.003906 C 113.277344 339.246094 103.128906 341.300781 103.144531 347.398438 C 103.148438 350.164062 103.515625 353.746094 106.570312 355.148438 C 100.527344 352.765625 98.621094 345.78125 102.914062 341.636719 C 106.464844 338.207031 117.601562 334.289062 115.785156 330.964844 C 116.375 332.042969 105.746094 332.898438 97.085938 331.078125 C 91.984375 330.003906 86.652344 332.457031 85.230469 336.410156 C 86.425781 333.089844 89.023438 330.542969 92.75 329.726562 C 96.476562 328.914062 99.257812 329.667969 103.101562 329.832031 C 106.941406 330 112.210938 330.5 114.917969 328.339844 C 116.910156 326.753906 116.808594 323.511719 119.195312 322.296875 C 121.386719 321.175781 124.402344 321.300781 126.414062 319.988281 C 127.988281 318.964844 128.578125 317.292969 129.917969 316.082031 C 133.917969 312.46875 143.695312 317.664062 143.953125 312.945312 C 144.28125 306.921875 149.054688 303.835938 153.820312 302.761719 C 156.957031 302.050781 160.132812 300.875 161.816406 298.703125 C 163.503906 296.539062 163.179688 293.332031 160.480469 291.921875 C 157.769531 290.511719 153.9375 291.425781 151.476562 293.121094 C 149.015625 294.8125 147.441406 297.128906 145.347656 299.101562 C 140.347656 303.796875 131.050781 305.460938 123.320312 304.753906 C 121.058594 304.53125 107.25 303.5625 103.984375 315.105469 C 103.160156 318.003906 101.457031 321.195312 97.949219 322.414062 C 93.746094 323.867188 88.234375 319.394531 84.113281 321.003906 C 80.703125 322.332031 80.113281 327.675781 78.09375 330.160156 C 75.832031 332.945312 71.40625 333.683594 67.5625 335.105469 C 73.417969 332.941406 76.402344 329.265625 78.273438 325.917969 C 80.402344 322.113281 81.59375 317.03125 87.875 318.308594 " fill-opacity="1" fill-rule="nonzero"/></g><path fill="#6bbfc2" d="M 245.03125 148.195312 L 246.035156 147.820312 L 246.496094 147.964844 C 251.121094 149.429688 255.183594 150.476562 258.90625 151.167969 C 262.554688 151.824219 266.277344 152.289062 270.039062 152.566406 C 268.949219 152.40625 267.859375 152.226562 266.789062 152.039062 C 262.605469 151.289062 257.714844 149.984375 252.253906 148.164062 L 248.464844 146.898438 L 253.207031 145.144531 C 267.234375 140.003906 276.308594 133.53125 282.148438 127.660156 C 277.21875 130.957031 271.46875 133.777344 265.851562 136.292969 L 263.335938 137.417969 L 263.902344 134.726562 C 264.75 130.664062 265.890625 127.261719 267.296875 124.601562 C 266.550781 125.675781 265.851562 126.832031 265.222656 128.070312 C 263.984375 130.488281 262.964844 133.570312 262.191406 137.234375 L 262.039062 137.953125 L 261.359375 138.238281 C 253.339844 141.597656 244.667969 144.855469 236.28125 148.003906 C 227.871094 151.164062 219.933594 154.148438 213.148438 157.035156 L 209.257812 158.691406 L 211.386719 155.03125 C 212.902344 152.433594 214.164062 150.015625 215.242188 147.632812 C 216.765625 144.25 218.347656 139.96875 220.015625 135.433594 L 220.449219 134.253906 L 221.34375 134.179688 C 225.875 133.8125 229.597656 133.253906 232.710938 132.464844 C 233.757812 132.207031 234.769531 131.917969 235.753906 131.609375 C 232.257812 132.363281 227.964844 132.886719 222.949219 133.167969 L 220.800781 133.289062 L 221.554688 131.273438 C 224.628906 123.046875 229.300781 110.550781 236.9375 100.230469 C 231.945312 104.921875 227.085938 111.015625 223.78125 118.710938 C 223.40625 119.582031 223.042969 120.441406 222.6875 121.292969 L 221.085938 125.136719 L 220.03125 121.105469 C 218.8125 116.429688 218.113281 112.234375 217.960938 108.632812 C 217.863281 106.359375 217.863281 103.304688 218.195312 99.753906 C 217.203125 104.457031 216.675781 109.789062 217.097656 115.558594 C 217.367188 119.285156 218.191406 123.589844 219.546875 128.34375 L 219.675781 128.796875 L 219.371094 129.59375 C 215.105469 140.546875 212.066406 150.230469 202.792969 161.429688 L 201.265625 162.601562 C 195.96875 165.421875 190.699219 168.746094 185.613281 172.484375 L 183.875 173.761719 L 183.414062 171.65625 C 181.847656 164.570312 181.164062 158.296875 181.378906 153.019531 C 181.507812 149.828125 181.917969 145.300781 183.050781 140.027344 C 180.945312 146.179688 179.363281 153.386719 179.28125 161.273438 C 179.234375 165.375 179.726562 170.089844 180.730469 175.285156 L 180.890625 176.113281 L 180.242188 176.644531 C 174.273438 181.492188 169.90625 185.835938 167.289062 188.625 L 165.511719 190.523438 L 164.898438 187.992188 C 163.96875 184.152344 163.117188 179.546875 162.429688 175.84375 C 161.832031 172.621094 161.320312 169.835938 160.980469 168.753906 C 159.382812 163.6875 162.347656 132.742188 168.746094 113.011719 L 168.847656 112.691406 L 169.765625 111.78125 C 173.101562 108.457031 175.734375 105.835938 179.042969 102.726562 L 180.78125 101.058594 C 187.816406 94.308594 197.921875 84.613281 206.84375 72.300781 C 203.011719 77.175781 198.558594 82.039062 193.398438 86.636719 C 186.261719 93.03125 179.640625 99.109375 173.710938 104.699219 L 169.683594 108.066406 C 170.429688 105.914062 172.910156 98.941406 173.648438 96.871094 C 176.597656 88.527344 181.707031 74.074219 183.59375 56.628906 C 182.757812 62.105469 181.476562 67.757812 179.597656 73.417969 L 178.882812 75.558594 L 176.117188 72.828125 C 172.542969 69.308594 169.457031 66.269531 167.273438 62.527344 C 166.355469 60.957031 165.445312 59.351562 164.585938 57.671875 C 165.707031 60.273438 167.136719 63.007812 168.949219 65.851562 C 170.601562 68.453125 173.617188 72.179688 177.667969 76.632812 L 178.242188 77.257812 L 176.066406 83.207031 C 164.75 114.136719 156.574219 136.492188 154.007812 153.617188 L 153.445312 157.375 L 151.429688 154.152344 C 146.378906 146.082031 141.628906 137.199219 137.316406 127.742188 L 136.992188 127.03125 L 137.421875 126.382812 C 140.3125 122.015625 142.546875 118 144.058594 114.441406 C 147.414062 106.574219 148.609375 99.203125 148.757812 92.960938 C 147.832031 98.980469 146.1875 104.03125 144.871094 107.398438 C 143.25 111.558594 140.605469 116.382812 137.023438 121.726562 L 135.578125 123.882812 L 134.566406 121.492188 C 130.667969 112.335938 127.117188 102.585938 124.007812 92.492188 L 123.808594 91.839844 L 124.203125 91.273438 C 127.203125 87 129.332031 83.320312 130.714844 80.03125 C 131.960938 77.074219 132.789062 74.226562 133.304688 71.546875 C 132.875 72.988281 132.425781 74.253906 132.023438 75.292969 C 130.648438 78.859375 128.277344 83.0625 124.980469 87.792969 L 123.296875 90.203125 L 122.480469 87.382812 C 118.648438 74.210938 116.085938 62.328125 114.433594 52.96875 C 114.773438 58.484375 115.527344 65.132812 117.039062 73.027344 L 117.683594 76.386719 L 114.867188 74.449219 C 108.675781 70.195312 104.003906 66.34375 100.59375 62.671875 C 100.40625 62.464844 100.214844 62.257812 100.023438 62.046875 C 101.597656 64.101562 103.355469 66.140625 105.316406 68.132812 C 108.464844 71.347656 112.53125 74.679688 117.75 78.324219 L 118.199219 78.640625 L 118.320312 79.171875 C 120.554688 89.1875 123.765625 100.113281 127.863281 111.636719 L 128.925781 114.625 L 126 113.40625 C 114.480469 108.609375 86.28125 96.035156 73.328125 82.925781 C 73.015625 82.605469 72.703125 82.273438 72.394531 81.9375 C 74.042969 84.035156 75.898438 86.113281 77.992188 88.125 C 90.3125 99.964844 112.144531 110.921875 128.085938 118.917969 L 128.953125 119.347656 L 129.148438 119.859375 C 129.78125 121.527344 130.421875 123.222656 131.074219 124.945312 C 134.761719 134.710938 138.9375 145.777344 144.617188 157.710938 L 145.851562 160.304688 L 143.042969 159.683594 C 134.953125 157.886719 129.875 155.730469 124 153.234375 L 122.953125 152.789062 C 115.339844 149.5625 108.175781 145.65625 101.757812 141.285156 C 108.851562 147.378906 118.582031 154.023438 131.242188 159.121094 C 133.238281 159.933594 134.789062 160.691406 136.289062 161.429688 C 139.070312 162.792969 141.472656 163.972656 145.84375 165 L 146.484375 165.152344 L 146.78125 165.742188 C 147.300781 166.785156 151.140625 188.132812 151.179688 188.34375 L 151.625 190.742188 C 151.757812 191.125 148.855469 189.621094 148.886719 189.644531 C 148.519531 189.378906 146.101562 188.105469 143.308594 186.632812 C 125.679688 177.347656 78.855469 152.691406 60.902344 131.359375 C 58.804688 128.746094 56.859375 125.738281 55.101562 122.433594 C 57.585938 127.796875 60.925781 133.320312 65.40625 138.625 C 75.949219 151.164062 92.113281 160.65625 107.75 169.835938 L 113.335938 173.792969 L 107.871094 173.058594 C 81.503906 168.511719 58.375 161.757812 38.796875 152.898438 C 46.417969 156.878906 56.929688 161.355469 71.585938 165.859375 L 75.140625 166.953125 L 71.625 168.535156 C 69.128906 169.382812 66.792969 170.027344 64.679688 170.453125 C 62.921875 170.804688 61.140625 171.101562 59.328125 171.332031 C 63.777344 171.191406 68.15625 170.660156 72.371094 169.757812 C 73.003906 169.625 77.164062 167.890625 77.574219 167.699219 C 90.152344 171.464844 105.375 175.390625 124.105469 179.699219 L 124.335938 179.75 L 124.539062 179.878906 C 127.257812 181.589844 129.648438 183.179688 131.851562 184.730469 L 134.964844 186.921875 L 131.175781 187.277344 C 127.46875 187.625 123.78125 188.597656 120.222656 190.171875 C 118.40625 190.972656 116.695312 192.066406 114.890625 193.222656 C 113.511719 194.101562 112.085938 195.015625 110.546875 195.835938 C 103.414062 199.628906 95.558594 201.046875 89.816406 202.078125 C 86.582031 202.65625 83.226562 203.097656 79.851562 203.390625 C 79.886719 203.390625 79.917969 203.390625 79.953125 203.390625 C 86.132812 203.390625 92.289062 202.820312 98.230469 201.695312 L 98.335938 201.667969 L 103.128906 200.933594 L 99.445312 204.175781 C 95.027344 207.496094 90.152344 210.933594 84.683594 213.402344 C 87.59375 212.421875 91.007812 211.007812 94.972656 208.992188 C 97.332031 207.789062 99.796875 206.460938 102.179688 205.179688 C 112.40625 199.671875 122.972656 193.972656 132.296875 193.972656 C 138.804688 193.972656 144.109375 196.84375 148.066406 202.496094 C 151.929688 208.007812 152.851562 215.175781 153.210938 220.089844 C 154.84375 242.476562 150.902344 268.636719 138.738281 279.660156 C 141.398438 279.898438 144.804688 281.683594 147.398438 281.683594 C 148.113281 281.683594 151.089844 283.105469 151.625 283.070312 C 163.074219 282.28125 172.3125 280.78125 183.570312 280.261719 C 181.421875 273.664062 174.667969 249.871094 176.730469 234.597656 C 180.214844 208.867188 199.699219 205.890625 214.054688 205.890625 C 215.613281 205.890625 217.253906 205.925781 219.199219 205.996094 L 219.773438 206.015625 L 220.167969 206.429688 C 222.230469 208.601562 224.269531 210.476562 226.222656 212 C 229.585938 214.613281 233.121094 216.753906 236.539062 218.492188 C 234.402344 217.007812 232.550781 215.621094 231.078125 214.511719 C 229.316406 213.191406 227.398438 211.351562 225.058594 208.730469 L 222.738281 206.136719 L 226.207031 206.394531 C 227.480469 206.492188 228.777344 206.59375 230.09375 206.695312 C 234.230469 207.027344 238.507812 207.367188 243.089844 207.527344 C 245.308594 207.621094 247.453125 207.667969 249.464844 207.667969 C 252.339844 207.667969 254.875 207.574219 257.117188 207.410156 C 248.460938 207.40625 239.203125 205.847656 230.253906 204.339844 C 224.070312 203.296875 217.671875 202.222656 211.664062 201.699219 L 206.574219 201.257812 L 211.175781 199.035156 C 213.089844 198.109375 214.878906 197.125 216.550781 196.105469 C 212.109375 198.089844 208.148438 199.304688 205.324219 200.019531 C 202.367188 200.753906 196.332031 201.925781 194.058594 202.371094 C 193.703125 202.441406 193.273438 202.523438 193.273438 202.523438 C 183.832031 204.535156 177.917969 208.671875 174.621094 211.785156 L 172.800781 213.507812 L 172.167969 210.523438 C 171.324219 206.550781 170.597656 203.117188 171.5 200.527344 C 175.035156 190.367188 190.765625 175.964844 200.800781 168.984375 L 201.308594 168.628906 L 205.359375 169.542969 C 223.164062 173.578125 245.324219 178.597656 262.222656 178.597656 C 263.21875 178.589844 264.203125 178.570312 265.171875 178.539062 C 250.613281 177.847656 229.527344 173.789062 207.542969 167.386719 L 204.441406 166.484375 L 207.21875 164.832031 C 218.605469 158.046875 230.851562 153.484375 245.03125 148.195312 " fill-opacity="1" fill-rule="nonzero"/><path fill="#6bbfc2" d="M 107.601562 9.832031 C 107.59375 9.871094 97.824219 23.042969 112.390625 32.949219 C 112.386719 32.988281 122.304688 20.3125 107.601562 9.832031 " fill-opacity="1" fill-rule="nonzero"/><path fill="#6bbfc2" d="M 6.03125 115.488281 C 6.039062 115.539062 4.882812 126.117188 18.617188 125.304688 C 18.628906 125.359375 20.007812 114.523438 6.03125 115.488281 " fill-opacity="1" fill-rule="nonzero"/><path fill="#6bbfc2" d="M 20.609375 104.621094 C 20.613281 104.652344 20.011719 113.105469 31.027344 112.328125 C 31.039062 112.363281 31.84375 103.785156 20.609375 104.621094 " fill-opacity="1" fill-rule="nonzero"/><path fill="#6bbfc2" d="M 120.769531 13.792969 C 120.769531 13.792969 113.894531 20.050781 120.414062 27.132812 C 120.410156 27.132812 127.285156 21.230469 120.769531 13.792969 " fill-opacity="1" fill-rule="nonzero"/><path fill="#6bbfc2" d="M 125.464844 9.785156 C 125.460938 9.789062 123.628906 14.695312 129.160156 18.144531 C 129.511719 16.5625 131.011719 13.339844 125.464844 9.785156 " fill-opacity="1" fill-rule="nonzero"/><path fill="#6bbfc2" d="M 164.617188 7.492188 C 164.609375 7.449219 150.703125 16.121094 160.289062 31.144531 C 160.285156 31.09375 174.09375 23.207031 164.617188 7.492188 " fill-opacity="1" fill-rule="nonzero"/><path fill="#6bbfc2" d="M 179.265625 4.949219 C 179.257812 4.957031 169.585938 16.785156 184.335938 28.8125 C 184.328125 28.816406 194.152344 17.65625 179.265625 4.949219 " fill-opacity="1" fill-rule="nonzero"/><path fill="#6bbfc2" d="M 97.640625 27.050781 C 97.640625 27.121094 90.527344 41.3125 107.113281 48.445312 C 107.113281 48.511719 114.464844 34.546875 97.640625 27.050781 " fill-opacity="1" fill-rule="nonzero"/><path fill="#6bbfc2" d="M 128.492188 24.507812 C 128.484375 24.441406 112.609375 31.171875 117.777344 47.273438 C 117.769531 47.210938 133.390625 41.222656 128.492188 24.507812 " fill-opacity="1" fill-rule="nonzero"/><path fill="#6bbfc2" d="M 141.386719 27.429688 C 141.382812 27.390625 129.609375 31.992188 133.421875 44.0625 C 133.417969 44.027344 145.003906 39.917969 141.386719 27.429688 " fill-opacity="1" fill-rule="nonzero"/><path fill="#6bbfc2" d="M 171.960938 30.71875 C 171.957031 30.675781 160.164062 34.503906 163.945312 46.820312 C 163.941406 46.78125 175.535156 43.414062 171.960938 30.71875 " fill-opacity="1" fill-rule="nonzero"/><path fill="#6bbfc2" d="M 140.285156 6.375 C 140.277344 6.332031 128.484375 10.984375 132.304688 23.039062 C 132.300781 22.996094 143.90625 18.847656 140.285156 6.375 " fill-opacity="1" fill-rule="nonzero"/><path fill="#6bbfc2" d="M 149.9375 49.195312 C 149.9375 49.144531 137.355469 50.742188 137.429688 63.449219 C 137.429688 63.40625 149.699219 62.144531 149.9375 49.195312 " fill-opacity="1" fill-rule="nonzero"/><path fill="#6bbfc2" d="M 174.902344 37.40625 C 174.898438 37.414062 169.25 45.257812 179.59375 51.402344 C 179.589844 51.410156 185.363281 43.902344 174.902344 37.40625 " fill-opacity="1" fill-rule="nonzero"/><path fill="#6bbfc2" d="M 42.707031 53.902344 C 42.710938 53.941406 40.359375 63.320312 51.976562 63.257812 C 51.984375 63.300781 54.523438 53.863281 42.707031 53.902344 " fill-opacity="1" fill-rule="nonzero"/><path fill="#6bbfc2" d="M 146.160156 65.636719 C 146.160156 65.597656 135.351562 66.492188 136.003906 77.191406 C 136.003906 77.164062 146.558594 76.554688 146.160156 65.636719 " fill-opacity="1" fill-rule="nonzero"/><path fill="#6bbfc2" d="M 196.84375 24.195312 C 196.84375 24.15625 186.007812 23.855469 186.605469 34.589844 C 186.605469 34.558594 197.195312 35.074219 196.84375 24.195312 " fill-opacity="1" fill-rule="nonzero"/><path fill="#6bbfc2" d="M 158.859375 66.480469 C 158.859375 66.460938 150.128906 67.554688 151.414062 76.210938 C 151.414062 76.191406 159.964844 75.34375 158.859375 66.480469 " fill-opacity="1" fill-rule="nonzero"/><path fill="#6bbfc2" d="M 158.9375 48.421875 C 158.9375 48.445312 158.488281 40.621094 148.542969 41.039062 C 148.542969 41.066406 148.757812 48.539062 158.9375 48.421875 " fill-opacity="1" fill-rule="nonzero"/><path fill="#6bbfc2" d="M 160.898438 57.753906 C 160.898438 57.773438 160.507812 50.957031 151.839844 51.269531 C 151.839844 51.285156 152.027344 57.824219 160.898438 57.753906 " fill-opacity="1" fill-rule="nonzero"/><path fill="#6bbfc2" d="M 164.167969 63.128906 C 164.167969 63.136719 161.933594 58.027344 155.453125 60.152344 C 155.453125 60.164062 157.488281 65.09375 164.167969 63.128906 " fill-opacity="1" fill-rule="nonzero"/><path fill="#6bbfc2" d="M 171.75 75.0625 C 171.75 75.078125 168.769531 68.203125 160.117188 70.957031 C 160.117188 70.976562 162.832031 77.574219 171.75 75.0625 " fill-opacity="1" fill-rule="nonzero"/><path fill="#6bbfc2" d="M 152.78125 57.613281 C 152.777344 57.597656 144.664062 60.726562 148.457031 68.742188 C 148.453125 68.726562 156.464844 65.914062 152.78125 57.613281 " fill-opacity="1" fill-rule="nonzero"/><path fill="#6bbfc2" d="M 175.375 25.535156 C 175.371094 25.550781 171.835938 32.4375 180.902344 36.472656 C 180.898438 36.488281 184.578125 29.824219 175.375 25.535156 " fill-opacity="1" fill-rule="nonzero"/><path fill="#6bbfc2" d="M 147.09375 2.070312 C 147.09375 2.089844 143.566406 9.195312 152.667969 12.699219 C 152.664062 12.71875 156.335938 5.800781 147.09375 2.070312 " fill-opacity="1" fill-rule="nonzero"/><path fill="#6bbfc2" d="M 94.746094 14.867188 C 94.746094 14.890625 91.273438 22.339844 100.320312 24.757812 C 100.320312 24.777344 103.925781 17.472656 94.746094 14.867188 " fill-opacity="1" fill-rule="nonzero"/><path fill="#6bbfc2" d="M 142.574219 94 C 142.574219 94.007812 149.1875 86.324219 139.652344 79.890625 C 139.648438 79.898438 132.980469 87.265625 142.574219 94 " fill-opacity="1" fill-rule="nonzero"/><path fill="#6bbfc2" d="M 157.4375 38.5625 C 157.4375 38.59375 159.460938 29.148438 147.464844 27.132812 C 147.460938 27.164062 145.222656 36.167969 157.4375 38.5625 " fill-opacity="1" fill-rule="nonzero"/><path fill="#6bbfc2" d="M 152.472656 86.660156 C 152.472656 86.636719 161.855469 86.199219 161.378906 76.921875 C 161.378906 76.898438 152.191406 77.109375 152.472656 86.660156 " fill-opacity="1" fill-rule="nonzero"/><path fill="#6bbfc2" d="M 115.664062 130.003906 C 115.664062 129.984375 124.984375 128.988281 124.476562 119.742188 C 124.476562 119.726562 115.347656 120.507812 115.664062 130.003906 " fill-opacity="1" fill-rule="nonzero"/><path fill="#6bbfc2" d="M 136.035156 51.363281 C 136.03125 51.339844 145.441406 50.609375 144.949219 41.339844 C 144.945312 41.3125 135.734375 41.832031 136.035156 51.363281 " fill-opacity="1" fill-rule="nonzero"/><path fill="#6bbfc2" d="M 141.636719 24.285156 C 141.636719 24.253906 151.070312 23.628906 150.582031 14.355469 C 150.582031 14.328125 141.34375 14.738281 141.636719 24.285156 " fill-opacity="1" fill-rule="nonzero"/><path fill="#6bbfc2" d="M 134.328125 94.5 C 134.324219 94.527344 129.898438 103.859375 141.640625 108.066406 C 141.640625 108.089844 146.25 98.984375 134.328125 94.5 " fill-opacity="1" fill-rule="nonzero"/><path fill="#6bbfc2" d="M 122.1875 57.582031 C 122.183594 57.609375 117.757812 67.039062 129.535156 70.9375 C 129.535156 70.964844 134.148438 61.734375 122.1875 57.582031 " fill-opacity="1" fill-rule="nonzero"/><path fill="#6bbfc2" d="M 124.417969 47.808594 C 124.417969 47.832031 121.847656 55.964844 132.144531 58.125 C 132.144531 58.148438 134.898438 50.140625 124.417969 47.808594 " fill-opacity="1" fill-rule="nonzero"/><path fill="#6bbfc2" d="M 170.523438 49.539062 C 170.519531 49.558594 166.042969 58.585938 177.820312 63.589844 C 177.820312 63.609375 182.488281 54.859375 170.523438 49.539062 " fill-opacity="1" fill-rule="nonzero"/><path fill="#6bbfc2" d="M 172.480469 130.300781 C 172.476562 130.308594 166.878906 138.269531 177.132812 144.207031 C 177.128906 144.214844 182.847656 136.589844 172.480469 130.300781 " fill-opacity="1" fill-rule="nonzero"/><path fill="#6bbfc2" d="M 176.382812 121.933594 C 176.382812 121.9375 172.871094 128.886719 181.855469 132.78125 C 181.851562 132.789062 185.5 126.078125 176.382812 121.933594 " fill-opacity="1" fill-rule="nonzero"/><path fill="#6bbfc2" d="M 168.144531 142.511719 C 168.140625 142.527344 163.703125 151.644531 175.378906 156.4375 C 175.375 156.453125 180.003906 147.625 168.144531 142.511719 " fill-opacity="1" fill-rule="nonzero"/><path fill="#6bbfc2" d="M 167.988281 156.601562 C 167.988281 156.617188 163.558594 165.746094 175.21875 170.511719 C 175.214844 170.527344 179.835938 161.691406 167.988281 156.601562 " fill-opacity="1" fill-rule="nonzero"/><path fill="#6bbfc2" d="M 160.132812 104.902344 C 160.132812 104.867188 148.785156 103.914062 147.421875 115.214844 C 147.421875 115.1875 158.453125 116.328125 160.132812 104.902344 " fill-opacity="1" fill-rule="nonzero"/><path fill="#6bbfc2" d="M 151.984375 97.980469 C 151.988281 97.957031 162.523438 100.703125 166.160156 90.402344 C 166.164062 90.378906 155.9375 87.324219 151.984375 97.980469 " fill-opacity="1" fill-rule="nonzero"/><path fill="#6bbfc2" d="M 182.703125 75.988281 C 182.707031 75.96875 193.214844 79.390625 196.980469 69.410156 C 196.984375 69.390625 186.796875 65.636719 182.703125 75.988281 " fill-opacity="1" fill-rule="nonzero"/><path fill="#6bbfc2" d="M 186.503906 65.214844 C 186.507812 65.1875 197.453125 66.941406 198.878906 56.355469 C 198.882812 56.328125 188.214844 54.269531 186.503906 65.214844 " fill-opacity="1" fill-rule="nonzero"/><path fill="#6bbfc2" d="M 186.941406 53.269531 C 186.941406 53.238281 197.835938 55.453125 199.816406 45.003906 C 199.820312 44.972656 189.214844 42.445312 186.941406 53.269531 " fill-opacity="1" fill-rule="nonzero"/><path fill="#6bbfc2" d="M 187.832031 42.820312 C 187.835938 42.789062 198.738281 45.054688 200.722656 34.617188 C 200.726562 34.585938 190.113281 32.003906 187.832031 42.820312 " fill-opacity="1" fill-rule="nonzero"/><path fill="#6bbfc2" d="M 228.695312 18.890625 C 228.691406 18.847656 218.476562 23.941406 225.804688 35.953125 C 225.804688 35.914062 235.9375 31.367188 228.695312 18.890625 " fill-opacity="1" fill-rule="nonzero"/><path fill="#6bbfc2" d="M 217.859375 87.035156 C 217.863281 87.046875 209.128906 79.585938 199.652344 86.667969 C 199.652344 86.683594 207.984375 93.734375 217.859375 87.035156 " fill-opacity="1" fill-rule="nonzero"/><path fill="#6bbfc2" d="M 210.773438 94.59375 C 210.78125 94.59375 200.945312 88.535156 193.066406 97.152344 C 193.070312 97.160156 202.496094 102.925781 210.773438 94.59375 " fill-opacity="1" fill-rule="nonzero"/><path fill="#6bbfc2" d="M 198.417969 103.109375 C 198.417969 103.101562 188.191406 97.886719 181.066406 107.210938 C 181.070312 107.207031 190.890625 112.21875 198.417969 103.109375 " fill-opacity="1" fill-rule="nonzero"/><path fill="#6bbfc2" d="M 213.601562 40.175781 C 213.601562 40.152344 205.308594 45.238281 212.992188 54.324219 C 212.988281 54.304688 221.261719 49.652344 213.601562 40.175781 " fill-opacity="1" fill-rule="nonzero"/><path fill="#6bbfc2" d="M 237.703125 39.386719 C 237.703125 39.367188 228.09375 35.449219 225.007812 44.414062 C 225.011719 44.398438 234.328125 48.242188 237.703125 39.386719 " fill-opacity="1" fill-rule="nonzero"/><path fill="#6bbfc2" d="M 218.394531 29.792969 C 218.394531 29.785156 212.472656 34.652344 219.699219 41.480469 C 219.699219 41.472656 225.65625 36.945312 218.394531 29.792969 " fill-opacity="1" fill-rule="nonzero"/><path fill="#6bbfc2" d="M 239.96875 84.046875 C 239.96875 84.027344 232.71875 87.160156 238.070312 95.085938 C 238.070312 95.066406 245.269531 92.261719 239.96875 84.046875 " fill-opacity="1" fill-rule="nonzero"/><path fill="#6bbfc2" d="M 247.003906 77.929688 C 247.003906 77.910156 239.765625 80.894531 245.105469 88.890625 C 245.105469 88.871094 252.296875 86.210938 247.003906 77.929688 " fill-opacity="1" fill-rule="nonzero"/><g clip-path="url(#50242e0601)"><path fill="#6bbfc2" d="M 170.433594 1.855469 C 170.433594 1.855469 164.640625 7.234375 171.765625 13.253906 C 171.761719 13.253906 177.59375 8.179688 170.433594 1.855469 " fill-opacity="1" fill-rule="nonzero"/></g><path fill="#6bbfc2" d="M 267.207031 50.140625 C 267.210938 50.105469 257.546875 50.457031 260.75 60.59375 C 260.753906 60.558594 270.257812 60.472656 267.207031 50.140625 " fill-opacity="1" fill-rule="nonzero"/><path fill="#6bbfc2" d="M 273.007812 102.417969 C 273.007812 102.40625 267.339844 106.554688 274.214844 113.507812 C 274.214844 113.492188 279.90625 109.683594 273.007812 102.417969 " fill-opacity="1" fill-rule="nonzero"/><path fill="#6bbfc2" d="M 301.890625 116.308594 C 301.898438 116.296875 293.640625 113.484375 292.625 121.175781 C 292.628906 121.167969 300.675781 123.964844 301.890625 116.308594 " fill-opacity="1" fill-rule="nonzero"/><path fill="#6bbfc2" d="M 293.304688 81.53125 C 293.316406 81.5 283.460938 78.53125 282.902344 87.929688 C 282.910156 87.90625 292.527344 90.882812 293.304688 81.53125 " fill-opacity="1" fill-rule="nonzero"/><path fill="#6bbfc2" d="M 283.644531 66.859375 C 283.652344 66.828125 274.164062 65.644531 275.679688 75.222656 C 275.683594 75.191406 284.972656 76.523438 283.644531 66.859375 " fill-opacity="1" fill-rule="nonzero"/><path fill="#6bbfc2" d="M 298.269531 125.40625 C 298.269531 125.40625 290.621094 120.777344 286.867188 127.296875 C 286.871094 127.296875 294.28125 131.773438 298.269531 125.40625 " fill-opacity="1" fill-rule="nonzero"/><path fill="#6bbfc2" d="M 284.414062 113.957031 C 284.417969 113.929688 276.660156 114.910156 280.0625 123.152344 C 280.066406 123.125 287.707031 122.390625 284.414062 113.957031 " fill-opacity="1" fill-rule="nonzero"/><path fill="#6bbfc2" d="M 254.652344 40.1875 C 254.652344 40.171875 248.398438 43.800781 254.738281 51.25 C 254.738281 51.234375 260.988281 47.945312 254.652344 40.1875 " fill-opacity="1" fill-rule="nonzero"/><path fill="#6bbfc2" d="M 239.308594 28.574219 C 239.308594 28.546875 230.882812 28.179688 232.230469 36.667969 C 232.234375 36.644531 240.488281 37.1875 239.308594 28.574219 " fill-opacity="1" fill-rule="nonzero"/><path fill="#6bbfc2" d="M 275.660156 120.605469 C 275.664062 120.582031 267.882812 121.757812 271.296875 129.976562 C 271.300781 129.953125 278.96875 129.015625 275.660156 120.605469 " fill-opacity="1" fill-rule="nonzero"/><path fill="#6bbfc2" d="M 287.789062 140.988281 C 287.789062 141.011719 282.851562 134.183594 275.207031 137.433594 C 275.207031 137.457031 279.886719 144.007812 287.789062 140.988281 " fill-opacity="1" fill-rule="nonzero"/><path fill="#6bbfc2" d="M 281.085938 147.429688 C 281.085938 147.453125 277.972656 140.15625 269.183594 141.539062 C 269.183594 141.566406 272.054688 148.578125 281.085938 147.429688 " fill-opacity="1" fill-rule="nonzero"/><path fill="#6bbfc2" d="M 266.972656 159.355469 C 266.96875 159.375 263.835938 152.113281 255.019531 153.820312 C 255.019531 153.839844 257.898438 160.839844 266.972656 159.355469 " fill-opacity="1" fill-rule="nonzero"/><path fill="#6bbfc2" d="M 280.679688 161.570312 C 280.675781 161.589844 277.566406 154.339844 268.777344 155.828125 C 268.777344 155.851562 271.648438 162.839844 280.679688 161.570312 " fill-opacity="1" fill-rule="nonzero"/><path fill="#6bbfc2" d="M 293.308594 144.21875 C 293.3125 144.203125 284.988281 142.65625 285.152344 150.722656 C 285.152344 150.703125 293.285156 152.320312 293.308594 144.21875 " fill-opacity="1" fill-rule="nonzero"/><path fill="#6bbfc2" d="M 295.394531 157.816406 C 295.394531 157.832031 289.164062 151.816406 282.871094 156.589844 C 282.871094 156.605469 288.839844 162.386719 295.394531 157.816406 " fill-opacity="1" fill-rule="nonzero"/><path fill="#6bbfc2" d="M 293.734375 132.972656 C 293.738281 132.976562 286.75 127.511719 281.5625 133.152344 C 281.5625 133.164062 288.296875 138.421875 293.734375 132.972656 " fill-opacity="1" fill-rule="nonzero"/><path fill="#6bbfc2" d="M 243.496094 139.113281 C 243.496094 139.128906 238.964844 132.277344 230.867188 135.726562 C 230.867188 135.746094 235.128906 142.347656 243.496094 139.113281 " fill-opacity="1" fill-rule="nonzero"/><path fill="#6bbfc2" d="M 252.425781 136.558594 C 252.425781 136.578125 247.925781 129.671875 239.824219 132.949219 C 239.824219 132.96875 244.058594 139.613281 252.425781 136.558594 " fill-opacity="1" fill-rule="nonzero"/><path fill="#6bbfc2" d="M 259.683594 132.082031 C 259.683594 132.097656 255.613281 125.796875 248.273438 128.625 C 248.273438 128.648438 252.105469 134.714844 259.683594 132.082031 " fill-opacity="1" fill-rule="nonzero"/><path fill="#6bbfc2" d="M 262.53125 125.210938 C 262.53125 125.214844 257.859375 121.574219 254.121094 125.503906 C 254.125 125.507812 258.609375 129.0625 262.53125 125.210938 " fill-opacity="1" fill-rule="nonzero"/><path fill="#6bbfc2" d="M 242.914062 114.921875 C 242.914062 114.886719 233.414062 117.859375 238.78125 127.929688 C 238.78125 127.898438 248.171875 125.304688 242.914062 114.921875 " fill-opacity="1" fill-rule="nonzero"/><path fill="#6bbfc2" d="M 250.832031 112.386719 C 250.832031 112.363281 243.179688 114.746094 247.679688 122.941406 C 247.679688 122.921875 255.25 120.832031 250.832031 112.386719 " fill-opacity="1" fill-rule="nonzero"/><path fill="#6bbfc2" d="M 232.921875 118.246094 C 232.921875 118.226562 225.242188 120.910156 229.769531 129.027344 C 229.769531 129.007812 237.367188 126.621094 232.921875 118.246094 " fill-opacity="1" fill-rule="nonzero"/><path fill="#6bbfc2" d="M 200.148438 61.761719 C 200.144531 61.757812 194.230469 66.953125 201.46875 73.460938 C 201.464844 73.453125 207.417969 68.585938 200.148438 61.761719 " fill-opacity="1" fill-rule="nonzero"/><path fill="#6bbfc2" d="M 184.375 78.800781 C 184.371094 78.796875 178.464844 84.21875 185.710938 90.5 C 185.710938 90.496094 191.65625 85.394531 184.375 78.800781 " fill-opacity="1" fill-rule="nonzero"/><path fill="#6bbfc2" d="M 204.980469 49.523438 C 204.976562 49.515625 197.378906 56.214844 206.84375 64.695312 C 206.839844 64.683594 214.492188 58.433594 204.980469 49.523438 " fill-opacity="1" fill-rule="nonzero"/><path fill="#6bbfc2" d="M 207.878906 77.742188 C 207.882812 77.746094 216.785156 84.171875 224.085938 76.5 C 224.089844 76.503906 215.582031 69.726562 207.878906 77.742188 " fill-opacity="1" fill-rule="nonzero"/><path fill="#6bbfc2" d="M 186.117188 128.546875 C 186.121094 128.496094 200.65625 126.113281 196.730469 111.476562 C 196.734375 111.417969 182.421875 113.460938 186.117188 128.546875 " fill-opacity="1" fill-rule="nonzero"/><path fill="#6bbfc2" d="M 249.765625 88.933594 C 249.773438 88.890625 264.386719 93.769531 267.453125 80.457031 C 267.46875 80.417969 253.273438 74.957031 249.765625 88.933594 " fill-opacity="1" fill-rule="nonzero"/><path fill="#6bbfc2" d="M 261.238281 75.773438 C 261.253906 75.695312 275.898438 77.261719 273.859375 62.726562 C 273.867188 62.652344 259.488281 60.683594 261.238281 75.773438 " fill-opacity="1" fill-rule="nonzero"/><path fill="#6bbfc2" d="M 255.609375 121.46875 C 255.617188 121.402344 269.765625 120.21875 265.097656 105.644531 C 265.109375 105.578125 251.152344 106.414062 255.609375 121.46875 " fill-opacity="1" fill-rule="nonzero"/><path fill="#6bbfc2" d="M 278.808594 112.621094 C 278.816406 112.582031 289.210938 112.261719 285.789062 101.476562 C 285.796875 101.4375 275.546875 101.503906 278.808594 112.621094 " fill-opacity="1" fill-rule="nonzero"/><path fill="#6bbfc2" d="M 260.046875 103.992188 C 260.050781 103.953125 270.519531 103.265625 267.070312 92.425781 C 267.074219 92.386719 256.75 92.824219 260.046875 103.992188 " fill-opacity="1" fill-rule="nonzero"/><path fill="#6bbfc2" d="M 292.703125 113.1875 C 292.714844 113.113281 305.082031 110.941406 298.003906 97.183594 C 298.011719 97.113281 285.730469 99.0625 292.703125 113.1875 " fill-opacity="1" fill-rule="nonzero"/><path fill="#6bbfc2" d="M 242.785156 54.667969 C 242.785156 54.621094 253.9375 49.101562 244.054688 36.230469 C 244.054688 36.1875 232.917969 41.496094 242.785156 54.667969 " fill-opacity="1" fill-rule="nonzero"/><path fill="#6bbfc2" d="M 190.546875 21.605469 C 190.546875 21.566406 201.007812 19.988281 197.875 9.429688 C 197.878906 9.390625 187.574219 10.746094 190.546875 21.605469 " fill-opacity="1" fill-rule="nonzero"/><path fill="#6bbfc2" d="M 218.402344 27.007812 C 218.394531 27.015625 223.460938 19.410156 212.757812 12.890625 C 212.753906 12.902344 207.578125 20.207031 218.402344 27.007812 " fill-opacity="1" fill-rule="nonzero"/><path fill="#6bbfc2" d="M 225.433594 77.554688 C 225.441406 77.511719 240.167969 81.8125 243.25 68.128906 C 243.257812 68.082031 228.9375 63.230469 225.433594 77.554688 " fill-opacity="1" fill-rule="nonzero"/><path fill="#6bbfc2" d="M 213.253906 68.238281 C 213.253906 68.242188 221.5 74.300781 228.265625 67.296875 C 228.269531 67.304688 220.386719 60.933594 213.253906 68.238281 " fill-opacity="1" fill-rule="nonzero"/><path fill="#6bbfc2" d="M 218.992188 59.859375 C 218.996094 59.851562 228.015625 65.035156 233.351562 57.164062 C 233.351562 57.164062 224.675781 51.652344 218.992188 59.859375 " fill-opacity="1" fill-rule="nonzero"/><path fill="#6bbfc2" d="M 244.457031 55.789062 C 244.460938 55.753906 234.53125 55.691406 236.539062 65.761719 C 236.542969 65.726562 246.273438 66.015625 244.457031 55.789062 " fill-opacity="1" fill-rule="nonzero"/><path fill="#6bbfc2" d="M 269.511719 90.683594 C 269.523438 90.613281 283.96875 92.449219 281.808594 78.199219 C 281.820312 78.128906 267.640625 75.890625 269.511719 90.683594 " fill-opacity="1" fill-rule="nonzero"/><path fill="#6bbfc2" d="M 273.359375 99.457031 C 273.367188 99.425781 287.21875 104.625 289.753906 92.148438 C 289.765625 92.117188 276.316406 86.363281 273.359375 99.457031 " fill-opacity="1" fill-rule="nonzero"/><path fill="#6bbfc2" d="M 223.320312 51.546875 C 223.324219 51.539062 232.34375 56.828125 237.675781 49.050781 C 237.679688 49.046875 229.007812 43.433594 223.320312 51.546875 " fill-opacity="1" fill-rule="nonzero"/><path fill="#6bbfc2" d="M 197.824219 128.980469 C 197.824219 128.96875 189.261719 127.183594 187.507812 135.59375 C 187.511719 135.585938 195.824219 137.457031 197.824219 128.980469 " fill-opacity="1" fill-rule="nonzero"/><path fill="#6bbfc2" d="M 184.441406 152.742188 C 184.445312 152.726562 194.503906 155.148438 197.195312 145.386719 C 197.195312 145.363281 187.421875 142.664062 184.441406 152.742188 " fill-opacity="1" fill-rule="nonzero"/><path fill="#6bbfc2" d="M 184.851562 160.667969 C 184.855469 160.65625 194.730469 164.503906 199.277344 155.03125 C 199.277344 155.027344 189.726562 150.886719 184.851562 160.667969 " fill-opacity="1" fill-rule="nonzero"/><path fill="#6bbfc2" d="M 185.71875 143.457031 C 185.722656 143.441406 194.339844 145.515625 196.59375 137.152344 C 196.597656 137.136719 188.226562 134.839844 185.71875 143.457031 " fill-opacity="1" fill-rule="nonzero"/><path fill="#6bbfc2" d="M 236.40625 81.40625 C 236.410156 81.394531 228.558594 77.28125 224.640625 84.472656 C 224.644531 84.464844 232.222656 88.488281 236.40625 81.40625 " fill-opacity="1" fill-rule="nonzero"/><path fill="#6bbfc2" d="M 222.769531 92.941406 C 222.773438 92.941406 230.453125 97.417969 235.148438 90.652344 C 235.152344 90.652344 227.765625 85.9375 222.769531 92.941406 " fill-opacity="1" fill-rule="nonzero"/><path fill="#6bbfc2" d="M 243.554688 95.921875 C 243.554688 95.921875 251.195312 100.640625 255.867188 94.15625 C 255.871094 94.160156 248.535156 89.191406 243.554688 95.921875 " fill-opacity="1" fill-rule="nonzero"/><path fill="#6bbfc2" d="M 239.984375 101.839844 C 239.988281 101.847656 247.027344 107.230469 252.785156 101.449219 C 252.785156 101.453125 246.058594 95.847656 239.984375 101.839844 " fill-opacity="1" fill-rule="nonzero"/><path fill="#6bbfc2" d="M 235.683594 109.011719 C 235.6875 109.015625 242.734375 114.328125 248.488281 108.453125 C 248.492188 108.457031 241.757812 102.929688 235.683594 109.011719 " fill-opacity="1" fill-rule="nonzero"/><path fill="#6bbfc2" d="M 204.761719 102.945312 C 204.761719 102.960938 204.457031 110.519531 214.25 111.835938 C 214.246094 111.855469 214.792969 104.414062 204.761719 102.945312 " fill-opacity="1" fill-rule="nonzero"/><path fill="#6bbfc2" d="M 203.769531 112.078125 C 203.765625 112.101562 203.40625 121.078125 215.03125 122.601562 C 215.027344 122.625 215.679688 113.773438 203.769531 112.078125 " fill-opacity="1" fill-rule="nonzero"/><path fill="#6bbfc2" d="M 220.324219 102.433594 C 220.328125 102.421875 228.683594 105.476562 231.503906 97.722656 C 231.507812 97.714844 223.40625 94.417969 220.324219 102.433594 " fill-opacity="1" fill-rule="nonzero"/><g clip-path="url(#3be9fa90bd)"><path fill="#6bbfc2" d="M 0.636719 128.550781 C 0.660156 128.632812 0.507812 142.320312 19.160156 140.042969 C 19.179688 140.136719 19.617188 125.804688 0.636719 128.550781 " fill-opacity="1" fill-rule="nonzero"/></g><path fill="#6bbfc2" d="M 47.339844 63.527344 C 47.335938 63.550781 35.589844 75.394531 46.140625 85.910156 C 46.140625 85.933594 57.890625 74.671875 47.339844 63.527344 " fill-opacity="1" fill-rule="nonzero"/><path fill="#6bbfc2" d="M 253.433594 53.882812 C 253.433594 53.820312 241.421875 60.765625 251.859375 75.667969 C 251.859375 75.601562 263.816406 69.429688 253.433594 53.882812 " fill-opacity="1" fill-rule="nonzero"/><path fill="#6bbfc2" d="M 206.816406 18.816406 C 206.808594 18.769531 194.664062 26.949219 205.292969 41.253906 C 205.289062 41.207031 217.398438 33.785156 206.816406 18.816406 " fill-opacity="1" fill-rule="nonzero"/><path fill="#6bbfc2" d="M 71.460938 38.011719 C 71.460938 38.011719 64.386719 44.371094 70.0625 51.023438 C 70.058594 51.023438 77.109375 45.015625 71.460938 38.011719 " fill-opacity="1" fill-rule="nonzero"/><path fill="#6bbfc2" d="M 71.65625 31.53125 C 71.660156 31.558594 70.207031 39.632812 80.300781 40.496094 C 80.300781 40.53125 81.945312 32.460938 71.65625 31.53125 " fill-opacity="1" fill-rule="nonzero"/><path fill="#6bbfc2" d="M 84.074219 21.53125 C 84.074219 21.578125 75.148438 34.578125 89.199219 42.957031 C 89.199219 43.003906 98.269531 30.394531 84.074219 21.53125 " fill-opacity="1" fill-rule="nonzero"/><path fill="#6bbfc2" d="M 13.183594 94.84375 C 13.199219 94.886719 15.132812 105.054688 29.816406 101.105469 C 29.828125 101.160156 28.171875 90.519531 13.183594 94.84375 " fill-opacity="1" fill-rule="nonzero"/><path fill="#6bbfc2" d="M 68.953125 112.183594 C 68.960938 112.226562 68.425781 123.082031 82.519531 123.355469 C 82.527344 123.398438 83.351562 112.421875 68.953125 112.183594 " fill-opacity="1" fill-rule="nonzero"/><path fill="#6bbfc2" d="M 58.542969 40.753906 C 58.539062 40.804688 48 54.265625 61.433594 63.539062 C 61.429688 63.589844 72.070312 50.589844 58.542969 40.753906 " fill-opacity="1" fill-rule="nonzero"/><path fill="#6bbfc2" d="M 3.144531 147.21875 C 3.15625 147.242188 8.644531 158.929688 27.015625 151.609375 C 27.035156 151.648438 21.917969 139.191406 3.144531 147.21875 " fill-opacity="1" fill-rule="nonzero"/><path fill="#6bbfc2" d="M 24.449219 124.367188 C 24.460938 124.457031 17.839844 138.753906 34.195312 143.738281 C 34.203125 143.824219 41.023438 129.503906 24.449219 124.367188 " fill-opacity="1" fill-rule="nonzero"/><path fill="#6bbfc2" d="M 78.171875 134.640625 C 78.175781 134.660156 80.617188 143.414062 92.355469 139.972656 C 92.359375 139.996094 90.222656 131.089844 78.171875 134.640625 " fill-opacity="1" fill-rule="nonzero"/><path fill="#6bbfc2" d="M 80.125 68.746094 C 80.121094 68.75 71.484375 76.125 79.242188 83.605469 C 79.238281 83.609375 87.871094 76.632812 80.125 68.746094 " fill-opacity="1" fill-rule="nonzero"/><path fill="#6bbfc2" d="M 72.136719 153.09375 C 72.140625 153.113281 68.679688 142.878906 55.164062 148.125 C 55.167969 148.148438 58.183594 157.882812 72.136719 153.09375 " fill-opacity="1" fill-rule="nonzero"/><path fill="#6bbfc2" d="M 73.699219 61.605469 C 73.695312 61.605469 66.171875 67.675781 72.316406 74.15625 C 72.3125 74.15625 79.816406 68.421875 73.699219 61.605469 " fill-opacity="1" fill-rule="nonzero"/><path fill="#6bbfc2" d="M 89.046875 52.257812 C 89.054688 52.28125 85.574219 43.714844 74.105469 48.863281 C 74.109375 48.890625 77.203125 57 89.046875 52.257812 " fill-opacity="1" fill-rule="nonzero"/><path fill="#6bbfc2" d="M 95.167969 62.425781 C 95.171875 62.449219 91.691406 53.8125 80.210938 58.765625 C 80.214844 58.792969 83.308594 66.988281 95.167969 62.425781 " fill-opacity="1" fill-rule="nonzero"/><path fill="#6bbfc2" d="M 101.570312 70.015625 C 101.574219 70.027344 99.140625 63.941406 91.070312 67.222656 C 91.074219 67.230469 93.246094 73.082031 101.570312 70.015625 " fill-opacity="1" fill-rule="nonzero"/><path fill="#6bbfc2" d="M 109.1875 66.445312 C 109.183594 66.445312 114.859375 61.5625 109.292969 56.375 C 109.289062 56.375 103.621094 61.050781 109.1875 66.445312 " fill-opacity="1" fill-rule="nonzero"/><path fill="#6bbfc2" d="M 118.496094 107.042969 C 118.496094 107.042969 124.160156 102.300781 118.609375 96.957031 C 118.609375 96.957031 112.949219 101.488281 118.496094 107.042969 " fill-opacity="1" fill-rule="nonzero"/><path fill="#6bbfc2" d="M 214.761719 131.582031 C 214.761719 131.59375 215.941406 125.15625 207.585938 123.21875 C 207.585938 123.226562 206.253906 129.429688 214.761719 131.582031 " fill-opacity="1" fill-rule="nonzero"/><path fill="#6bbfc2" d="M 108.917969 77.003906 C 108.917969 77.015625 106.492188 70.878906 98.414062 74.023438 C 98.414062 74.039062 100.585938 79.941406 108.917969 77.003906 " fill-opacity="1" fill-rule="nonzero"/><path fill="#6bbfc2" d="M 98.558594 53.976562 C 98.558594 53.980469 103.253906 48.914062 97.480469 44.875 C 97.476562 44.878906 92.765625 49.738281 98.558594 53.976562 " fill-opacity="1" fill-rule="nonzero"/><path fill="#6bbfc2" d="M 104.621094 81.816406 C 104.621094 81.820312 107.992188 86.859375 114.917969 83.089844 C 114.921875 83.101562 111.785156 77.957031 104.621094 81.816406 " fill-opacity="1" fill-rule="nonzero"/><path fill="#6bbfc2" d="M 102.835938 59.988281 C 102.832031 59.984375 108.765625 56.164062 104.671875 50.660156 C 104.671875 50.65625 98.785156 54.296875 102.835938 59.988281 " fill-opacity="1" fill-rule="nonzero"/><path fill="#6bbfc2" d="M 58.429688 97.621094 C 58.421875 97.613281 49.015625 102.773438 53.375 111.265625 C 53.367188 111.257812 62.667969 106.507812 58.429688 97.621094 " fill-opacity="1" fill-rule="nonzero"/><path fill="#6bbfc2" d="M 63.0625 106.648438 C 63.058594 106.636719 53.640625 111.671875 58 120.253906 C 57.992188 120.246094 67.304688 115.617188 63.0625 106.648438 " fill-opacity="1" fill-rule="nonzero"/><path fill="#6bbfc2" d="M 64.9375 117.203125 C 64.9375 117.203125 58.175781 122.503906 63.585938 128.40625 C 63.585938 128.410156 70.324219 123.398438 64.9375 117.203125 " fill-opacity="1" fill-rule="nonzero"/><path fill="#6bbfc2" d="M 35.71875 157.175781 C 35.722656 157.175781 31.398438 151.816406 23.441406 157.496094 C 23.441406 157.492188 27.441406 162.710938 35.71875 157.175781 " fill-opacity="1" fill-rule="nonzero"/><path fill="#6bbfc2" d="M 57.210938 166.0625 C 57.214844 166.058594 52.867188 160.433594 44.851562 165.839844 C 44.855469 165.839844 48.882812 171.320312 57.210938 166.0625 " fill-opacity="1" fill-rule="nonzero"/><path fill="#6bbfc2" d="M 43.351562 151.414062 C 43.351562 151.429688 46.921875 144.261719 38.558594 142.171875 C 38.5625 142.191406 34.875 149.050781 43.351562 151.414062 " fill-opacity="1" fill-rule="nonzero"/><path fill="#6bbfc2" d="M 52.070312 155.050781 C 52.070312 155.066406 55.65625 147.921875 47.269531 145.664062 C 47.273438 145.6875 43.574219 152.519531 52.070312 155.050781 " fill-opacity="1" fill-rule="nonzero"/><path fill="#6bbfc2" d="M 54.527344 134.300781 C 54.53125 134.308594 50.578125 126.667969 39.980469 132.378906 C 39.988281 132.386719 43.550781 139.707031 54.527344 134.300781 " fill-opacity="1" fill-rule="nonzero"/><path fill="#6bbfc2" d="M 54.648438 88.101562 C 54.644531 88.097656 46.777344 92.824219 50.828125 99.800781 C 50.824219 99.796875 58.613281 95.410156 54.648438 88.101562 " fill-opacity="1" fill-rule="nonzero"/><path fill="#6bbfc2" d="M 81.988281 158.886719 C 81.992188 158.886719 77.625 153.464844 70.097656 158.605469 C 70.101562 158.605469 74.171875 163.890625 81.988281 158.886719 " fill-opacity="1" fill-rule="nonzero"/><path fill="#6bbfc2" d="M 81.203125 210.535156 C 81.207031 210.535156 76.851562 205.03125 69.351562 209.980469 C 69.355469 209.976562 73.417969 215.371094 81.203125 210.535156 " fill-opacity="1" fill-rule="nonzero"/><path fill="#6bbfc2" d="M 24.566406 115.960938 C 24.570312 115.980469 25.714844 123.003906 35.347656 119.96875 C 35.355469 119.992188 34.421875 112.828125 24.566406 115.960938 " fill-opacity="1" fill-rule="nonzero"/><path fill="#6bbfc2" d="M 70.9375 52.21875 C 70.933594 52.207031 62.472656 56.769531 66.308594 64.4375 C 66.304688 64.425781 74.664062 60.234375 70.9375 52.21875 " fill-opacity="1" fill-rule="nonzero"/><path fill="#6bbfc2" d="M 125.882812 161.160156 C 125.882812 161.160156 119.144531 154.804688 110.671875 161.949219 C 110.671875 161.949219 117.039062 168.144531 125.882812 161.160156 " fill-opacity="1" fill-rule="nonzero"/><path fill="#6bbfc2" d="M 84.03125 173.421875 C 84.03125 173.421875 76.375 178.515625 81.84375 185.652344 C 81.84375 185.65625 89.453125 180.878906 84.03125 173.421875 " fill-opacity="1" fill-rule="nonzero"/><path fill="#6bbfc2" d="M 92.484375 175.871094 C 92.484375 175.871094 86.574219 179.734375 90.792969 185.304688 C 90.789062 185.304688 96.664062 181.683594 92.484375 175.871094 " fill-opacity="1" fill-rule="nonzero"/><path fill="#6bbfc2" d="M 149.910156 123.851562 C 149.90625 123.839844 141.363281 127.046875 145.171875 135.527344 C 145.167969 135.511719 153.601562 132.625 149.910156 123.851562 " fill-opacity="1" fill-rule="nonzero"/><path fill="#6bbfc2" d="M 72.507812 126.714844 C 72.511719 126.722656 75.628906 133.371094 84.800781 129.355469 C 84.804688 129.363281 81.949219 122.582031 72.507812 126.714844 " fill-opacity="1" fill-rule="nonzero"/><path fill="#6bbfc2" d="M 88.230469 144.839844 C 88.230469 144.851562 92.367188 153.617188 104.246094 148.730469 C 104.25 148.75 100.464844 139.78125 88.230469 144.839844 " fill-opacity="1" fill-rule="nonzero"/><path fill="#6bbfc2" d="M 99.242188 154.109375 C 99.246094 154.117188 104.933594 162.234375 116 156.058594 C 116.003906 156.070312 110.679688 147.726562 99.242188 154.109375 " fill-opacity="1" fill-rule="nonzero"/><path fill="#6bbfc2" d="M 126.617188 151.304688 C 126.613281 151.308594 134.324219 144.210938 125.800781 136.792969 C 125.796875 136.796875 118.078125 143.585938 126.617188 151.304688 " fill-opacity="1" fill-rule="nonzero"/><path fill="#6bbfc2" d="M 114.710938 145.726562 C 114.707031 145.738281 121.515625 137.757812 111.988281 131.488281 C 111.988281 131.5 105.132812 139.136719 114.710938 145.726562 " fill-opacity="1" fill-rule="nonzero"/><path fill="#6bbfc2" d="M 103.894531 138.277344 C 103.894531 138.289062 110.261719 131.199219 101.949219 125.453125 C 101.949219 125.464844 95.546875 132.25 103.894531 138.277344 " fill-opacity="1" fill-rule="nonzero"/><path fill="#6bbfc2" d="M 93.636719 130.984375 C 93.636719 131 99.585938 123.546875 90.910156 118.429688 C 90.910156 118.445312 84.90625 125.578125 93.636719 130.984375 " fill-opacity="1" fill-rule="nonzero"/><path fill="#6bbfc2" d="M 110.429688 103.539062 C 110.425781 103.550781 118.171875 94.957031 108.058594 87.96875 C 108.058594 87.980469 100.269531 96.21875 110.429688 103.539062 " fill-opacity="1" fill-rule="nonzero"/><path fill="#6bbfc2" d="M 97.835938 96.09375 C 97.832031 96.097656 106.164062 88.375 97.4375 80.917969 C 97.4375 80.921875 89.109375 88.328125 97.835938 96.09375 " fill-opacity="1" fill-rule="nonzero"/><path fill="#6bbfc2" d="M 87.601562 89.054688 C 87.597656 89.054688 95.945312 82.601562 89.035156 75.109375 C 89.03125 75.109375 80.730469 81.292969 87.601562 89.054688 " fill-opacity="1" fill-rule="nonzero"/><path fill="#6bbfc2" d="M 281.863281 164.863281 C 281.859375 164.902344 285.480469 174.910156 272.929688 175.359375 C 272.925781 175.398438 269.113281 165.367188 281.863281 164.863281 " fill-opacity="1" fill-rule="nonzero"/><path fill="#6bbfc2" d="M 292.882812 163.449219 C 292.878906 163.476562 296.339844 171.898438 285.984375 172.449219 C 285.980469 172.476562 282.371094 164.074219 292.882812 163.449219 " fill-opacity="1" fill-rule="nonzero"/><path fill="#6bbfc2" d="M 301.777344 159.238281 C 301.777344 159.265625 307.21875 167.269531 298.355469 169.78125 C 298.351562 169.8125 292.828125 161.933594 301.777344 159.238281 " fill-opacity="1" fill-rule="nonzero"/><path fill="#6bbfc2" d="M 229.847656 170.183594 C 229.84375 170.21875 228.230469 159.175781 242.367188 160.324219 C 242.363281 160.363281 244.277344 170.871094 229.847656 170.183594 " fill-opacity="1" fill-rule="nonzero"/><path fill="#6bbfc2" d="M 246.703125 173.753906 C 246.695312 173.792969 243.855469 163.1875 257.097656 163.28125 C 257.09375 163.324219 260.183594 173.40625 246.703125 173.753906 " fill-opacity="1" fill-rule="nonzero"/><path fill="#6bbfc2" d="M 261.1875 174.867188 C 261.1875 174.902344 257.398438 165.320312 269.007812 164.40625 C 269.003906 164.441406 272.976562 173.570312 261.1875 174.867188 " fill-opacity="1" fill-rule="nonzero"/><path fill="#6bbfc2" d="M 98.132812 121.445312 C 98.132812 121.429688 107.90625 127.386719 116.769531 117.230469 C 116.773438 117.21875 107.394531 110.902344 98.132812 121.445312 " fill-opacity="1" fill-rule="nonzero"/><path fill="#6bbfc2" d="M 85.058594 115.121094 C 85.058594 115.101562 94.816406 120.796875 103.664062 110.460938 C 103.664062 110.445312 94.292969 104.386719 85.058594 115.121094 " fill-opacity="1" fill-rule="nonzero"/><path fill="#6bbfc2" d="M 45.296875 140.859375 C 45.300781 140.859375 50.371094 148.402344 61.394531 141.917969 C 61.398438 141.925781 56.648438 134.113281 45.296875 140.859375 " fill-opacity="1" fill-rule="nonzero"/><path fill="#6bbfc2" d="M 31.15625 162.871094 C 31.15625 162.855469 38.148438 168.855469 47.675781 160.605469 C 47.679688 160.597656 41.015625 154.34375 31.15625 162.871094 " fill-opacity="1" fill-rule="nonzero"/><g clip-path="url(#ab85d56df5)"><path fill="#6bbfc2" d="M 0.933594 161.550781 C 0.933594 161.527344 7.839844 166.976562 17.269531 158.398438 C 17.269531 158.378906 10.671875 152.667969 0.933594 161.550781 " fill-opacity="1" fill-rule="nonzero"/></g><path fill="#6bbfc2" d="M 77.535156 107.371094 C 77.539062 107.359375 85 111.570312 91.753906 103.527344 C 91.753906 103.515625 84.589844 99.0625 77.535156 107.371094 " fill-opacity="1" fill-rule="nonzero"/><path fill="#6bbfc2" d="M 67.007812 98.878906 C 67.011719 98.878906 72.933594 104.824219 81.898438 97.90625 C 81.902344 97.90625 76.28125 91.699219 67.007812 98.878906 " fill-opacity="1" fill-rule="nonzero"/><path fill="#6bbfc2" d="M 51.34375 190.179688 C 51.347656 190.203125 49.65625 199.800781 61.851562 200.214844 C 61.855469 200.242188 63.777344 190.652344 51.34375 190.179688 " fill-opacity="1" fill-rule="nonzero"/><path fill="#6bbfc2" d="M 97.6875 197.324219 C 97.6875 197.339844 99.449219 189.128906 89.277344 188.070312 C 89.28125 188.089844 87.324219 195.960938 97.6875 197.324219 " fill-opacity="1" fill-rule="nonzero"/><path fill="#6bbfc2" d="M 56.882812 205.410156 C 56.886719 205.398438 50.449219 200.683594 43.363281 207.835938 C 43.363281 207.820312 49.460938 212.511719 56.882812 205.410156 " fill-opacity="1" fill-rule="nonzero"/><path fill="#6bbfc2" d="M 113.792969 190.414062 C 113.789062 190.425781 117.429688 184.402344 110.109375 181.09375 C 110.109375 181.105469 106.386719 186.878906 113.792969 190.414062 " fill-opacity="1" fill-rule="nonzero"/><path fill="#6bbfc2" d="M 87.261719 199.535156 C 87.261719 199.558594 89.304688 190.109375 77.621094 189.042969 C 77.621094 189.066406 75.355469 198.097656 87.261719 199.535156 " fill-opacity="1" fill-rule="nonzero"/><path fill="#6bbfc2" d="M 75.09375 200.746094 C 75.09375 200.773438 77.058594 191.59375 65.710938 190.742188 C 65.714844 190.765625 63.527344 199.53125 75.09375 200.746094 " fill-opacity="1" fill-rule="nonzero"/><path fill="#6bbfc2" d="M 99.625 184.148438 C 99.625 184.164062 97.402344 191.878906 107.042969 193.625 C 107.042969 193.640625 109.449219 186.046875 99.625 184.148438 " fill-opacity="1" fill-rule="nonzero"/><path fill="#6bbfc2" d="M 36.8125 120.363281 C 36.816406 120.394531 37.75 130.011719 50.6875 126.964844 C 50.695312 126.996094 50.039062 117.15625 36.8125 120.363281 " fill-opacity="1" fill-rule="nonzero"/><path fill="#6bbfc2" d="M 34.457031 110.648438 C 34.464844 110.679688 35.699219 119.625 47.867188 116.261719 C 47.875 116.289062 46.902344 107.117188 34.457031 110.648438 " fill-opacity="1" fill-rule="nonzero"/><path fill="#6bbfc2" d="M 33.082031 100.558594 C 33.085938 100.582031 34.195312 108.617188 45.128906 105.453125 C 45.132812 105.480469 44.261719 97.265625 33.082031 100.558594 " fill-opacity="1" fill-rule="nonzero"/><path fill="#6bbfc2" d="M 36.554688 87.75 C 36.558594 87.765625 34.472656 94.472656 42.632812 94.859375 C 42.636719 94.882812 44.851562 88.214844 36.554688 87.75 " fill-opacity="1" fill-rule="nonzero"/><path fill="#6bbfc2" d="M 8.234375 109.222656 C 8.238281 109.230469 10.269531 114.78125 18.398438 110.839844 C 18.402344 110.847656 16.5625 105.148438 8.234375 109.222656 " fill-opacity="1" fill-rule="nonzero"/><path fill="#6bbfc2" d="M 59.523438 91.71875 C 59.523438 91.714844 65.441406 97.527344 74.386719 90.472656 C 74.390625 90.472656 68.773438 84.386719 59.523438 91.71875 " fill-opacity="1" fill-rule="nonzero"/><path fill="#6bbfc2" d="M 54.835938 80.554688 C 54.839844 80.574219 57.289062 88.308594 68.058594 84.230469 C 68.066406 84.253906 65.878906 76.300781 54.835938 80.554688 " fill-opacity="1" fill-rule="nonzero"/><path fill="#6bbfc2" d="M 22.15625 78.644531 C 22.167969 78.710938 17.265625 90.691406 31.4375 92.160156 C 31.449219 92.230469 36.535156 80.1875 22.15625 78.644531 " fill-opacity="1" fill-rule="nonzero"/><path fill="#6bbfc2" d="M 33.414062 65.164062 C 33.417969 65.195312 26.320312 74.824219 36.550781 79.402344 C 36.550781 79.4375 43.726562 70.050781 33.414062 65.164062 " fill-opacity="1" fill-rule="nonzero"/><path fill="#6bbfc2" d="M 53.492188 71.171875 C 53.496094 71.1875 54.675781 77.679688 63.484375 75.03125 C 63.488281 75.046875 62.515625 68.449219 53.492188 71.171875 " fill-opacity="1" fill-rule="nonzero"/><path fill="#6bbfc2" d="M 224.640625 194.089844 C 224.636719 194.097656 227.15625 187.824219 237.089844 191.425781 C 237.089844 191.433594 234.871094 197.488281 224.640625 194.089844 " fill-opacity="1" fill-rule="nonzero"/><path fill="#6bbfc2" d="M 232.257812 201.875 C 232.257812 201.890625 232.195312 195.058594 242.578125 195.6875 C 242.574219 195.703125 242.886719 202.226562 232.257812 201.875 " fill-opacity="1" fill-rule="nonzero"/><path fill="#6bbfc2" d="M 242.59375 203.601562 C 242.59375 203.617188 241.046875 196.824219 251.132812 195.792969 C 251.132812 195.8125 252.886719 202.277344 242.59375 203.601562 " fill-opacity="1" fill-rule="nonzero"/><path fill="#6bbfc2" d="M 253.320312 204.550781 C 253.316406 204.570312 250.667969 197.953125 260.269531 195.722656 C 260.269531 195.746094 263.085938 202.023438 253.320312 204.550781 " fill-opacity="1" fill-rule="nonzero"/><path fill="#6bbfc2" d="M 263.765625 203.1875 C 263.765625 203.210938 261.96875 196.476562 271.929688 195.445312 C 271.925781 195.46875 273.921875 201.859375 263.765625 203.1875 " fill-opacity="1" fill-rule="nonzero"/><path fill="#6bbfc2" d="M 273.851562 204.089844 C 273.84375 204.117188 272.957031 195.789062 285.582031 196.332031 C 285.578125 196.367188 286.761719 204.222656 273.851562 204.089844 " fill-opacity="1" fill-rule="nonzero"/><path fill="#6bbfc2" d="M 248.820312 224.792969 C 248.820312 224.757812 258.640625 219.585938 268.449219 231.738281 C 268.445312 231.703125 259.128906 237 248.820312 224.792969 " fill-opacity="1" fill-rule="nonzero"/><path fill="#6bbfc2" d="M 215.839844 191.824219 C 215.84375 191.835938 211.820312 184.160156 220.570312 178.464844 C 220.574219 178.484375 224.695312 185.773438 215.839844 191.824219 " fill-opacity="1" fill-rule="nonzero"/><path fill="#6bbfc2" d="M 207.933594 196.519531 C 207.933594 196.523438 202.046875 190.566406 208.605469 181.863281 C 208.605469 181.867188 214.5 187.480469 207.933594 196.519531 " fill-opacity="1" fill-rule="nonzero"/><path fill="#6bbfc2" d="M 245.445312 190.476562 C 245.449219 190.453125 234.375 190.550781 234.957031 179.21875 C 234.960938 179.191406 245.804688 178.9375 245.445312 190.476562 " fill-opacity="1" fill-rule="nonzero"/><path fill="#6bbfc2" d="M 259.277344 191.609375 C 259.285156 191.585938 248.234375 191.480469 248.828125 180.25 C 248.832031 180.222656 259.644531 180.1875 259.277344 191.609375 " fill-opacity="1" fill-rule="nonzero"/><g clip-path="url(#1dc3043ba9)"><path fill="#6bbfc2" d="M 315.652344 161.453125 C 315.648438 161.492188 318.984375 170.835938 306.335938 169.601562 C 306.328125 169.644531 302.8125 160.175781 315.652344 161.453125 " fill-opacity="1" fill-rule="nonzero"/></g><path fill="#6bbfc2" d="M 313.03125 144.425781 C 313.015625 144.488281 314.695312 156.902344 297.472656 152.316406 C 297.457031 152.382812 295.511719 139.515625 313.03125 144.425781 " fill-opacity="1" fill-rule="nonzero"/><path fill="#6bbfc2" d="M 270.09375 190.886719 C 270.097656 190.871094 261.664062 190.636719 262.121094 182.128906 C 262.125 182.109375 270.375 182.21875 270.09375 190.886719 " fill-opacity="1" fill-rule="nonzero"/><path fill="#6bbfc2" d="M 283.816406 188.152344 C 283.816406 188.128906 275.246094 189.679688 273.203125 181.140625 C 273.207031 181.117188 281.542969 179.464844 283.816406 188.152344 " fill-opacity="1" fill-rule="nonzero"/><path fill="#6bbfc2" d="M 294.421875 186.59375 C 294.425781 186.570312 285.882812 187.945312 283.847656 179.445312 C 283.847656 179.421875 292.15625 177.949219 294.421875 186.59375 " fill-opacity="1" fill-rule="nonzero"/><path fill="#6bbfc2" d="M 305.609375 181.457031 C 305.613281 181.433594 298.40625 185.359375 292.863281 178.128906 C 292.863281 178.105469 299.800781 174.066406 305.609375 181.457031 " fill-opacity="1" fill-rule="nonzero"/><path fill="#6bbfc2" d="M 258.402344 218.148438 C 258.40625 218.132812 249.523438 219.5 248.359375 210.871094 C 248.359375 210.851562 257.015625 209.382812 258.402344 218.148438 " fill-opacity="1" fill-rule="nonzero"/><path fill="#6bbfc2" d="M 249.375 232.5625 C 249.378906 232.546875 240.214844 232.921875 240.488281 224.320312 C 240.488281 224.304688 249.445312 223.808594 249.375 232.5625 " fill-opacity="1" fill-rule="nonzero"/><path fill="#6bbfc2" d="M 235.882812 229.886719 C 235.882812 229.878906 226.886719 227.363281 230.726562 219.621094 C 230.726562 219.613281 239.605469 221.953125 235.882812 229.886719 " fill-opacity="1" fill-rule="nonzero"/><path fill="#6bbfc2" d="M 224.285156 225.078125 C 224.289062 225.085938 216.601562 220.042969 223.382812 214.105469 C 223.382812 214.113281 231.039062 218.914062 224.285156 225.078125 " fill-opacity="1" fill-rule="nonzero"/><path fill="#6bbfc2" d="M 212.507812 219.804688 C 212.507812 219.820312 208.316406 212.238281 217.769531 210.132812 C 217.769531 210.152344 222.074219 217.4375 212.507812 219.804688 " fill-opacity="1" fill-rule="nonzero"/><path fill="#6bbfc2" d="M 247.992188 217.097656 C 247.992188 217.078125 239.097656 218.558594 237.925781 209.890625 C 237.929688 209.875 246.597656 208.28125 247.992188 217.097656 " fill-opacity="1" fill-rule="nonzero"/><path fill="#6bbfc2" d="M 269.386719 216.777344 C 269.390625 216.757812 260.527344 217.984375 259.371094 209.40625 C 259.371094 209.382812 268.007812 208.058594 269.386719 216.777344 " fill-opacity="1" fill-rule="nonzero"/><path fill="#6bbfc2" d="M 281.402344 211.777344 C 281.402344 211.753906 273.589844 215.601562 268.714844 208.246094 C 268.714844 208.226562 276.25 204.285156 281.402344 211.777344 " fill-opacity="1" fill-rule="nonzero"/><path fill="#6bbfc2" d="M 312.972656 176.25 C 312.972656 176.234375 307.632812 179.746094 302.554688 174.292969 C 302.554688 174.277344 307.679688 170.671875 312.972656 176.25 " fill-opacity="1" fill-rule="nonzero"/><path fill="#6bbfc2" d="M 4.601562 168.742188 C 4.605469 168.710938 13.269531 177.90625 28.089844 166.882812 C 28.09375 166.863281 19.839844 157.144531 4.601562 168.742188 " fill-opacity="1" fill-rule="nonzero"/><path fill="#6bbfc2" d="M 29.984375 198.921875 C 29.988281 198.902344 37.167969 207.617188 50.054688 199.058594 C 50.058594 199.050781 43.269531 190.035156 29.984375 198.921875 " fill-opacity="1" fill-rule="nonzero"/><path fill="#6bbfc2" d="M 45.46875 215.433594 C 45.46875 215.414062 53.691406 223.101562 64.980469 213.976562 C 64.984375 213.960938 57.164062 206.039062 45.46875 215.433594 " fill-opacity="1" fill-rule="nonzero"/><path fill="#6bbfc2" d="M 39.589844 184.871094 C 39.585938 184.84375 50.066406 185.359375 52.789062 174.707031 C 52.785156 174.675781 42.59375 173.976562 39.589844 184.871094 " fill-opacity="1" fill-rule="nonzero"/><path fill="#6bbfc2" d="M 69.28125 185.566406 C 69.277344 185.550781 79.644531 181.820312 76.363281 171.835938 C 76.359375 171.824219 66.15625 175.328125 69.28125 185.566406 " fill-opacity="1" fill-rule="nonzero"/><path fill="#6bbfc2" d="M 54.285156 187.808594 C 54.28125 187.78125 66.335938 186.03125 64.457031 174.621094 C 64.449219 174.59375 52.628906 176.164062 54.285156 187.808594 " fill-opacity="1" fill-rule="nonzero"/><path fill="#6bbfc2" d="M 28.203125 179.375 C 28.203125 179.351562 36.171875 182.847656 42.542969 174.128906 C 42.542969 174.105469 34.871094 170.433594 28.203125 179.375 " fill-opacity="1" fill-rule="nonzero"/><path fill="#6bbfc2" d="M 20.933594 174.984375 C 20.933594 174.96875 26.828125 178.273438 32.628906 171.589844 C 32.628906 171.578125 26.980469 168.136719 20.933594 174.984375 " fill-opacity="1" fill-rule="nonzero"/><path fill="#6bbfc2" d="M 59.15625 221.675781 C 59.15625 221.664062 65.101562 225.585938 70.953125 219.234375 C 70.953125 219.226562 65.265625 215.203125 59.15625 221.675781 " fill-opacity="1" fill-rule="nonzero"/><path fill="#6bbfc2" d="M 97 224.582031 C 96.992188 224.578125 106.761719 219.898438 101.652344 210.367188 C 101.648438 210.359375 91.996094 214.769531 97 224.582031 " fill-opacity="1" fill-rule="nonzero"/><path fill="#6bbfc2" d="M 112.21875 219.757812 C 112.214844 219.757812 121.585938 212.460938 111.921875 204.5625 C 111.917969 204.570312 102.554688 211.539062 112.21875 219.757812 " fill-opacity="1" fill-rule="nonzero"/><path fill="#6bbfc2" d="M 82.6875 225.800781 C 82.6875 225.792969 92.484375 224.667969 92.039062 214.914062 C 92.039062 214.902344 82.449219 215.824219 82.6875 225.800781 " fill-opacity="1" fill-rule="nonzero"/><path fill="#6bbfc2" d="M 72.796875 225.910156 C 72.792969 225.902344 80.648438 225.628906 81.191406 217.769531 C 81.191406 217.765625 73.527344 217.878906 72.796875 225.910156 " fill-opacity="1" fill-rule="nonzero"/></g></g></g></svg>