<svg xmlns="http://www.w3.org/2000/svg" xmlns:xlink="http://www.w3.org/1999/xlink" width="500" zoomAndPan="magnify" viewBox="0 0 375 374.999991" height="500" preserveAspectRatio="xMidYMid meet" version="1.0"><defs><filter x="0%" y="0%" width="100%" height="100%" id="2e817f8ab8"><feColorMatrix values="0 0 0 0 1 0 0 0 0 1 0 0 0 0 1 0 0 0 1 0" color-interpolation-filters="sRGB"/></filter><mask id="52cf487e42"><g filter="url(#2e817f8ab8)"><rect x="-37.5" width="450" fill="#000000" y="-37.499999" height="449.999989" fill-opacity="0.36"/></g></mask><clipPath id="77dd1d1848"><path d="M 0 263 L 182 263 L 182 323 L 0 323 Z M 0 263 " clip-rule="nonzero"/></clipPath><clipPath id="111f874185"><path d="M 0 266 L 159.644531 266 L 159.644531 341.25 L 0 341.25 Z M 0 266 " clip-rule="nonzero"/></clipPath><clipPath id="3f08551b40"><path d="M 0 49 L 174 49 L 174 268 L 0 268 Z M 0 49 " clip-rule="nonzero"/></clipPath><clipPath id="4603d76346"><path d="M 0 25 L 9 25 L 9 46 L 0 46 Z M 0 25 " clip-rule="nonzero"/></clipPath><clipPath id="54bdce900c"><path d="M 44 1.5 L 52 1.5 L 52 12 L 44 12 Z M 44 1.5 " clip-rule="nonzero"/></clipPath><clipPath id="1d5cbd359a"><path d="M 0 13 L 2 13 L 2 24 L 0 24 Z M 0 13 " clip-rule="nonzero"/></clipPath><clipPath id="95346066e2"><path d="M 65 1.5 L 71 1.5 L 71 13 L 65 13 Z M 65 1.5 " clip-rule="nonzero"/></clipPath><clipPath id="b315fb72bb"><path d="M 0 62 L 3 62 L 3 67 L 0 67 Z M 0 62 " clip-rule="nonzero"/></clipPath><clipPath id="274a3b5ffe"><path d="M 0 69 L 9 69 L 9 74 L 0 74 Z M 0 69 " clip-rule="nonzero"/></clipPath><clipPath id="2d84abdfb2"><path d="M 0 42 L 1 42 L 1 51 L 0 51 Z M 0 42 " clip-rule="nonzero"/></clipPath><clipPath id="b3ff37baed"><path d="M 0 135 L 5 135 L 5 143 L 0 143 Z M 0 135 " clip-rule="nonzero"/></clipPath><clipPath id="320f0b8fae"><path d="M 0 143 L 16 143 L 16 150 L 0 150 Z M 0 143 " clip-rule="nonzero"/></clipPath><clipPath id="8595e66206"><path d="M 0 76 L 2 76 L 2 91 L 0 91 Z M 0 76 " clip-rule="nonzero"/></clipPath><clipPath id="5efa72f347"><path d="M 0 109 L 17 109 L 17 117 L 0 117 Z M 0 109 " clip-rule="nonzero"/></clipPath><clipPath id="a77e0b77b9"><path d="M 0 102 L 4 102 L 4 111 L 0 111 Z M 0 102 " clip-rule="nonzero"/></clipPath><clipPath id="aeed2b7e7b"><path d="M 0 174 L 8 174 L 8 184 L 0 184 Z M 0 174 " clip-rule="nonzero"/></clipPath><clipPath id="4bf374dc16"><path d="M 195 152.183594 L 205.25 152.183594 L 205.25 161 L 195 161 Z M 195 152.183594 " clip-rule="nonzero"/></clipPath><clipPath id="999284e460"><path d="M 0 199 L 4 199 L 4 213 L 0 213 Z M 0 199 " clip-rule="nonzero"/></clipPath><clipPath id="34d2858e96"><rect x="0" width="206" y="0" height="343"/></clipPath></defs><rect x="-37.5" width="450" fill="#ffffff" y="-37.499999" height="449.999989" fill-opacity="1"/><rect x="-37.5" width="450" fill="#f0f1f5" y="-37.499999" height="449.999989" fill-opacity="1"/><g mask="url(#52cf487e42)"><g transform="matrix(1, 0, 0, 1, 0, 26)"><g clip-path="url(#34d2858e96)"><g clip-path="url(#77dd1d1848)"><path fill="#6bbfc2" d="M 155.953125 291.296875 C 149.296875 291.988281 142.359375 292.238281 141.53125 289.929688 C 139.222656 283.503906 131.113281 281.613281 131.964844 280.808594 C 132.300781 280.488281 135.179688 280.648438 139.960938 281.515625 C 142.316406 281.941406 149.335938 284.222656 151.664062 284.714844 C 152.859375 284.96875 153.855469 285.378906 154.707031 285.8125 C 158.136719 287.5625 164.035156 288.105469 168.554688 289.1875 C 171.007812 289.777344 173.046875 291.152344 174.089844 291.496094 C 172.878906 290.03125 171.03125 289.515625 170.042969 289.136719 C 168.285156 288.464844 166.75 287.804688 165.144531 287.523438 C 162.464844 287.058594 160.792969 286.90625 158.839844 285.941406 C 154.125 283.621094 151.484375 282.527344 146.914062 281.824219 C 147.109375 281.324219 155.132812 280.660156 158.554688 280.804688 C 162.136719 280.945312 167.988281 281.84375 172.324219 281.605469 C 173.890625 281.515625 175.226562 281.246094 176.703125 281.085938 C 178.179688 280.929688 179.953125 281.355469 181.582031 281.722656 C 180.164062 280.867188 177.277344 280.5625 175.054688 280.625 C 172.839844 280.691406 170.804688 281.003906 168.457031 280.871094 C 165.015625 280.679688 161.644531 279.566406 158.183594 279.328125 C 153.648438 279.019531 150.15625 280.296875 145.613281 280.011719 C 143.082031 279.847656 140.714844 279.097656 138.167969 278.75 C 131.816406 277.878906 121.28125 279.21875 112.117188 278.699219 C 107.382812 278.425781 101.980469 278.515625 97.945312 277.34375 C 94.683594 276.398438 87.972656 272.199219 87.617188 271.632812 C 86.609375 270.023438 91.179688 268.835938 94.683594 269.1875 C 98.1875 269.542969 100.839844 270.003906 104.347656 270.34375 C 108.601562 270.753906 113.144531 270.609375 117.402344 270.414062 C 120.898438 270.246094 128.191406 269.988281 131.710938 270.28125 C 137.839844 270.777344 140.238281 271.777344 146.359375 272.304688 C 142.90625 271.546875 139.390625 270.855469 135.992188 270.050781 C 131.894531 269.074219 126.121094 269.21875 123.753906 269.226562 C 99.941406 269.347656 101.015625 265.292969 86.808594 264.40625 C 80.222656 264.011719 68.699219 263.875 62.089844 264.082031 C 57.75 264.214844 53.414062 265.175781 49.070312 265.21875 C 46.828125 265.238281 44.589844 265.25 42.347656 265.265625 C 41.269531 265.269531 39.929688 263.730469 39.496094 264.136719 C 37.449219 263.925781 32.164062 264.953125 31.902344 264.972656 C 28.914062 265.207031 25.542969 265.089844 22.695312 265.542969 C 20.390625 265.90625 16.234375 266.910156 14.914062 267.945312 C 11.707031 269.316406 8.578125 270.859375 4.542969 271.558594 C 2.847656 271.851562 1.046875 271.988281 -0.59375 272.351562 C -4.210938 273.15625 -6.496094 274.941406 -9.929688 275.925781 C -13.289062 276.890625 -17.347656 276.988281 -21.128906 276.886719 C -24.910156 276.785156 -28.691406 276.515625 -32.492188 276.847656 C -36.292969 277.171875 -40.253906 278.257812 -41.6875 279.953125 C -38.253906 277.863281 -31.84375 277.636719 -26.5625 277.96875 C -21.285156 278.296875 -15.621094 278.925781 -10.632812 277.765625 C -6.933594 276.910156 -4.238281 275.167969 -0.382812 274.511719 C 0.980469 274.277344 2.691406 274.242188 3.550781 274.746094 C 4.328125 275.203125 3.902344 275.875 3.625 276.46875 C 2.265625 279.382812 -0.402344 279.777344 -3.316406 281.117188 C -5.414062 282.085938 -7.699219 282.511719 -10.296875 283.140625 C -14.644531 284.199219 -19.542969 284.90625 -24.277344 285.335938 C -29.011719 285.757812 -33.984375 286.476562 -37.355469 288.164062 C -39.296875 289.136719 -40.539062 290.351562 -42.347656 291.371094 C -46.503906 293.710938 -52.503906 295.332031 -54.328125 298.15625 C -55.355469 299.75 -55.476562 301.136719 -55.558594 302.757812 C -55.640625 304.332031 -56.832031 305.933594 -58.90625 307.257812 C -56.535156 305.683594 -54.378906 304.578125 -53.429688 302.746094 C -52.378906 300.722656 -53.015625 298.71875 -50.113281 297.046875 C -47.617188 295.605469 -43.191406 293.53125 -40.417969 292.1875 C -38.667969 291.339844 -37.480469 290.75 -35.871094 289.84375 C -32.246094 287.800781 -27.816406 287.496094 -22.453125 286.789062 C -17.089844 286.085938 -10.496094 284.890625 -5.339844 283.867188 C -0.179688 282.839844 5.054688 280.398438 6.640625 277.890625 C 7.367188 276.738281 7.035156 276.125 7.847656 274.988281 C 9.304688 272.957031 13.179688 271.464844 17.21875 270.449219 C 21.261719 269.441406 23.160156 268.394531 30.109375 268.320312 C 31.601562 268.300781 39.304688 267.585938 42.515625 269.476562 C 44.25 270.492188 42.386719 271.738281 40.9375 272.890625 C 37.625 275.53125 31.492188 277.042969 26.050781 278.765625 C 20.609375 280.480469 15.164062 282.90625 14.824219 285.933594 C 14.628906 287.652344 14.898438 289.261719 16.613281 290.972656 C 18.148438 292.503906 20.007812 293.789062 14.191406 294.804688 C 11.113281 295.34375 5.808594 295.109375 2.820312 295.769531 C -0.351562 296.46875 -1.808594 297.980469 -4.378906 299.113281 C -7.910156 300.664062 -12.707031 300.683594 -17.414062 300.992188 C -24.609375 301.46875 -31.03125 304.128906 -33.449219 307.308594 C -32.007812 306.027344 -28.871094 305.246094 -26.285156 304.347656 C -20.449219 302.316406 -12.839844 302.933594 -8.253906 302.222656 C -9.957031 304.578125 -7.511719 308.457031 -6.324219 310.820312 C -5.015625 313.425781 -7.320312 313.457031 -7.796875 316.714844 C -8.140625 318.996094 -6.125 321.640625 -1.582031 322.398438 C -4.355469 321.363281 -5.003906 319.484375 -4.628906 317.796875 C -4.257812 316.113281 -3.070312 314.457031 -2.96875 312.765625 C -2.75 309.277344 -7.757812 305.210938 -3.507812 302.265625 C -0.382812 300.097656 0.460938 298.402344 5.441406 297.523438 C 12.777344 296.230469 20.535156 297.054688 22.953125 294.136719 C 24.011719 292.855469 21.914062 291.089844 21.347656 289.769531 C 18.089844 282.105469 33.066406 280.296875 34.234375 280.828125 C 35.890625 281.566406 32.199219 283.980469 34.789062 286.195312 C 36.535156 287.6875 40.816406 288.347656 41.78125 290 C 42.675781 291.539062 39.785156 292.996094 38.933594 294.5625 C 37.160156 297.808594 44.328125 301.082031 41.886719 304.238281 C 39.550781 307.261719 30.886719 307.554688 25.011719 309.21875 C 16.269531 311.703125 14.613281 318.273438 21.910156 321.449219 C 16.996094 317.140625 18.921875 312.074219 27.152344 310.757812 C 30.773438 310.175781 35.089844 309.652344 38.378906 308.726562 C 41.597656 307.820312 43.816406 305.03125 47.523438 304.945312 C 50.289062 304.882812 52.320312 308.160156 53.652344 309.292969 C 54.988281 310.429688 55.65625 311.722656 57.050781 312.839844 C 59.328125 314.664062 63.632812 316.234375 63.050781 318.355469 C 62.757812 319.40625 62.375 320.171875 62.335938 321.4375 C 65.300781 319.480469 65.5625 316.707031 62.96875 314.675781 C 61.382812 313.4375 58.839844 312.453125 57.957031 311.058594 C 57.375 310.144531 55.175781 306.390625 54.292969 305.539062 C 51.082031 302.429688 47.382812 303.082031 45.027344 299.8125 C 40.179688 293.089844 50.515625 293.367188 48.277344 290.3125 C 46.300781 287.605469 38.003906 286.199219 38.796875 283.347656 C 39.34375 281.375 44.054688 280.28125 46.019531 278.519531 C 46.875 277.746094 47.183594 276.867188 48.066406 276.105469 C 49.582031 274.796875 52.851562 273.984375 55.972656 274.148438 C 59.09375 274.308594 59.871094 275.964844 60.6875 277.386719 C 62.472656 280.523438 57.371094 283.183594 59.242188 286.308594 C 59.824219 287.277344 61.257812 288.164062 61.121094 289.175781 C 60.988281 290.128906 59.5 290.898438 58.527344 291.738281 C 56.300781 293.671875 56.957031 296.238281 60.085938 297.839844 C 63.269531 299.46875 68.214844 299.972656 72.390625 301.003906 C 76.558594 302.039062 80.386719 304.277344 78.507812 306.3125 C 81.070312 304.589844 80.683594 302.035156 77.632812 300.503906 C 75.089844 299.226562 71.285156 298.742188 68.011719 297.917969 C 64.738281 297.089844 61.636719 295.503906 62.507812 293.792969 C 63.269531 292.300781 66.792969 291.328125 67.164062 289.804688 C 67.320312 289.152344 67.347656 288.453125 66.796875 287.851562 C 62.121094 282.75 68.082031 278.316406 81.332031 283.648438 C 85.742188 285.429688 82.082031 288.644531 85.542969 289.90625 C 89.511719 291.351562 99.898438 289.503906 102.183594 291.617188 C 104.332031 293.597656 96.695312 297.277344 96.898438 299.496094 C 97.105469 301.71875 101.558594 303.394531 102.5625 305.570312 C 103.960938 308.585938 98.460938 311.308594 97.367188 314.355469 C 96.421875 316.988281 99.160156 319.820312 103.988281 321.210938 C 99.679688 319.6875 99.910156 316.589844 101.679688 314.199219 C 103.449219 311.800781 106.355469 309.472656 105.984375 306.945312 C 105.652344 304.648438 102.625 302.605469 101.695312 300.335938 C 100.761719 298.066406 103.667969 295.710938 108.539062 295.398438 C 120.304688 294.65625 115.875 301.027344 120.917969 303.511719 C 125.640625 305.839844 137.777344 307.347656 137.765625 311.675781 C 137.761719 313.636719 137.328125 316.171875 133.671875 317.167969 C 140.90625 315.476562 143.167969 310.554688 138.035156 307.589844 C 133.785156 305.132812 120.464844 302.285156 122.640625 299.921875 C 121.933594 300.6875 134.640625 301.34375 144.984375 300.160156 C 151.070312 299.457031 157.441406 301.269531 159.148438 304.058594 C 157.71875 301.71875 154.609375 299.882812 150.160156 299.261719 C 145.707031 298.636719 142.386719 299.136719 137.796875 299.214844 C 133.207031 299.292969 126.914062 299.609375 123.667969 298.054688 C 121.289062 296.910156 121.410156 294.59375 118.554688 293.710938 C 115.9375 292.890625 112.335938 292.964844 109.929688 292.011719 C 108.050781 291.269531 107.339844 290.066406 105.742188 289.191406 C 100.960938 286.5625 89.269531 290.285156 88.964844 286.886719 C 88.570312 282.546875 82.875 280.300781 77.175781 279.523438 C 73.429688 279.007812 69.632812 278.164062 67.621094 276.597656 C 65.605469 275.027344 66 272.699219 69.230469 271.675781 C 72.472656 270.648438 77.050781 271.320312 79.992188 272.550781 C 82.925781 273.78125 84.808594 275.460938 87.308594 276.894531 C 93.28125 280.300781 104.394531 281.539062 113.625 281.121094 C 116.332031 280.96875 132.8125 280.5 136.726562 288.753906 C 137.710938 290.824219 139.742188 293.109375 143.933594 294.019531 C 148.957031 295.101562 155.527344 292.046875 160.449219 293.265625 C 164.515625 294.261719 165.230469 298.015625 167.644531 299.792969 C 170.355469 301.78125 175.636719 302.375 180.226562 303.4375 C 173.238281 301.820312 169.664062 299.203125 167.421875 296.820312 C 164.875 294.121094 163.441406 290.523438 155.953125 291.296875 " fill-opacity="1" fill-rule="nonzero"/></g><g clip-path="url(#111f874185)"><path fill="#6bbfc2" d="M -10.964844 301.363281 C -5.675781 302.445312 -0.167969 302.890625 0.484375 299.816406 C 2.308594 291.265625 8.746094 288.910156 8.070312 287.816406 C 7.800781 287.382812 5.515625 287.542969 1.71875 288.597656 C -0.148438 289.121094 -5.722656 292.007812 -7.574219 292.613281 C -8.523438 292.925781 -9.3125 293.453125 -9.988281 294.015625 C -12.707031 296.285156 -17.394531 296.867188 -20.984375 298.203125 C -22.933594 298.929688 -24.550781 300.742188 -25.378906 301.175781 C -24.421875 299.21875 -22.957031 298.578125 -22.167969 298.09375 C -20.773438 297.226562 -19.554688 296.378906 -18.277344 296.046875 C -16.152344 295.492188 -14.820312 295.332031 -13.273438 294.085938 C -9.53125 291.078125 -7.433594 289.683594 -3.804688 288.851562 C -3.960938 288.179688 -10.335938 287.078125 -13.058594 287.164062 C -15.90625 287.246094 -20.558594 288.273438 -24.011719 287.792969 C -25.257812 287.621094 -26.320312 287.203125 -27.5 286.933594 C -28.675781 286.664062 -30.085938 287.175781 -31.378906 287.609375 C -30.257812 286.5 -27.957031 286.195312 -26.191406 286.371094 C -24.421875 286.539062 -22.800781 287.039062 -20.9375 286.9375 C -18.199219 286.792969 -15.515625 285.398438 -12.765625 285.1875 C -9.160156 284.90625 -6.382812 286.722656 -2.773438 286.453125 C -0.761719 286.296875 1.117188 285.347656 3.140625 284.941406 C 8.1875 283.933594 16.550781 285.917969 23.820312 285.332031 C 27.578125 285.027344 31.859375 285.199219 35.0625 283.691406 C 37.644531 282.46875 42.972656 276.992188 43.257812 276.257812 C 44.058594 274.152344 40.433594 272.558594 37.652344 272.984375 C 34.871094 273.410156 32.769531 273.992188 29.984375 274.394531 C 26.613281 274.878906 23.003906 274.621094 19.625 274.277344 C 16.847656 273.996094 11.054688 273.503906 8.257812 273.796875 C 3.390625 274.304688 1.488281 275.574219 -3.378906 276.101562 C -0.636719 275.191406 2.15625 274.363281 4.859375 273.378906 C 8.117188 272.1875 12.699219 272.523438 14.582031 272.582031 C 33.488281 273.191406 32.625 267.773438 43.902344 266.773438 C 49.128906 266.320312 58.269531 266.1875 63.507812 266.441406 C 66.945312 266.605469 70.386719 267.84375 73.824219 267.871094 C 75.601562 267.878906 77.378906 267.878906 79.15625 267.875 C 80.011719 267.875 81.078125 265.863281 81.417969 266.378906 C 83.039062 266.089844 86.386719 267.480469 86.8125 267.386719 C 87.011719 267.335938 87.230469 267.363281 87.4375 267.386719 C 89.800781 267.648438 92.476562 267.449219 94.730469 267.988281 C 96.554688 268.425781 99.847656 269.652344 100.890625 270.960938 C 103.429688 272.675781 105.90625 274.609375 109.101562 275.421875 C 110.445312 275.761719 111.871094 275.890625 113.171875 276.324219 C 116.03125 277.273438 117.839844 279.515625 120.558594 280.695312 C 123.21875 281.847656 126.4375 281.847656 129.4375 281.597656 C 132.433594 281.339844 135.433594 280.859375 138.449219 281.144531 C 141.464844 281.429688 144.601562 282.679688 145.730469 284.816406 C 143.019531 282.246094 137.929688 282.199219 133.742188 282.808594 C 129.546875 283.417969 125.058594 284.414062 121.109375 283.058594 C 118.179688 282.054688 116.046875 279.875 112.996094 279.125 C 111.914062 278.859375 110.558594 278.851562 109.878906 279.527344 C 109.261719 280.132812 109.597656 280.996094 109.8125 281.761719 C 110.875 285.5 112.992188 285.945312 115.292969 287.601562 C 116.953125 288.796875 118.761719 289.285156 120.820312 290.027344 C 124.261719 291.265625 128.144531 292.03125 131.894531 292.425781 C 135.644531 292.816406 139.589844 293.566406 142.253906 295.628906 C 143.789062 296.816406 144.769531 298.335938 146.199219 299.589844 C 149.484375 302.460938 154.238281 304.324219 155.667969 307.902344 C 156.480469 309.925781 156.566406 311.722656 156.625 313.824219 C 156.683594 315.867188 157.617188 317.894531 159.257812 319.527344 C 157.382812 317.585938 155.683594 316.234375 154.933594 313.898438 C 154.109375 311.3125 154.625 308.691406 152.332031 306.640625 C 150.359375 304.875 146.859375 302.355469 144.667969 300.722656 C 143.285156 299.6875 142.339844 298.96875 141.066406 297.855469 C 138.207031 295.347656 134.691406 295.109375 130.441406 294.371094 C 126.191406 293.636719 120.972656 292.289062 116.886719 291.105469 C 112.800781 289.921875 108.664062 286.882812 107.417969 283.671875 C 106.84375 282.195312 107.109375 281.394531 106.46875 279.9375 C 105.320312 277.34375 102.253906 275.492188 99.054688 274.257812 C 95.859375 273.023438 94.355469 271.703125 88.847656 271.707031 C 87.667969 271.707031 81.558594 270.871094 79.011719 273.355469 C 77.636719 274.699219 79.109375 276.296875 80.253906 277.78125 C 82.875 281.175781 87.726562 283.0625 92.03125 285.195312 C 96.339844 287.332031 100.648438 290.363281 100.90625 294.277344 C 101.050781 296.503906 100.839844 298.59375 99.472656 300.847656 C 98.253906 302.867188 96.773438 304.578125 101.378906 305.765625 C 103.8125 306.394531 108.015625 305.960938 110.378906 306.738281 C 112.890625 307.5625 114.042969 309.480469 116.070312 310.871094 C 118.859375 312.789062 122.664062 312.667969 126.390625 312.921875 C 132.085938 313.308594 137.167969 316.535156 139.070312 320.570312 C 137.9375 318.953125 135.453125 318.054688 133.40625 316.976562 C 128.789062 314.542969 122.757812 315.578125 119.125 314.792969 C 120.464844 317.789062 118.515625 322.882812 117.566406 325.976562 C 116.519531 329.386719 118.347656 329.363281 118.710938 333.566406 C 118.972656 336.511719 117.367188 339.996094 113.769531 341.105469 C 115.96875 339.6875 116.488281 337.238281 116.199219 335.066406 C 115.910156 332.890625 114.976562 330.78125 114.902344 328.597656 C 114.742188 324.085938 118.726562 318.675781 115.367188 314.980469 C 112.902344 312.257812 112.242188 310.085938 108.296875 309.078125 C 102.492188 307.585938 96.347656 308.820312 94.441406 305.082031 C 93.605469 303.441406 95.273438 301.113281 95.722656 299.386719 C 98.332031 289.394531 86.472656 287.3125 85.542969 288.007812 C 84.230469 288.992188 87.144531 292.070312 85.089844 294.988281 C 83.703125 296.953125 80.308594 297.867188 79.542969 300.035156 C 78.828125 302.050781 81.113281 303.902344 81.785156 305.921875 C 83.179688 310.113281 77.5 314.480469 79.421875 318.550781 C 81.265625 322.445312 88.121094 322.664062 92.765625 324.695312 C 99.675781 327.722656 100.96875 336.191406 95.183594 340.488281 C 99.085938 334.78125 97.578125 328.265625 91.0625 326.734375 C 88.203125 326.0625 84.789062 325.460938 82.1875 324.320312 C 79.644531 323.203125 77.894531 319.617188 74.960938 319.558594 C 72.773438 319.519531 71.15625 323.820312 70.101562 325.316406 C 69.042969 326.816406 68.507812 328.511719 67.40625 329.984375 C 65.59375 332.398438 62.191406 334.515625 62.648438 337.273438 C 62.875 338.644531 63.175781 339.632812 63.207031 341.285156 C 60.863281 338.785156 60.660156 335.160156 62.71875 332.472656 C 63.972656 330.832031 65.984375 329.511719 66.6875 327.683594 C 67.152344 326.484375 68.902344 321.558594 69.601562 320.429688 C 72.148438 316.34375 75.074219 317.132812 76.945312 312.84375 C 80.800781 304.03125 72.617188 304.539062 74.398438 300.523438 C 75.96875 296.984375 82.546875 295.039062 81.921875 291.34375 C 81.492188 288.792969 77.765625 287.429688 76.214844 285.152344 C 75.539062 284.160156 75.292969 283.015625 74.597656 282.035156 C 73.398438 280.34375 70.808594 279.308594 68.335938 279.542969 C 65.859375 279.773438 65.242188 281.929688 64.597656 283.792969 C 63.171875 287.894531 67.210938 291.332031 65.71875 295.421875 C 65.257812 296.691406 64.121094 297.859375 64.226562 299.175781 C 64.328125 300.414062 65.507812 301.410156 66.273438 302.496094 C 68.035156 304.992188 67.511719 308.347656 65.03125 310.46875 C 62.507812 312.628906 58.589844 313.335938 55.285156 314.71875 C 51.980469 316.101562 48.949219 319.058594 50.433594 321.71875 C 48.40625 319.480469 48.714844 316.125 51.132812 314.101562 C 53.148438 312.414062 56.164062 311.753906 58.757812 310.648438 C 61.347656 309.539062 63.808594 307.4375 63.117188 305.210938 C 62.519531 303.273438 59.730469 302.027344 59.441406 300.042969 C 59.316406 299.195312 59.296875 298.277344 59.734375 297.488281 C 63.449219 290.800781 58.730469 285.050781 48.226562 292.039062 C 44.726562 294.371094 47.625 298.582031 44.882812 300.246094 C 41.734375 302.152344 33.507812 299.703125 31.695312 302.46875 C 29.992188 305.074219 36.039062 309.941406 35.875 312.855469 C 35.714844 315.78125 32.183594 318 31.386719 320.871094 C 30.28125 324.851562 34.628906 328.417969 35.496094 332.421875 C 36.242188 335.875 34.078125 339.628906 30.253906 341.503906 C 33.664062 339.460938 33.480469 335.382812 32.082031 332.238281 C 30.683594 329.085938 28.382812 326.027344 28.675781 322.691406 C 28.941406 319.65625 31.335938 316.957031 32.074219 313.964844 C 32.816406 310.972656 30.511719 307.867188 26.652344 307.433594 C 17.332031 306.398438 20.84375 314.84375 16.851562 318.128906 C 13.105469 321.203125 3.488281 323.148438 3.503906 328.929688 C 3.507812 331.546875 3.855469 334.941406 6.75 336.273438 C 1.023438 334.011719 -0.78125 327.398438 3.285156 323.46875 C 6.648438 320.21875 17.203125 316.503906 15.480469 313.355469 C 16.039062 314.375 5.96875 315.1875 -2.238281 313.460938 C -7.070312 312.445312 -12.121094 314.769531 -13.46875 318.515625 C -12.339844 315.371094 -9.878906 312.953125 -6.347656 312.183594 C -2.816406 311.414062 -0.179688 312.128906 3.460938 312.285156 C 7.105469 312.441406 12.09375 312.914062 14.660156 310.871094 C 16.550781 309.367188 16.453125 306.296875 18.714844 305.144531 C 20.792969 304.082031 23.648438 304.199219 25.554688 302.953125 C 27.042969 301.984375 27.605469 300.398438 28.875 299.253906 C 32.664062 295.828125 41.929688 300.753906 42.171875 296.28125 C 42.484375 290.574219 47.007812 287.652344 51.523438 286.628906 C 54.496094 285.957031 57.503906 284.84375 59.101562 282.785156 C 60.703125 280.734375 60.390625 277.695312 57.832031 276.359375 C 55.265625 275.023438 51.632812 275.886719 49.300781 277.496094 C 46.972656 279.097656 45.480469 281.296875 43.492188 283.160156 C 38.757812 287.613281 29.945312 289.1875 22.625 288.519531 C 20.480469 288.308594 7.394531 287.390625 4.296875 298.328125 C 3.519531 301.074219 1.90625 304.097656 -1.417969 305.253906 C -5.402344 306.628906 -10.621094 302.394531 -14.53125 303.917969 C -17.761719 305.175781 -18.320312 310.238281 -20.230469 312.59375 C -22.375 315.234375 -26.570312 315.933594 -30.210938 317.28125 C -24.664062 315.230469 -21.835938 311.746094 -20.0625 308.574219 C -18.046875 304.96875 -16.914062 300.152344 -10.964844 301.363281 " fill-opacity="1" fill-rule="nonzero"/></g><g clip-path="url(#3f08551b40)"><path fill="#6bbfc2" d="M 137.953125 140.167969 L 138.902344 139.8125 L 139.34375 139.949219 C 143.726562 141.335938 147.574219 142.328125 151.101562 142.984375 C 154.558594 143.605469 158.085938 144.046875 161.648438 144.3125 C 160.617188 144.15625 159.585938 143.988281 158.570312 143.808594 C 154.605469 143.097656 149.972656 141.863281 144.800781 140.136719 L 141.207031 138.9375 L 145.699219 137.277344 C 158.992188 132.402344 167.59375 126.269531 173.125 120.707031 C 168.453125 123.832031 163.003906 126.503906 157.683594 128.886719 L 155.300781 129.957031 L 155.835938 127.402344 C 156.640625 123.554688 157.71875 120.332031 159.050781 117.8125 C 158.347656 118.828125 157.683594 119.925781 157.085938 121.097656 C 155.914062 123.386719 154.945312 126.308594 154.214844 129.78125 L 154.070312 130.464844 L 153.425781 130.730469 C 145.824219 133.917969 137.609375 137.003906 129.660156 139.988281 C 121.695312 142.980469 114.171875 145.808594 107.742188 148.542969 L 104.054688 150.113281 L 106.074219 146.644531 C 107.507812 144.183594 108.703125 141.890625 109.722656 139.632812 C 111.171875 136.429688 112.667969 132.371094 114.25 128.074219 L 114.660156 126.957031 L 115.507812 126.886719 C 119.800781 126.539062 123.328125 126.007812 126.28125 125.261719 C 127.269531 125.015625 128.230469 124.742188 129.164062 124.453125 C 125.851562 125.164062 121.78125 125.660156 117.027344 125.925781 L 114.992188 126.042969 L 115.707031 124.132812 C 118.621094 116.335938 123.046875 104.496094 130.285156 94.71875 C 125.554688 99.164062 120.949219 104.9375 117.816406 112.230469 C 117.460938 113.054688 117.117188 113.871094 116.78125 114.675781 L 115.261719 118.320312 L 114.265625 114.5 C 113.109375 110.070312 112.449219 106.09375 112.300781 102.679688 C 112.210938 100.527344 112.210938 97.628906 112.523438 94.265625 C 111.582031 98.722656 111.085938 103.773438 111.484375 109.242188 C 111.742188 112.773438 112.519531 116.851562 113.808594 121.355469 L 113.929688 121.789062 L 113.636719 122.542969 C 109.597656 132.921875 106.714844 142.09375 97.929688 152.707031 L 96.480469 153.820312 C 91.460938 156.488281 86.472656 159.644531 81.648438 163.183594 L 80.003906 164.394531 L 79.566406 162.398438 C 78.082031 155.683594 77.433594 149.738281 77.636719 144.738281 C 77.757812 141.714844 78.148438 137.421875 79.21875 132.425781 C 77.226562 138.253906 75.730469 145.085938 75.652344 152.5625 C 75.605469 156.445312 76.070312 160.914062 77.023438 165.839844 L 77.175781 166.621094 L 76.558594 167.125 C 70.90625 171.71875 66.765625 175.835938 64.285156 178.476562 L 62.601562 180.273438 L 62.023438 177.878906 C 61.140625 174.238281 60.332031 169.875 59.683594 166.363281 C 59.117188 163.3125 58.632812 160.671875 58.308594 159.648438 C 56.792969 154.847656 59.601562 125.523438 65.667969 106.828125 L 65.765625 106.523438 L 66.632812 105.660156 C 69.792969 102.515625 72.289062 100.027344 75.425781 97.082031 L 77.074219 95.5 C 83.738281 89.105469 93.3125 79.917969 101.769531 68.253906 C 98.136719 72.871094 93.917969 77.480469 89.027344 81.835938 C 82.261719 87.894531 75.988281 93.652344 70.371094 98.949219 L 66.554688 102.140625 C 67.261719 100.101562 69.613281 93.496094 70.3125 91.535156 C 73.109375 83.625 77.949219 69.929688 79.738281 53.398438 C 78.945312 58.589844 77.730469 63.945312 75.949219 69.308594 L 75.273438 71.339844 L 72.652344 68.75 C 69.265625 65.417969 66.339844 62.535156 64.269531 58.992188 C 63.398438 57.5 62.539062 55.980469 61.726562 54.390625 C 62.785156 56.851562 64.140625 59.445312 65.859375 62.140625 C 67.425781 64.605469 70.28125 68.136719 74.125 72.355469 L 74.664062 72.949219 L 72.605469 78.585938 C 61.882812 107.894531 54.132812 129.074219 51.703125 145.304688 L 51.167969 148.867188 L 49.257812 145.8125 C 44.472656 138.164062 39.972656 129.746094 35.886719 120.785156 L 35.578125 120.113281 L 35.984375 119.5 C 38.726562 115.359375 40.84375 111.554688 42.273438 108.183594 C 45.453125 100.726562 46.585938 93.746094 46.726562 87.828125 C 45.847656 93.53125 44.289062 98.320312 43.042969 101.507812 C 41.507812 105.449219 39 110.023438 35.605469 115.085938 L 34.238281 117.128906 L 33.277344 114.863281 C 29.585938 106.191406 26.222656 96.945312 23.273438 87.386719 L 23.082031 86.765625 L 23.460938 86.230469 C 26.300781 82.179688 28.320312 78.695312 29.628906 75.574219 C 30.8125 72.773438 31.59375 70.074219 32.085938 67.535156 C 31.675781 68.902344 31.253906 70.101562 30.871094 71.085938 C 29.566406 74.464844 27.320312 78.449219 24.195312 82.929688 L 22.601562 85.214844 L 21.824219 82.542969 C 18.195312 70.0625 15.765625 58.800781 14.203125 49.929688 C 14.523438 55.160156 15.238281 61.457031 16.671875 68.9375 L 17.28125 72.121094 L 14.613281 70.289062 C 8.746094 66.253906 4.316406 62.605469 1.085938 59.125 C 0.90625 58.933594 0.726562 58.734375 0.546875 58.535156 C 2.039062 60.480469 3.703125 62.414062 5.5625 64.300781 C 8.542969 67.347656 12.398438 70.507812 17.34375 73.960938 L 17.769531 74.257812 L 17.882812 74.761719 C 20.003906 84.25 23.046875 94.605469 26.929688 105.527344 L 27.933594 108.355469 L 25.164062 107.199219 C 14.246094 102.65625 -12.472656 90.742188 -24.75 78.320312 C -25.046875 78.015625 -25.339844 77.703125 -25.632812 77.382812 C -24.074219 79.371094 -22.3125 81.339844 -20.328125 83.246094 C -8.65625 94.464844 12.03125 104.847656 27.136719 112.421875 L 27.957031 112.832031 L 28.144531 113.316406 C 28.746094 114.894531 29.351562 116.503906 29.96875 118.136719 C 33.460938 127.386719 37.421875 137.875 42.800781 149.183594 L 43.972656 151.644531 L 41.3125 151.054688 C 33.644531 149.351562 28.835938 147.308594 23.265625 144.941406 L 22.277344 144.519531 C 15.058594 141.460938 8.273438 137.761719 2.1875 133.617188 C 8.910156 139.394531 18.132812 145.691406 30.128906 150.519531 C 32.019531 151.289062 33.492188 152.007812 34.914062 152.707031 C 37.546875 154 39.824219 155.117188 43.964844 156.09375 L 44.574219 156.234375 L 44.851562 156.792969 C 45.34375 157.78125 48.984375 178.011719 49.023438 178.210938 L 49.441406 180.484375 C 49.566406 180.847656 46.820312 179.421875 46.847656 179.441406 C 46.5 179.191406 44.210938 177.984375 41.5625 176.589844 C 24.859375 167.792969 -19.511719 144.425781 -36.523438 124.214844 C -38.507812 121.738281 -40.351562 118.886719 -42.019531 115.753906 C -39.667969 120.839844 -36.503906 126.074219 -32.253906 131.097656 C -22.265625 142.980469 -6.945312 151.976562 7.867188 160.671875 L 13.164062 164.421875 L 7.984375 163.726562 C -17.003906 159.421875 -38.917969 153.019531 -57.46875 144.625 C -50.25 148.398438 -40.289062 152.636719 -26.398438 156.90625 L -23.03125 157.941406 L -26.363281 159.4375 C -28.730469 160.242188 -30.941406 160.855469 -32.941406 161.257812 C -34.609375 161.59375 -36.300781 161.871094 -38.015625 162.089844 C -33.796875 161.957031 -29.648438 161.457031 -25.652344 160.601562 C -25.054688 160.472656 -21.113281 158.832031 -20.726562 158.648438 C -8.808594 162.214844 5.617188 165.9375 23.367188 170.019531 L 23.585938 170.066406 L 23.777344 170.191406 C 26.351562 171.8125 28.621094 173.316406 30.707031 174.785156 L 33.65625 176.863281 L 30.066406 177.199219 C 26.554688 177.527344 23.058594 178.453125 19.6875 179.941406 C 17.964844 180.703125 16.347656 181.738281 14.632812 182.832031 C 13.328125 183.667969 11.976562 184.53125 10.519531 185.308594 C 3.761719 188.902344 -3.683594 190.246094 -9.125 191.226562 C -12.191406 191.773438 -15.371094 192.191406 -18.570312 192.46875 C -18.535156 192.46875 -18.503906 192.46875 -18.472656 192.46875 C -12.617188 192.46875 -6.78125 191.929688 -1.152344 190.863281 L -1.050781 190.839844 L 3.492188 190.140625 L 0 193.210938 C -4.1875 196.359375 -8.808594 199.617188 -13.988281 201.957031 C -11.230469 201.027344 -7.996094 199.6875 -4.238281 197.777344 C -2.003906 196.636719 0.332031 195.378906 2.589844 194.164062 C 12.28125 188.945312 22.296875 183.546875 31.128906 183.546875 C 37.292969 183.546875 42.324219 186.265625 46.070312 191.621094 C 49.730469 196.84375 50.605469 203.636719 50.945312 208.292969 C 52.492188 229.503906 48.761719 254.292969 37.230469 264.742188 C 39.753906 264.96875 42.980469 266.660156 45.4375 266.660156 C 46.113281 266.660156 48.933594 268.003906 49.441406 267.972656 C 60.292969 267.226562 69.046875 265.804688 79.714844 265.308594 C 77.679688 259.058594 71.28125 236.515625 73.234375 222.039062 C 76.535156 197.65625 94.996094 194.835938 108.601562 194.835938 C 110.078125 194.835938 111.632812 194.871094 113.476562 194.9375 L 114.019531 194.957031 L 114.390625 195.351562 C 116.347656 197.40625 118.28125 199.183594 120.132812 200.625 C 123.316406 203.101562 126.667969 205.128906 129.90625 206.78125 C 127.878906 205.371094 126.125 204.058594 124.734375 203.007812 C 123.0625 201.753906 121.246094 200.011719 119.027344 197.527344 L 116.828125 195.070312 L 120.117188 195.316406 C 121.324219 195.40625 122.550781 195.503906 123.800781 195.601562 C 127.71875 195.914062 131.773438 196.234375 136.113281 196.390625 C 138.214844 196.476562 140.246094 196.519531 142.152344 196.519531 C 144.878906 196.519531 147.28125 196.433594 149.40625 196.28125 C 141.203125 196.273438 132.433594 194.800781 123.949219 193.367188 C 118.089844 192.382812 112.027344 191.359375 106.335938 190.867188 L 101.511719 190.445312 L 105.875 188.34375 C 107.6875 187.464844 109.382812 186.53125 110.96875 185.566406 C 106.757812 187.445312 103.003906 188.597656 100.328125 189.277344 C 97.527344 189.972656 91.804688 191.082031 89.652344 191.503906 C 89.316406 191.566406 88.910156 191.648438 88.910156 191.648438 C 79.960938 193.554688 74.359375 197.472656 71.234375 200.425781 L 69.507812 202.054688 L 68.910156 199.230469 C 68.113281 195.460938 67.421875 192.210938 68.277344 189.753906 C 71.628906 180.128906 86.53125 166.480469 96.042969 159.863281 L 96.523438 159.53125 L 100.359375 160.398438 C 117.230469 164.21875 138.230469 168.976562 154.242188 168.976562 C 155.1875 168.96875 156.121094 168.949219 157.039062 168.917969 C 143.242188 168.265625 123.261719 164.421875 102.429688 158.351562 L 99.492188 157.496094 L 102.121094 155.933594 C 112.914062 149.5 124.515625 145.179688 137.953125 140.167969 " fill-opacity="1" fill-rule="nonzero"/></g><path fill="#6bbfc2" d="M 7.726562 9.058594 C 7.722656 9.09375 -1.535156 21.574219 12.265625 30.960938 C 12.265625 31 21.660156 18.988281 7.726562 9.058594 " fill-opacity="1" fill-rule="nonzero"/><path fill="#6bbfc2" d="M 20.207031 12.8125 C 20.207031 12.8125 13.691406 18.742188 19.867188 25.449219 C 19.867188 25.449219 26.378906 19.859375 20.207031 12.8125 " fill-opacity="1" fill-rule="nonzero"/><path fill="#6bbfc2" d="M 24.65625 9.011719 C 24.652344 9.015625 22.914062 13.667969 28.15625 16.933594 C 28.492188 15.433594 29.914062 12.382812 24.65625 9.011719 " fill-opacity="1" fill-rule="nonzero"/><path fill="#6bbfc2" d="M 61.753906 6.839844 C 61.746094 6.796875 48.570312 15.015625 57.652344 29.25 C 57.648438 29.203125 70.734375 21.730469 61.753906 6.839844 " fill-opacity="1" fill-rule="nonzero"/><path fill="#6bbfc2" d="M 75.636719 4.429688 C 75.628906 4.4375 66.460938 15.644531 80.441406 27.042969 C 80.433594 27.046875 89.742188 16.472656 75.636719 4.429688 " fill-opacity="1" fill-rule="nonzero"/><g clip-path="url(#4603d76346)"><path fill="#6bbfc2" d="M -1.710938 25.371094 C -1.710938 25.4375 -8.449219 38.886719 7.265625 45.644531 C 7.265625 45.710938 14.234375 32.476562 -1.710938 25.371094 " fill-opacity="1" fill-rule="nonzero"/></g><path fill="#6bbfc2" d="M 27.523438 22.964844 C 27.515625 22.898438 12.472656 29.277344 17.371094 44.535156 C 17.363281 44.476562 32.164062 38.800781 27.523438 22.964844 " fill-opacity="1" fill-rule="nonzero"/><path fill="#6bbfc2" d="M 39.742188 25.734375 C 39.738281 25.695312 28.582031 30.054688 32.195312 41.492188 C 32.191406 41.460938 43.167969 37.5625 39.742188 25.734375 " fill-opacity="1" fill-rule="nonzero"/><path fill="#6bbfc2" d="M 68.714844 28.847656 C 68.710938 28.808594 57.535156 32.4375 61.117188 44.109375 C 61.113281 44.070312 72.101562 40.878906 68.714844 28.847656 " fill-opacity="1" fill-rule="nonzero"/><path fill="#6bbfc2" d="M 38.699219 5.78125 C 38.691406 5.738281 27.515625 10.152344 31.136719 21.570312 C 31.132812 21.53125 42.128906 17.601562 38.699219 5.78125 " fill-opacity="1" fill-rule="nonzero"/><path fill="#6bbfc2" d="M 47.847656 46.355469 C 47.847656 46.308594 35.921875 47.820312 35.992188 59.863281 C 35.992188 59.820312 47.621094 58.625 47.847656 46.355469 " fill-opacity="1" fill-rule="nonzero"/><path fill="#6bbfc2" d="M 71.5 35.183594 C 71.496094 35.195312 66.144531 42.625 75.945312 48.445312 C 75.941406 48.457031 81.410156 41.339844 71.5 35.183594 " fill-opacity="1" fill-rule="nonzero"/><path fill="#6bbfc2" d="M 44.265625 61.933594 C 44.265625 61.898438 34.023438 62.75 34.640625 72.886719 C 34.640625 72.859375 44.644531 72.28125 44.265625 61.933594 " fill-opacity="1" fill-rule="nonzero"/><path fill="#6bbfc2" d="M 92.292969 22.667969 C 92.292969 22.628906 82.023438 22.34375 82.589844 32.515625 C 82.589844 32.484375 92.625 32.972656 92.292969 22.667969 " fill-opacity="1" fill-rule="nonzero"/><path fill="#6bbfc2" d="M 56.300781 62.734375 C 56.300781 62.71875 48.023438 63.753906 49.246094 71.957031 C 49.246094 71.9375 57.347656 71.136719 56.300781 62.734375 " fill-opacity="1" fill-rule="nonzero"/><path fill="#6bbfc2" d="M 56.371094 45.621094 C 56.371094 45.644531 55.945312 38.230469 46.523438 38.628906 C 46.523438 38.652344 46.726562 45.734375 56.371094 45.621094 " fill-opacity="1" fill-rule="nonzero"/><path fill="#6bbfc2" d="M 58.230469 54.46875 C 58.230469 54.488281 57.863281 48.023438 49.644531 48.320312 C 49.644531 48.335938 49.824219 54.535156 58.230469 54.46875 " fill-opacity="1" fill-rule="nonzero"/><path fill="#6bbfc2" d="M 61.332031 59.558594 C 61.332031 59.566406 59.210938 54.726562 53.070312 56.742188 C 53.070312 56.75 55 61.421875 61.332031 59.558594 " fill-opacity="1" fill-rule="nonzero"/><path fill="#6bbfc2" d="M 68.511719 70.867188 C 68.511719 70.882812 65.6875 64.367188 57.488281 66.980469 C 57.488281 66.996094 60.0625 73.246094 68.511719 70.867188 " fill-opacity="1" fill-rule="nonzero"/><path fill="#6bbfc2" d="M 50.539062 54.332031 C 50.535156 54.316406 42.847656 57.28125 46.441406 64.882812 C 46.4375 64.867188 54.03125 62.199219 50.539062 54.332031 " fill-opacity="1" fill-rule="nonzero"/><path fill="#6bbfc2" d="M 71.945312 23.9375 C 71.945312 23.953125 68.59375 30.476562 77.183594 34.300781 C 77.183594 34.3125 80.667969 28.003906 71.945312 23.9375 " fill-opacity="1" fill-rule="nonzero"/><g clip-path="url(#54bdce900c)"><path fill="#6bbfc2" d="M 45.148438 1.703125 C 45.148438 1.71875 41.804688 8.453125 50.433594 11.773438 C 50.429688 11.789062 53.90625 5.238281 45.148438 1.703125 " fill-opacity="1" fill-rule="nonzero"/></g><g clip-path="url(#1d5cbd359a)"><path fill="#6bbfc2" d="M -4.453125 13.828125 C -4.453125 13.851562 -7.746094 20.90625 0.828125 23.199219 C 0.828125 23.21875 4.246094 16.296875 -4.453125 13.828125 " fill-opacity="1" fill-rule="nonzero"/></g><path fill="#6bbfc2" d="M 40.867188 88.8125 C 40.867188 88.820312 47.136719 81.539062 38.097656 75.445312 C 38.097656 75.449219 31.773438 82.433594 40.867188 88.8125 " fill-opacity="1" fill-rule="nonzero"/><path fill="#6bbfc2" d="M 54.949219 36.28125 C 54.949219 36.3125 56.867188 27.359375 45.5 25.449219 C 45.496094 25.480469 43.375 34.015625 54.949219 36.28125 " fill-opacity="1" fill-rule="nonzero"/><path fill="#6bbfc2" d="M 50.246094 81.855469 C 50.246094 81.835938 59.140625 81.421875 58.683594 72.628906 C 58.683594 72.609375 49.980469 72.808594 50.246094 81.855469 " fill-opacity="1" fill-rule="nonzero"/><path fill="#6bbfc2" d="M 15.367188 122.929688 C 15.367188 122.910156 24.199219 121.964844 23.71875 113.207031 C 23.714844 113.191406 15.070312 113.933594 15.367188 122.929688 " fill-opacity="1" fill-rule="nonzero"/><path fill="#6bbfc2" d="M 34.671875 48.414062 C 34.667969 48.386719 43.585938 47.695312 43.117188 38.914062 C 43.113281 38.886719 34.386719 39.378906 34.671875 48.414062 " fill-opacity="1" fill-rule="nonzero"/><path fill="#6bbfc2" d="M 39.976562 22.753906 C 39.976562 22.722656 48.917969 22.128906 48.457031 13.34375 C 48.457031 13.316406 39.703125 13.707031 39.976562 22.753906 " fill-opacity="1" fill-rule="nonzero"/><path fill="#6bbfc2" d="M 33.050781 89.285156 C 33.050781 89.3125 28.855469 98.15625 39.980469 102.140625 C 39.980469 102.164062 44.351562 93.535156 33.050781 89.285156 " fill-opacity="1" fill-rule="nonzero"/><path fill="#6bbfc2" d="M 21.550781 54.304688 C 21.546875 54.328125 17.351562 63.265625 28.511719 66.960938 C 28.511719 66.984375 32.882812 58.238281 21.550781 54.304688 " fill-opacity="1" fill-rule="nonzero"/><path fill="#6bbfc2" d="M 23.664062 45.042969 C 23.664062 45.066406 21.226562 52.769531 30.984375 54.820312 C 30.984375 54.839844 33.59375 47.25 23.664062 45.042969 " fill-opacity="1" fill-rule="nonzero"/><path fill="#6bbfc2" d="M 67.351562 46.679688 C 67.347656 46.699219 63.105469 55.253906 74.265625 59.996094 C 74.265625 60.015625 78.6875 51.726562 67.351562 46.679688 " fill-opacity="1" fill-rule="nonzero"/><path fill="#6bbfc2" d="M 69.203125 123.210938 C 69.203125 123.21875 63.898438 130.761719 73.613281 136.390625 C 73.609375 136.394531 79.027344 129.171875 69.203125 123.210938 " fill-opacity="1" fill-rule="nonzero"/><path fill="#6bbfc2" d="M 72.902344 115.28125 C 72.902344 115.289062 69.578125 121.871094 78.089844 125.558594 C 78.085938 125.570312 81.542969 119.210938 72.902344 115.28125 " fill-opacity="1" fill-rule="nonzero"/><path fill="#6bbfc2" d="M 65.097656 134.78125 C 65.09375 134.796875 60.890625 143.4375 71.953125 147.976562 C 71.949219 147.992188 76.332031 139.628906 65.097656 134.78125 " fill-opacity="1" fill-rule="nonzero"/><path fill="#6bbfc2" d="M 64.949219 148.132812 C 64.949219 148.148438 60.75 156.800781 71.800781 161.316406 C 71.796875 161.328125 76.175781 152.957031 64.949219 148.132812 " fill-opacity="1" fill-rule="nonzero"/><path fill="#6bbfc2" d="M 57.503906 99.140625 C 57.503906 99.109375 46.753906 98.207031 45.460938 108.917969 C 45.460938 108.886719 55.914062 109.972656 57.503906 99.140625 " fill-opacity="1" fill-rule="nonzero"/><path fill="#6bbfc2" d="M 49.785156 92.585938 C 49.785156 92.5625 59.769531 95.164062 63.21875 85.402344 C 63.222656 85.382812 53.53125 82.488281 49.785156 92.585938 " fill-opacity="1" fill-rule="nonzero"/><path fill="#6bbfc2" d="M 78.890625 71.746094 C 78.894531 71.726562 88.855469 74.96875 92.421875 65.511719 C 92.425781 65.496094 82.769531 61.9375 78.890625 71.746094 " fill-opacity="1" fill-rule="nonzero"/><path fill="#6bbfc2" d="M 82.496094 61.539062 C 82.5 61.507812 92.867188 63.171875 94.21875 53.144531 C 94.222656 53.113281 84.113281 51.164062 82.496094 61.539062 " fill-opacity="1" fill-rule="nonzero"/><path fill="#6bbfc2" d="M 82.910156 50.214844 C 82.910156 50.1875 93.230469 52.285156 95.109375 42.386719 C 95.113281 42.355469 85.0625 39.960938 82.910156 50.214844 " fill-opacity="1" fill-rule="nonzero"/><path fill="#6bbfc2" d="M 83.753906 40.316406 C 83.757812 40.285156 94.085938 42.433594 95.96875 32.542969 C 95.96875 32.515625 85.914062 30.066406 83.753906 40.316406 " fill-opacity="1" fill-rule="nonzero"/><path fill="#6bbfc2" d="M 122.472656 17.640625 C 122.46875 17.601562 112.792969 22.425781 119.734375 33.808594 C 119.734375 33.773438 129.335938 29.464844 122.472656 17.640625 " fill-opacity="1" fill-rule="nonzero"/><path fill="#6bbfc2" d="M 112.207031 82.214844 C 112.210938 82.222656 103.933594 75.152344 94.953125 81.867188 C 94.953125 81.882812 102.847656 88.5625 112.207031 82.214844 " fill-opacity="1" fill-rule="nonzero"/><path fill="#6bbfc2" d="M 105.492188 89.375 C 105.496094 89.375 96.179688 83.636719 88.714844 91.800781 C 88.714844 91.804688 97.648438 97.269531 105.492188 89.375 " fill-opacity="1" fill-rule="nonzero"/><path fill="#6bbfc2" d="M 93.78125 97.445312 C 93.785156 97.4375 84.09375 92.496094 77.339844 101.332031 C 77.34375 101.328125 86.648438 106.078125 93.78125 97.445312 " fill-opacity="1" fill-rule="nonzero"/><path fill="#6bbfc2" d="M 108.171875 37.808594 C 108.171875 37.785156 100.3125 42.609375 107.59375 51.21875 C 107.589844 51.199219 115.433594 46.789062 108.171875 37.808594 " fill-opacity="1" fill-rule="nonzero"/><path fill="#6bbfc2" d="M 131.007812 37.0625 C 131.011719 37.042969 121.902344 33.332031 118.980469 41.824219 C 118.980469 41.808594 127.8125 45.453125 131.007812 37.0625 " fill-opacity="1" fill-rule="nonzero"/><path fill="#6bbfc2" d="M 112.714844 27.972656 C 112.714844 27.964844 107.101562 32.578125 113.949219 39.046875 C 113.949219 39.039062 119.59375 34.75 112.714844 27.972656 " fill-opacity="1" fill-rule="nonzero"/><path fill="#6bbfc2" d="M 133.15625 79.378906 C 133.15625 79.359375 126.285156 82.332031 131.359375 89.84375 C 131.359375 89.824219 138.175781 87.167969 133.15625 79.378906 " fill-opacity="1" fill-rule="nonzero"/><path fill="#6bbfc2" d="M 139.820312 73.585938 C 139.820312 73.566406 132.964844 76.394531 138.023438 83.96875 C 138.023438 83.949219 144.835938 81.429688 139.820312 73.585938 " fill-opacity="1" fill-rule="nonzero"/><g clip-path="url(#95346066e2)"><path fill="#6bbfc2" d="M 67.265625 1.496094 C 67.265625 1.496094 61.773438 6.597656 68.527344 12.300781 C 68.523438 12.296875 74.050781 7.492188 67.265625 1.496094 " fill-opacity="1" fill-rule="nonzero"/></g><path fill="#6bbfc2" d="M 158.964844 47.253906 C 158.96875 47.21875 149.8125 47.550781 152.847656 57.15625 C 152.851562 57.121094 161.855469 57.042969 158.964844 47.253906 " fill-opacity="1" fill-rule="nonzero"/><path fill="#6bbfc2" d="M 164.464844 96.789062 C 164.464844 96.777344 159.089844 100.710938 165.605469 107.296875 C 165.605469 107.28125 171 103.675781 164.464844 96.789062 " fill-opacity="1" fill-rule="nonzero"/><path fill="#6bbfc2" d="M 191.835938 109.953125 C 191.839844 109.941406 184.015625 107.277344 183.050781 114.566406 C 183.054688 114.554688 190.683594 117.207031 191.835938 109.953125 " fill-opacity="1" fill-rule="nonzero"/><path fill="#6bbfc2" d="M 183.695312 76.996094 C 183.707031 76.96875 174.367188 74.15625 173.839844 83.0625 C 173.847656 83.039062 182.957031 85.859375 183.695312 76.996094 " fill-opacity="1" fill-rule="nonzero"/><path fill="#6bbfc2" d="M 174.542969 63.097656 C 174.546875 63.066406 165.558594 61.945312 166.992188 71.019531 C 167 70.988281 175.800781 72.25 174.542969 63.097656 " fill-opacity="1" fill-rule="nonzero"/><path fill="#6bbfc2" d="M 188.398438 118.570312 C 188.402344 118.570312 181.15625 114.1875 177.597656 120.363281 C 177.601562 120.367188 184.621094 124.605469 188.398438 118.570312 " fill-opacity="1" fill-rule="nonzero"/><path fill="#6bbfc2" d="M 175.273438 107.722656 C 175.273438 107.699219 167.921875 108.628906 171.148438 116.4375 C 171.152344 116.410156 178.394531 115.714844 175.273438 107.722656 " fill-opacity="1" fill-rule="nonzero"/><path fill="#6bbfc2" d="M 147.070312 37.820312 C 147.070312 37.804688 141.140625 41.246094 147.152344 48.304688 C 147.152344 48.289062 153.074219 45.171875 147.070312 37.820312 " fill-opacity="1" fill-rule="nonzero"/><path fill="#6bbfc2" d="M 132.53125 26.816406 C 132.53125 26.789062 124.546875 26.445312 125.824219 34.488281 C 125.828125 34.464844 133.648438 34.976562 132.53125 26.816406 " fill-opacity="1" fill-rule="nonzero"/><path fill="#6bbfc2" d="M 166.976562 114.023438 C 166.980469 114 159.609375 115.117188 162.84375 122.902344 C 162.84375 122.878906 170.113281 121.992188 166.976562 114.023438 " fill-opacity="1" fill-rule="nonzero"/><path fill="#6bbfc2" d="M 178.472656 133.335938 C 178.46875 133.359375 173.789062 126.890625 166.546875 129.972656 C 166.546875 129.992188 170.984375 136.199219 178.472656 133.335938 " fill-opacity="1" fill-rule="nonzero"/><path fill="#6bbfc2" d="M 172.117188 139.441406 C 172.117188 139.464844 169.167969 132.546875 160.839844 133.859375 C 160.839844 133.886719 163.558594 140.53125 172.117188 139.441406 " fill-opacity="1" fill-rule="nonzero"/><path fill="#6bbfc2" d="M 158.742188 150.742188 C 158.742188 150.761719 155.773438 143.878906 147.417969 145.496094 C 147.417969 145.515625 150.148438 152.152344 158.742188 150.742188 " fill-opacity="1" fill-rule="nonzero"/><path fill="#6bbfc2" d="M 171.734375 152.84375 C 171.730469 152.859375 168.78125 145.988281 160.457031 147.402344 C 160.453125 147.421875 163.175781 154.042969 171.734375 152.84375 " fill-opacity="1" fill-rule="nonzero"/><path fill="#6bbfc2" d="M 183.699219 136.398438 C 183.703125 136.382812 175.816406 134.917969 175.96875 142.5625 C 175.972656 142.546875 183.679688 144.074219 183.699219 136.398438 " fill-opacity="1" fill-rule="nonzero"/><path fill="#6bbfc2" d="M 185.675781 149.285156 C 185.675781 149.296875 179.773438 143.597656 173.808594 148.121094 C 173.808594 148.136719 179.464844 153.617188 185.675781 149.285156 " fill-opacity="1" fill-rule="nonzero"/><path fill="#6bbfc2" d="M 184.105469 125.742188 C 184.105469 125.746094 177.484375 120.570312 172.570312 125.914062 C 172.570312 125.921875 178.949219 130.90625 184.105469 125.742188 " fill-opacity="1" fill-rule="nonzero"/><path fill="#6bbfc2" d="M 136.5 131.5625 C 136.5 131.578125 132.207031 125.085938 124.53125 128.351562 C 124.53125 128.371094 128.570312 134.628906 136.5 131.5625 " fill-opacity="1" fill-rule="nonzero"/><path fill="#6bbfc2" d="M 144.960938 129.140625 C 144.960938 129.15625 140.699219 122.613281 133.019531 125.71875 C 133.019531 125.738281 137.03125 132.035156 144.960938 129.140625 " fill-opacity="1" fill-rule="nonzero"/><path fill="#6bbfc2" d="M 151.835938 124.898438 C 151.835938 124.914062 147.980469 118.945312 141.027344 121.625 C 141.027344 121.644531 144.660156 127.390625 151.835938 124.898438 " fill-opacity="1" fill-rule="nonzero"/><path fill="#6bbfc2" d="M 154.535156 118.386719 C 154.535156 118.390625 150.109375 114.941406 146.566406 118.664062 C 146.570312 118.667969 150.820312 122.039062 154.535156 118.386719 " fill-opacity="1" fill-rule="nonzero"/><path fill="#6bbfc2" d="M 135.949219 108.636719 C 135.949219 108.605469 126.945312 111.421875 132.03125 120.964844 C 132.03125 120.933594 140.929688 118.476562 135.949219 108.636719 " fill-opacity="1" fill-rule="nonzero"/><path fill="#6bbfc2" d="M 143.449219 106.238281 C 143.449219 106.214844 136.199219 108.472656 140.464844 116.238281 C 140.464844 116.21875 147.636719 114.238281 143.449219 106.238281 " fill-opacity="1" fill-rule="nonzero"/><path fill="#6bbfc2" d="M 126.476562 111.789062 C 126.476562 111.769531 119.203125 114.3125 123.492188 122.003906 C 123.492188 121.984375 130.691406 119.722656 126.476562 111.789062 " fill-opacity="1" fill-rule="nonzero"/><path fill="#6bbfc2" d="M 95.421875 58.265625 C 95.417969 58.257812 89.816406 63.183594 96.675781 69.347656 C 96.671875 69.34375 102.3125 64.730469 95.421875 58.265625 " fill-opacity="1" fill-rule="nonzero"/><path fill="#6bbfc2" d="M 80.476562 74.410156 C 80.472656 74.40625 74.875 79.546875 81.742188 85.496094 C 81.742188 85.496094 87.375 80.65625 80.476562 74.410156 " fill-opacity="1" fill-rule="nonzero"/><path fill="#6bbfc2" d="M 100.003906 46.667969 C 100 46.660156 92.796875 53.007812 101.769531 61.042969 C 101.765625 61.03125 109.011719 55.109375 100.003906 46.667969 " fill-opacity="1" fill-rule="nonzero"/><path fill="#6bbfc2" d="M 102.75 73.40625 C 102.75 73.410156 111.1875 79.5 118.105469 72.230469 C 118.109375 72.234375 110.046875 65.8125 102.75 73.40625 " fill-opacity="1" fill-rule="nonzero"/><path fill="#6bbfc2" d="M 82.128906 121.550781 C 82.132812 121.5 95.90625 119.242188 92.183594 105.371094 C 92.1875 105.320312 78.625 107.253906 82.128906 121.550781 " fill-opacity="1" fill-rule="nonzero"/><path fill="#6bbfc2" d="M 142.4375 84.011719 C 142.449219 83.96875 156.296875 88.59375 159.199219 75.980469 C 159.214844 75.941406 145.761719 70.765625 142.4375 84.011719 " fill-opacity="1" fill-rule="nonzero"/><path fill="#6bbfc2" d="M 153.3125 71.539062 C 153.324219 71.46875 167.203125 72.953125 165.269531 59.179688 C 165.277344 59.109375 151.652344 57.242188 153.3125 71.539062 " fill-opacity="1" fill-rule="nonzero"/><path fill="#6bbfc2" d="M 147.976562 114.839844 C 147.984375 114.777344 161.390625 113.65625 156.96875 99.847656 C 156.976562 99.785156 143.753906 100.574219 147.976562 114.839844 " fill-opacity="1" fill-rule="nonzero"/><path fill="#6bbfc2" d="M 169.960938 106.457031 C 169.96875 106.421875 179.816406 106.117188 176.574219 95.898438 C 176.582031 95.859375 166.867188 95.921875 169.960938 106.457031 " fill-opacity="1" fill-rule="nonzero"/><path fill="#6bbfc2" d="M 152.183594 98.28125 C 152.183594 98.242188 162.105469 97.59375 158.839844 87.324219 C 158.839844 87.285156 149.058594 87.699219 152.183594 98.28125 " fill-opacity="1" fill-rule="nonzero"/><path fill="#6bbfc2" d="M 183.128906 106.992188 C 183.136719 106.925781 194.855469 104.863281 188.148438 91.832031 C 188.160156 91.761719 176.519531 93.609375 183.128906 106.992188 " fill-opacity="1" fill-rule="nonzero"/><path fill="#6bbfc2" d="M 135.824219 51.542969 C 135.824219 51.5 146.394531 46.269531 137.027344 34.074219 C 137.027344 34.03125 126.472656 39.0625 135.824219 51.542969 " fill-opacity="1" fill-rule="nonzero"/><path fill="#6bbfc2" d="M 86.324219 20.214844 C 86.324219 20.175781 96.238281 18.683594 93.269531 8.675781 C 93.273438 8.636719 83.507812 9.921875 86.324219 20.214844 " fill-opacity="1" fill-rule="nonzero"/><path fill="#6bbfc2" d="M 112.71875 25.332031 C 112.714844 25.339844 117.515625 18.132812 107.371094 11.957031 C 107.371094 11.964844 102.464844 18.886719 112.71875 25.332031 " fill-opacity="1" fill-rule="nonzero"/><path fill="#6bbfc2" d="M 119.382812 73.230469 C 119.390625 73.1875 133.347656 77.261719 136.265625 64.296875 C 136.273438 64.253906 122.703125 59.65625 119.382812 73.230469 " fill-opacity="1" fill-rule="nonzero"/><path fill="#6bbfc2" d="M 107.84375 64.402344 C 107.84375 64.40625 115.652344 70.148438 122.066406 63.507812 C 122.070312 63.515625 114.601562 57.480469 107.84375 64.402344 " fill-opacity="1" fill-rule="nonzero"/><path fill="#6bbfc2" d="M 113.28125 56.460938 C 113.285156 56.457031 121.832031 61.367188 126.882812 53.90625 C 126.886719 53.90625 118.664062 48.683594 113.28125 56.460938 " fill-opacity="1" fill-rule="nonzero"/><path fill="#6bbfc2" d="M 137.410156 52.605469 C 137.414062 52.570312 128.003906 52.511719 129.90625 62.054688 C 129.910156 62.023438 139.128906 62.292969 137.410156 52.605469 " fill-opacity="1" fill-rule="nonzero"/><path fill="#6bbfc2" d="M 161.152344 85.667969 C 161.160156 85.605469 174.847656 87.34375 172.800781 73.839844 C 172.8125 73.773438 159.375 71.652344 161.152344 85.667969 " fill-opacity="1" fill-rule="nonzero"/><path fill="#6bbfc2" d="M 164.796875 93.984375 C 164.804688 93.953125 177.929688 98.882812 180.332031 87.058594 C 180.34375 87.027344 167.597656 81.578125 164.796875 93.984375 " fill-opacity="1" fill-rule="nonzero"/><path fill="#6bbfc2" d="M 117.382812 48.585938 C 117.386719 48.578125 125.933594 53.589844 130.984375 46.222656 C 130.984375 46.21875 122.769531 40.894531 117.382812 48.585938 " fill-opacity="1" fill-rule="nonzero"/><path fill="#6bbfc2" d="M 93.222656 121.960938 C 93.222656 121.945312 85.105469 120.257812 83.445312 128.226562 C 83.449219 128.21875 91.328125 129.992188 93.222656 121.960938 " fill-opacity="1" fill-rule="nonzero"/><path fill="#6bbfc2" d="M 80.542969 144.476562 C 80.542969 144.460938 90.074219 146.757812 92.625 137.503906 C 92.625 137.484375 83.363281 134.925781 80.542969 144.476562 " fill-opacity="1" fill-rule="nonzero"/><path fill="#6bbfc2" d="M 80.929688 151.984375 C 80.933594 151.976562 90.289062 155.621094 94.597656 146.644531 C 94.597656 146.640625 85.546875 142.71875 80.929688 151.984375 " fill-opacity="1" fill-rule="nonzero"/><path fill="#6bbfc2" d="M 81.75 135.675781 C 81.753906 135.664062 89.917969 137.625 92.058594 129.703125 C 92.058594 129.691406 84.125 127.511719 81.75 135.675781 " fill-opacity="1" fill-rule="nonzero"/><path fill="#6bbfc2" d="M 129.78125 76.878906 C 129.785156 76.867188 122.34375 72.972656 118.632812 79.785156 C 118.632812 79.777344 125.816406 83.589844 129.78125 76.878906 " fill-opacity="1" fill-rule="nonzero"/><path fill="#6bbfc2" d="M 116.859375 87.808594 C 116.863281 87.808594 124.136719 92.050781 128.585938 85.640625 C 128.589844 85.640625 121.59375 81.175781 116.859375 87.808594 " fill-opacity="1" fill-rule="nonzero"/><path fill="#6bbfc2" d="M 136.550781 90.632812 C 136.554688 90.632812 143.792969 95.105469 148.222656 88.960938 C 148.222656 88.964844 141.273438 84.257812 136.550781 90.632812 " fill-opacity="1" fill-rule="nonzero"/><path fill="#6bbfc2" d="M 133.171875 96.242188 C 133.175781 96.25 139.847656 101.347656 145.300781 95.871094 C 145.300781 95.875 138.925781 90.5625 133.171875 96.242188 " fill-opacity="1" fill-rule="nonzero"/><path fill="#6bbfc2" d="M 129.09375 103.035156 C 129.097656 103.042969 135.777344 108.074219 141.230469 102.507812 C 141.234375 102.515625 134.851562 97.277344 129.09375 103.035156 " fill-opacity="1" fill-rule="nonzero"/><path fill="#6bbfc2" d="M 99.796875 97.289062 C 99.796875 97.304688 99.503906 104.46875 108.785156 105.714844 C 108.78125 105.730469 109.300781 98.683594 99.796875 97.289062 " fill-opacity="1" fill-rule="nonzero"/><path fill="#6bbfc2" d="M 98.855469 105.941406 C 98.851562 105.96875 98.507812 114.46875 109.527344 115.914062 C 109.523438 115.9375 110.140625 107.550781 98.855469 105.941406 " fill-opacity="1" fill-rule="nonzero"/><path fill="#6bbfc2" d="M 114.542969 96.804688 C 114.546875 96.792969 122.464844 99.6875 125.132812 92.339844 C 125.136719 92.332031 117.464844 89.207031 114.542969 96.804688 " fill-opacity="1" fill-rule="nonzero"/><path fill="#6bbfc2" d="M 145.917969 50.796875 C 145.917969 50.738281 134.53125 57.320312 144.421875 71.441406 C 144.421875 71.378906 155.753906 65.527344 145.917969 50.796875 " fill-opacity="1" fill-rule="nonzero"/><path fill="#6bbfc2" d="M 101.742188 17.570312 C 101.734375 17.527344 90.226562 25.277344 100.296875 38.832031 C 100.292969 38.789062 111.769531 31.753906 101.742188 17.570312 " fill-opacity="1" fill-rule="nonzero"/><g clip-path="url(#b315fb72bb)"><path fill="#6bbfc2" d="M 2.011719 66.085938 C 2.015625 66.097656 -0.292969 60.328125 -7.9375 63.4375 C -7.933594 63.445312 -5.875 68.992188 2.011719 66.085938 " fill-opacity="1" fill-rule="nonzero"/></g><path fill="#6bbfc2" d="M 9.230469 62.703125 C 9.226562 62.703125 14.605469 58.078125 9.332031 53.160156 C 9.328125 53.160156 3.957031 57.589844 9.230469 62.703125 " fill-opacity="1" fill-rule="nonzero"/><path fill="#6bbfc2" d="M 18.050781 101.171875 C 18.050781 101.175781 23.417969 96.679688 18.160156 91.617188 C 18.160156 91.617188 12.796875 95.90625 18.050781 101.171875 " fill-opacity="1" fill-rule="nonzero"/><path fill="#6bbfc2" d="M 109.269531 124.425781 C 109.269531 124.4375 110.386719 118.335938 102.46875 116.5 C 102.46875 116.503906 101.207031 122.386719 109.269531 124.425781 " fill-opacity="1" fill-rule="nonzero"/><g clip-path="url(#274a3b5ffe)"><path fill="#6bbfc2" d="M 8.976562 72.707031 C 8.976562 72.71875 6.675781 66.902344 -0.980469 69.882812 C -0.980469 69.898438 1.082031 75.492188 8.976562 72.707031 " fill-opacity="1" fill-rule="nonzero"/></g><g clip-path="url(#2d84abdfb2)"><path fill="#6bbfc2" d="M -0.84375 50.890625 C -0.84375 50.890625 3.605469 46.089844 -1.863281 42.261719 C -1.867188 42.265625 -6.332031 46.871094 -0.84375 50.890625 " fill-opacity="1" fill-rule="nonzero"/></g><path fill="#6bbfc2" d="M 4.902344 77.269531 C 4.902344 77.273438 8.097656 82.046875 14.660156 78.476562 C 14.664062 78.484375 11.691406 73.609375 4.902344 77.269531 " fill-opacity="1" fill-rule="nonzero"/><path fill="#6bbfc2" d="M 3.210938 56.585938 C 3.210938 56.582031 8.832031 52.957031 4.953125 47.746094 C 4.949219 47.742188 -0.625 51.191406 3.210938 56.585938 " fill-opacity="1" fill-rule="nonzero"/><path fill="#6bbfc2" d="M 25.050781 152.449219 C 25.050781 152.449219 18.667969 146.429688 10.640625 153.199219 C 10.640625 153.199219 16.667969 159.070312 25.050781 152.449219 " fill-opacity="1" fill-rule="nonzero"/><path fill="#6bbfc2" d="M 47.816406 117.101562 C 47.816406 117.089844 39.722656 120.128906 43.328125 128.164062 C 43.324219 128.148438 51.316406 125.414062 47.816406 117.101562 " fill-opacity="1" fill-rule="nonzero"/><g clip-path="url(#b3ff37baed)"><path fill="#6bbfc2" d="M -10.628906 136.988281 C -10.625 137 -6.710938 145.304688 4.550781 140.675781 C 4.550781 140.695312 0.964844 132.195312 -10.628906 136.988281 " fill-opacity="1" fill-rule="nonzero"/></g><g clip-path="url(#320f0b8fae)"><path fill="#6bbfc2" d="M -0.195312 145.773438 C -0.191406 145.777344 5.199219 153.472656 15.6875 147.617188 C 15.6875 147.628906 10.644531 139.722656 -0.195312 145.773438 " fill-opacity="1" fill-rule="nonzero"/></g><path fill="#6bbfc2" d="M 25.746094 143.113281 C 25.742188 143.117188 33.050781 136.394531 24.972656 129.359375 C 24.96875 129.367188 17.65625 135.796875 25.746094 143.113281 " fill-opacity="1" fill-rule="nonzero"/><path fill="#6bbfc2" d="M 14.464844 137.828125 C 14.460938 137.839844 20.910156 130.277344 11.886719 124.335938 C 11.886719 124.34375 5.386719 131.582031 14.464844 137.828125 " fill-opacity="1" fill-rule="nonzero"/><path fill="#6bbfc2" d="M 4.214844 130.769531 C 4.214844 130.777344 10.246094 124.058594 2.375 118.617188 C 2.371094 118.628906 -3.695312 125.054688 4.214844 130.769531 " fill-opacity="1" fill-rule="nonzero"/><path fill="#6bbfc2" d="M 10.40625 97.851562 C 10.402344 97.863281 17.746094 89.71875 8.160156 83.097656 C 8.160156 83.109375 0.78125 90.914062 10.40625 97.851562 " fill-opacity="1" fill-rule="nonzero"/><g clip-path="url(#8595e66206)"><path fill="#6bbfc2" d="M -1.527344 90.796875 C -1.53125 90.800781 6.363281 83.480469 -1.902344 76.414062 C -1.902344 76.421875 -9.792969 83.4375 -1.527344 90.796875 " fill-opacity="1" fill-rule="nonzero"/></g><path fill="#6bbfc2" d="M 172.855469 155.960938 C 172.851562 156 176.28125 165.480469 164.390625 165.90625 C 164.386719 165.945312 160.773438 156.441406 172.855469 155.960938 " fill-opacity="1" fill-rule="nonzero"/><path fill="#6bbfc2" d="M 183.296875 154.621094 C 183.292969 154.648438 186.574219 162.625 176.757812 163.148438 C 176.753906 163.175781 173.335938 155.214844 183.296875 154.621094 " fill-opacity="1" fill-rule="nonzero"/><path fill="#6bbfc2" d="M 191.722656 150.632812 C 191.722656 150.65625 196.882812 158.242188 188.480469 160.621094 C 188.476562 160.652344 183.246094 153.1875 191.722656 150.632812 " fill-opacity="1" fill-rule="nonzero"/><path fill="#6bbfc2" d="M 123.566406 161 C 123.5625 161.035156 122.035156 150.574219 135.429688 151.660156 C 135.425781 151.695312 137.238281 161.652344 123.566406 161 " fill-opacity="1" fill-rule="nonzero"/><path fill="#6bbfc2" d="M 139.535156 164.386719 C 139.53125 164.421875 136.839844 154.375 149.386719 154.464844 C 149.382812 154.5 152.3125 164.058594 139.535156 164.386719 " fill-opacity="1" fill-rule="nonzero"/><path fill="#6bbfc2" d="M 153.261719 165.441406 C 153.261719 165.476562 149.675781 156.394531 160.671875 155.527344 C 160.667969 155.558594 164.433594 164.214844 153.261719 165.441406 " fill-opacity="1" fill-rule="nonzero"/><g clip-path="url(#5efa72f347)"><path fill="#6bbfc2" d="M -1.246094 114.820312 C -1.242188 114.804688 8.015625 120.449219 16.414062 110.828125 C 16.417969 110.8125 7.53125 104.832031 -1.246094 114.820312 " fill-opacity="1" fill-rule="nonzero"/></g><g clip-path="url(#a77e0b77b9)"><path fill="#6bbfc2" d="M -13.632812 108.824219 C -13.632812 108.808594 -4.386719 114.203125 3.996094 104.410156 C 4 104.394531 -4.882812 98.652344 -13.632812 108.824219 " fill-opacity="1" fill-rule="nonzero"/></g><path fill="#6bbfc2" d="M 13.59375 180.175781 C 13.589844 180.183594 17.042969 174.476562 10.101562 171.34375 C 10.101562 171.351562 6.578125 176.824219 13.59375 180.175781 " fill-opacity="1" fill-rule="nonzero"/><g clip-path="url(#aeed2b7e7b)"><path fill="#6bbfc2" d="M 0.167969 174.234375 C 0.167969 174.25 -1.9375 181.5625 7.199219 183.214844 C 7.199219 183.230469 9.476562 176.035156 0.167969 174.234375 " fill-opacity="1" fill-rule="nonzero"/></g><path fill="#6bbfc2" d="M 118.632812 183.65625 C 118.628906 183.664062 121.015625 177.71875 130.429688 181.132812 C 130.429688 181.140625 128.328125 186.875 118.632812 183.65625 " fill-opacity="1" fill-rule="nonzero"/><path fill="#6bbfc2" d="M 125.851562 191.03125 C 125.851562 191.046875 125.792969 184.574219 135.628906 185.167969 C 135.625 185.183594 135.921875 191.367188 125.851562 191.03125 " fill-opacity="1" fill-rule="nonzero"/><path fill="#6bbfc2" d="M 135.644531 192.671875 C 135.644531 192.6875 134.175781 186.246094 143.734375 185.269531 C 143.734375 185.289062 145.398438 191.414062 135.644531 192.671875 " fill-opacity="1" fill-rule="nonzero"/><path fill="#6bbfc2" d="M 145.808594 193.570312 C 145.804688 193.585938 143.292969 187.316406 152.394531 185.203125 C 152.394531 185.226562 155.0625 191.171875 145.808594 193.570312 " fill-opacity="1" fill-rule="nonzero"/><path fill="#6bbfc2" d="M 155.707031 192.277344 C 155.707031 192.296875 154.003906 185.917969 163.441406 184.941406 C 163.4375 184.960938 165.328125 191.015625 155.707031 192.277344 " fill-opacity="1" fill-rule="nonzero"/><path fill="#6bbfc2" d="M 165.261719 193.128906 C 165.257812 193.160156 164.417969 185.265625 176.378906 185.78125 C 176.375 185.8125 177.496094 193.257812 165.261719 193.128906 " fill-opacity="1" fill-rule="nonzero"/><path fill="#6bbfc2" d="M 141.542969 212.75 C 141.542969 212.71875 150.851562 207.8125 160.144531 219.328125 C 160.140625 219.296875 151.3125 224.316406 141.542969 212.75 " fill-opacity="1" fill-rule="nonzero"/><path fill="#6bbfc2" d="M 110.292969 181.507812 C 110.296875 181.519531 106.484375 174.246094 114.773438 168.851562 C 114.777344 168.871094 118.683594 175.777344 110.292969 181.507812 " fill-opacity="1" fill-rule="nonzero"/><path fill="#6bbfc2" d="M 102.796875 185.957031 C 102.796875 185.964844 97.222656 180.316406 103.4375 172.070312 C 103.4375 172.074219 109.023438 177.394531 102.796875 185.957031 " fill-opacity="1" fill-rule="nonzero"/><path fill="#6bbfc2" d="M 138.347656 180.230469 C 138.347656 180.210938 127.855469 180.304688 128.410156 169.5625 C 128.414062 169.539062 138.683594 169.296875 138.347656 180.230469 " fill-opacity="1" fill-rule="nonzero"/><path fill="#6bbfc2" d="M 151.453125 181.304688 C 151.457031 181.28125 140.988281 181.183594 141.550781 170.542969 C 141.554688 170.515625 151.800781 170.480469 151.453125 181.304688 " fill-opacity="1" fill-rule="nonzero"/><g clip-path="url(#4bf374dc16)"><path fill="#6bbfc2" d="M 204.875 152.730469 C 204.867188 152.765625 208.03125 161.621094 196.046875 160.449219 C 196.039062 160.492188 192.703125 151.519531 204.875 152.730469 " fill-opacity="1" fill-rule="nonzero"/></g><path fill="#6bbfc2" d="M 202.386719 136.597656 C 202.375 136.65625 203.964844 148.417969 187.644531 144.074219 C 187.628906 144.136719 185.789062 131.941406 202.386719 136.597656 " fill-opacity="1" fill-rule="nonzero"/><path fill="#6bbfc2" d="M 161.703125 180.621094 C 161.707031 180.605469 153.710938 180.382812 154.148438 172.324219 C 154.152344 172.304688 161.96875 172.40625 161.703125 180.621094 " fill-opacity="1" fill-rule="nonzero"/><path fill="#6bbfc2" d="M 174.707031 178.03125 C 174.707031 178.007812 166.582031 179.476562 164.648438 171.386719 C 164.652344 171.363281 172.550781 169.800781 174.707031 178.03125 " fill-opacity="1" fill-rule="nonzero"/><path fill="#6bbfc2" d="M 184.753906 176.550781 C 184.757812 176.53125 176.660156 177.832031 174.734375 169.78125 C 174.738281 169.757812 182.605469 168.363281 184.753906 176.550781 " fill-opacity="1" fill-rule="nonzero"/><path fill="#6bbfc2" d="M 195.355469 171.6875 C 195.359375 171.660156 188.53125 175.382812 183.277344 168.53125 C 183.277344 168.507812 189.851562 164.683594 195.355469 171.6875 " fill-opacity="1" fill-rule="nonzero"/><path fill="#6bbfc2" d="M 150.621094 206.457031 C 150.625 206.441406 142.210938 207.734375 141.109375 199.558594 C 141.109375 199.539062 149.3125 198.144531 150.621094 206.457031 " fill-opacity="1" fill-rule="nonzero"/><path fill="#6bbfc2" d="M 142.070312 220.113281 C 142.070312 220.097656 133.390625 220.453125 133.648438 212.300781 C 133.648438 212.289062 142.136719 211.816406 142.070312 220.113281 " fill-opacity="1" fill-rule="nonzero"/><path fill="#6bbfc2" d="M 129.285156 217.574219 C 129.285156 217.570312 120.761719 215.183594 124.398438 207.847656 C 124.398438 207.84375 132.8125 210.058594 129.285156 217.574219 " fill-opacity="1" fill-rule="nonzero"/><path fill="#6bbfc2" d="M 118.296875 213.019531 C 118.300781 213.027344 111.015625 208.25 117.4375 202.621094 C 117.4375 202.628906 124.695312 207.179688 118.296875 213.019531 " fill-opacity="1" fill-rule="nonzero"/><path fill="#6bbfc2" d="M 107.136719 208.023438 C 107.136719 208.035156 103.164062 200.855469 112.121094 198.859375 C 112.121094 198.875 116.199219 205.777344 107.136719 208.023438 " fill-opacity="1" fill-rule="nonzero"/><path fill="#6bbfc2" d="M 140.761719 205.460938 C 140.761719 205.4375 132.332031 206.84375 131.21875 198.628906 C 131.222656 198.613281 139.4375 197.101562 140.761719 205.460938 " fill-opacity="1" fill-rule="nonzero"/><path fill="#6bbfc2" d="M 161.03125 205.15625 C 161.035156 205.136719 152.640625 206.296875 151.539062 198.171875 C 151.542969 198.148438 159.726562 196.894531 161.03125 205.15625 " fill-opacity="1" fill-rule="nonzero"/><path fill="#6bbfc2" d="M 172.417969 200.414062 C 172.417969 200.394531 165.015625 204.042969 160.394531 197.070312 C 160.394531 197.054688 167.535156 193.316406 172.417969 200.414062 " fill-opacity="1" fill-rule="nonzero"/><path fill="#6bbfc2" d="M 202.332031 166.753906 C 202.332031 166.738281 197.273438 170.066406 192.464844 164.894531 C 192.464844 164.882812 197.316406 161.464844 202.332031 166.753906 " fill-opacity="1" fill-rule="nonzero"/><g clip-path="url(#999284e460)"><path fill="#6bbfc2" d="M -2.320312 212.550781 C -2.324219 212.546875 6.933594 208.113281 2.089844 199.078125 C 2.089844 199.074219 -7.058594 203.253906 -2.320312 212.550781 " fill-opacity="1" fill-rule="nonzero"/></g><path fill="#6bbfc2" d="M 12.105469 207.976562 C 12.101562 207.980469 20.980469 201.0625 11.824219 193.582031 C 11.820312 193.585938 2.945312 200.191406 12.105469 207.976562 " fill-opacity="1" fill-rule="nonzero"/></g></g></g></svg>