<svg width="56" height="40" viewBox="0 0 56 40" fill="none" xmlns="http://www.w3.org/2000/svg">
<path d="M54.3429 6.10613C53.7045 3.70262 51.8238 1.80969 49.4358 1.1673C45.1075 0 27.7513 0 27.7513 0C27.7513 0 10.3952 0 6.0668 1.1673C3.67884 1.8098 1.79811 3.70262 1.15978 6.10613C0 10.4626 0 19.5521 0 19.5521C0 19.5521 0 28.6415 1.15978 32.998C1.79811 35.4015 3.67884 37.2155 6.0668 37.8579C10.3952 39.0252 27.7513 39.0252 27.7513 39.0252C27.7513 39.0252 45.1074 39.0252 49.4358 37.8579C51.8238 37.2155 53.7045 35.4015 54.3429 32.998C55.5026 28.6415 55.5026 19.5521 55.5026 19.5521C55.5026 19.5521 55.5026 10.4626 54.3429 6.10613ZM22.0749 27.8046V11.2995L36.5812 19.5523L22.0749 27.8046Z" fill="#5A789F"/>
</svg>
