<svg width="56" height="56" viewBox="0 0 56 56" fill="none" xmlns="http://www.w3.org/2000/svg">
<path d="M51.3916 0H4.09717C1.83544 0 0 1.79227 0 3.99927V51.498C0 53.708 1.83544 55.5026 4.09717 55.5026H51.3916C53.6549 55.5026 55.5026 53.708 55.5026 51.498V3.99927C55.5026 1.79227 53.6549 0 51.3916 0ZM16.4612 47.2959H8.22518V20.8096H16.4612V47.2959ZM12.3432 17.1881C9.70448 17.1881 7.57148 15.0497 7.57148 12.4133C7.57148 9.7808 9.70448 7.6424 12.3432 7.6424C14.9757 7.6424 17.1141 9.7808 17.1141 12.4133C17.1141 15.0497 14.9757 17.1881 12.3432 17.1881ZM47.2929 47.2959H39.07V34.4163C39.07 31.3436 39.0099 27.3929 34.7909 27.3929C30.5064 27.3929 29.8535 30.7392 29.8535 34.1935V47.2967H21.6244V20.8096H29.522V24.4266H29.6346C30.7338 22.3452 33.4195 20.149 37.425 20.149C45.755 20.149 47.2936 25.633 47.2936 32.7674L47.2929 47.2959Z" fill="#5A789F"/>
</svg>
